<svg width="198" height="199" viewBox="0 0 198 199" fill="none" xmlns="http://www.w3.org/2000/svg">
<path d="M102.773 193.152L99.8212 192.616L99.7729 192.882V193.152H102.773ZM102.773 196H99.7729C99.7729 197.222 100.514 198.322 101.647 198.781C102.779 199.239 104.077 198.965 104.927 198.088L102.773 196ZM109.476 189.084L111.63 191.171L111.667 191.134L111.702 191.095L109.476 189.084ZM114.96 182.167L117.502 183.76L114.96 182.167ZM118.616 175.861L116.05 174.307L118.616 175.861ZM123.694 168.131L126.664 168.555L123.694 168.131ZM123.694 158.571L126.464 159.723L123.694 158.571ZM130.194 151.247L132.065 153.592L130.194 151.247ZM88.3516 173.827L86.4758 171.486L88.3516 173.827ZM101.757 161.418L98.7696 161.69L101.757 161.418ZM97.4919 156.129L99.2936 153.731L99.2657 153.71L99.2373 153.69L97.4919 156.129ZM95.0545 148.196L94.4355 145.261L94.0177 145.349L93.6411 145.55L95.0545 148.196ZM91.3984 147.586L88.5038 148.374L91.3984 147.586ZM84.8986 140.059L84.0354 137.186L84.8986 140.059ZM80.8363 139.449L78.059 138.314L77.8363 138.86V139.449H80.8363ZM80.8363 132.736L78.1117 133.992L80.8363 132.736ZM69.8679 110.767L72.8496 110.436L69.8679 110.767ZM44.4783 88.3903L47.1768 87.0795L44.4783 88.3903ZM43.6658 80.05L46.3499 78.7099L43.6658 80.05ZM36.1505 81.4739L34.6055 78.9023L36.1505 81.4739ZM18.4793 86.5595L17.296 89.3162L18.4793 86.5595ZM3.4486 65.2002L2.85941 62.2586L3.4486 65.2002ZM20.9167 51.7744L18.4578 50.0558L20.9167 51.7744ZM22.1354 42.4171L19.2325 41.66L19.1942 41.8068L19.1709 41.9566L22.1354 42.4171ZM152.13 145.958L151.717 142.987L152.13 145.958ZM169.598 112.19L166.602 112.038L166.597 112.143L166.599 112.247L169.598 112.19ZM162.286 134.77L164.92 136.207L162.286 134.77ZM184.426 85.7457L186.499 87.9142L184.426 85.7457ZM190.723 60.1147L192.991 58.1516L190.723 60.1147ZM181.786 55.6394L180.089 58.1138L181.786 55.6394ZM161.271 46.8923L162.154 44.0254L161.271 46.8923ZM148.068 44.2479L150.191 42.1281L148.068 44.2479ZM133.647 33.8734L133.504 36.87L133.647 33.8734ZM128.163 35.5008L128.206 32.5011L128.163 35.5008ZM115.772 17.8031L118.751 17.4462L115.772 17.8031ZM100.945 17.8031L101.932 20.6361L100.945 17.8031ZM98.5075 18.8202L98.8509 21.8005L98.5075 18.8202ZM95.0545 16.5826L95.417 13.6046L95.0545 16.5826ZM89.5703 17.8031L91.3612 20.2099L89.5703 17.8031ZM87.336 19.6339L88.4913 22.4025L87.336 19.6339ZM80.0238 20.651L78.5147 18.0582L80.0238 20.651ZM70.2742 16.1758L73.2738 16.224L70.2742 16.1758ZM73.1178 10.8868L70.2965 11.9067L73.1178 10.8868ZM69.8679 8.6492L72.7285 7.74521L69.8679 8.6492ZM69.8679 4.58075L68.1666 7.05168L69.8679 4.58075ZM62.9619 8.44578L64.2207 11.1689L62.9619 8.44578ZM56.8684 9.66627L55.7132 6.89764L56.8684 9.66627ZM55.6497 12.5142L54.0356 9.98546L55.6497 12.5142ZM47.7282 10.2766L50.1878 11.9941L47.7282 10.2766ZM48.9469 15.1587L46.3554 16.6701L48.9469 15.1587ZM50.978 18.4134L48.1459 19.4029L50.978 18.4134ZM41.2284 26.9571L41.0747 23.961L41.2284 26.9571ZM36.1505 24.9229L38.2734 22.8031L36.1505 24.9229ZM26.1977 21.6681L26.8049 24.606L26.1977 21.6681ZM21.1198 22.8887L23.8023 24.2319L21.1198 22.8887ZM20.1042 26.1434L22.9926 26.9542L20.1042 26.1434ZM19.698 30.2118L16.6981 30.1909L19.698 30.2118ZM22.5416 36.111L25.4733 35.4744L22.5416 36.111ZM47.1188 22.4818L45.2969 20.0984L47.1188 22.4818ZM99.7729 193.152V196H105.773V193.152H99.7729ZM104.927 198.088L111.63 191.171L107.321 186.996L100.619 193.912L104.927 198.088ZM109.476 189.084C111.702 191.095 111.702 191.095 111.702 191.095C111.702 191.095 111.702 191.094 111.702 191.094C111.703 191.094 111.703 191.094 111.703 191.093C111.704 191.092 111.705 191.091 111.706 191.09C111.708 191.087 111.712 191.084 111.716 191.079C111.724 191.07 111.736 191.057 111.751 191.04C111.781 191.006 111.825 190.958 111.88 190.895C111.991 190.771 112.15 190.591 112.346 190.368C112.737 189.922 113.276 189.298 113.872 188.583C115.036 187.189 116.521 185.327 117.502 183.76L112.418 180.575C111.669 181.77 110.412 183.365 109.266 184.739C108.707 185.408 108.2 185.995 107.833 186.415C107.649 186.624 107.502 186.791 107.401 186.904C107.35 186.961 107.311 187.004 107.286 187.033C107.273 187.047 107.263 187.057 107.257 187.064C107.254 187.067 107.252 187.07 107.251 187.071C107.25 187.072 107.25 187.072 107.25 187.073C107.25 187.073 107.25 187.073 107.25 187.073C107.25 187.073 107.25 187.073 107.25 187.073C107.25 187.073 107.25 187.072 109.476 189.084ZM117.502 183.76C118.235 182.591 118.789 181.603 119.338 180.619C119.887 179.636 120.432 178.654 121.182 177.416L116.05 174.307C115.237 175.65 114.643 176.721 114.099 177.696C113.555 178.67 113.064 179.544 112.418 180.575L117.502 183.76ZM121.182 177.416C121.953 176.143 122.928 175.04 124.064 173.595C125 172.405 126.371 170.609 126.664 168.555L120.724 167.708C120.692 167.932 120.421 168.521 119.348 169.886C118.475 170.996 117.073 172.618 116.05 174.307L121.182 177.416ZM126.664 168.555C126.934 166.661 126.601 164.362 126.45 162.892C126.363 162.045 126.31 161.347 126.322 160.754C126.334 160.148 126.413 159.845 126.464 159.723L120.924 157.418C120.467 158.517 120.343 159.663 120.323 160.633C120.303 161.617 120.39 162.623 120.481 163.505C120.686 165.493 120.86 166.754 120.724 167.708L126.664 168.555ZM126.464 159.723C126.676 159.213 127.288 158.277 128.366 157.068C129.397 155.913 130.695 154.686 132.065 153.592L128.322 148.903C126.705 150.193 125.159 151.651 123.89 153.073C122.668 154.442 121.524 155.975 120.924 157.418L126.464 159.723ZM105.725 193.688C106.075 191.759 105.294 188.587 101.797 186.971L99.2799 192.417C99.5175 192.527 99.6417 192.629 99.7015 192.687C99.7615 192.746 99.7847 192.788 99.7938 192.807C99.8051 192.831 99.8059 192.843 99.8048 192.835C99.8042 192.83 99.8023 192.814 99.8027 192.785C99.8032 192.757 99.8058 192.701 99.8212 192.616L105.725 193.688ZM101.797 186.971C101.081 186.64 99.8594 185.813 98.4923 184.749C97.1803 183.727 95.9593 182.664 95.2995 182.033L91.1534 186.37C91.9831 187.163 93.3619 188.358 94.8056 189.482C96.1941 190.564 97.8841 191.772 99.2799 192.417L101.797 186.971ZM95.2995 182.033C94.5294 181.297 93.6714 180.867 92.8162 180.654C92.0093 180.454 91.2927 180.472 90.8656 180.493C90.7573 180.499 90.6549 180.506 90.578 180.511C90.4934 180.516 90.4403 180.52 90.393 180.522C90.2845 180.527 90.3296 180.52 90.4373 180.531C90.5503 180.542 90.8696 180.586 91.2463 180.793C91.6686 181.025 92.0024 181.373 92.2126 181.764L86.928 184.605C87.2567 185.216 87.7471 185.717 88.3585 186.053C88.9242 186.363 89.4652 186.462 89.8268 186.499C90.1831 186.536 90.5038 186.524 90.6923 186.514C90.7935 186.509 90.8942 186.503 90.9681 186.498C91.0498 186.493 91.1106 186.489 91.1694 186.486C91.4109 186.474 91.4264 186.491 91.3706 186.478C91.3334 186.468 91.2837 186.451 91.2324 186.423C91.2083 186.41 91.1887 186.397 91.174 186.387C91.1594 186.376 91.1527 186.369 91.1534 186.37L95.2995 182.033ZM92.2126 181.764C91.8327 181.057 91.4269 180.549 91.0938 180.147C90.7616 179.746 90.5117 179.46 90.1847 179.001L85.2998 182.485C85.7852 183.166 86.2124 183.66 86.4727 183.974C86.732 184.287 86.834 184.43 86.928 184.605L92.2126 181.764ZM90.1847 179.001C89.3531 177.835 88.1133 177.435 87.5459 177.277C86.9124 177.101 86.1781 177 85.8667 176.949C85.6588 176.915 85.5532 176.893 85.4972 176.879C85.418 176.859 85.5681 176.885 85.7973 177.019C86.0406 177.161 86.6105 177.568 86.8829 178.391C87.1586 179.224 86.9355 179.891 86.8226 180.142L81.3497 177.683C81.0844 178.273 80.836 179.217 81.187 180.277C81.5348 181.328 82.2808 181.914 82.7748 182.202C83.5934 182.68 84.5823 182.818 84.8953 182.87C85.4726 182.965 85.7158 182.996 85.9391 183.058C86.2286 183.138 85.7252 183.082 85.2998 182.485L90.1847 179.001ZM86.8226 180.142C86.955 179.848 87.4009 179.155 88.1373 178.277C88.8388 177.439 89.6128 176.661 90.2274 176.168L86.4758 171.486C85.4654 172.295 84.4114 173.381 83.5387 174.423C82.701 175.422 81.8266 176.622 81.3497 177.683L86.8226 180.142ZM90.2274 176.168C91.5218 175.131 92.2993 174.085 92.9794 173.301C93.6904 172.481 94.7188 171.392 96.9051 169.679L93.2038 164.956C90.7185 166.904 89.411 168.257 88.4463 169.37C87.4506 170.518 87.2126 170.896 86.4758 171.486L90.2274 176.168ZM96.9051 169.679C99.1231 167.94 100.514 167.244 101.887 166.338C102.488 165.941 103.324 165.349 103.93 164.461C104.643 163.417 104.847 162.274 104.745 161.147L98.7696 161.69C98.7726 161.723 98.7612 161.642 98.7952 161.493C98.8322 161.332 98.9011 161.186 98.975 161.078C99.0734 160.934 99.0965 160.99 98.5813 161.33C97.7194 161.899 95.6575 163.033 93.2038 164.956L96.9051 169.679ZM104.745 161.147C104.646 160.057 104.193 159.113 103.782 158.431C103.349 157.712 102.815 157.046 102.298 156.474C101.267 155.332 100.091 154.33 99.2936 153.731L95.6901 158.528C96.2469 158.946 97.122 159.694 97.8445 160.494C98.2046 160.893 98.4734 161.247 98.6437 161.529C98.8355 161.847 98.7873 161.885 98.7696 161.69L104.745 161.147ZM99.2373 153.69C99.6349 153.974 99.7936 154.271 99.8379 154.363C99.8955 154.483 99.8823 154.514 99.8712 154.408C99.8487 154.193 99.8494 153.528 100.307 152.283L94.6763 150.212C93.9968 152.059 93.7606 153.665 93.9039 155.033C94.0362 156.296 94.5499 157.714 95.7464 158.569L99.2373 153.69ZM100.307 152.283C100.693 151.234 100.921 150.087 100.732 148.939C100.524 147.683 99.8517 146.662 98.8933 145.996C98.0228 145.392 97.0852 145.193 96.3895 145.134C95.6737 145.074 94.9931 145.143 94.4355 145.261L95.6734 151.132C95.759 151.113 95.8469 151.11 95.8864 151.113C95.9461 151.118 95.7507 151.119 95.4709 150.925C95.3167 150.818 95.1554 150.662 95.0253 150.457C94.8949 150.251 94.8349 150.056 94.8119 149.917C94.7717 149.673 94.8591 149.715 94.6763 150.212L100.307 152.283ZM93.6411 145.55C93.5468 145.6 93.4 145.665 93.2435 145.713C93.0774 145.764 92.9993 145.766 93.0144 145.766C93.0246 145.766 93.3025 145.763 93.6515 145.987C93.8316 146.102 93.9883 146.253 94.1075 146.422C94.2237 146.587 94.2738 146.727 94.2929 146.798L88.5038 148.374C88.7975 149.453 89.4302 150.408 90.4135 151.038C91.335 151.629 92.306 151.769 93.0423 151.766C94.4421 151.759 95.7294 151.237 96.4678 150.842L93.6411 145.55ZM94.2929 146.798C94.2317 146.573 94.1649 146.078 94.1176 145.232C94.0696 144.373 94.0583 143.616 94.0146 142.622C93.9768 141.764 93.9144 140.743 93.7362 139.883C93.6497 139.466 93.4946 138.868 93.1707 138.293C92.8505 137.724 92.0939 136.727 90.6736 136.49L89.6857 142.408C88.5701 142.222 88.061 141.447 87.9431 141.238C87.8215 141.022 87.8235 140.92 87.8609 141.1C87.9302 141.435 87.982 142.016 88.0204 142.887C88.0528 143.623 88.0797 144.721 88.1269 145.566C88.1748 146.423 88.2603 147.48 88.5038 148.374L94.2929 146.798ZM90.6736 136.49C90.3809 136.441 90.5438 136.455 90.0085 136.347C89.593 136.262 89.1082 136.198 88.49 136.222C87.4095 136.264 86.0673 136.576 84.0354 137.186L85.7618 142.932C87.7922 142.322 88.4812 142.227 88.721 142.218C88.763 142.216 88.7605 142.216 88.8148 142.227C88.8884 142.242 88.9321 142.253 89.1069 142.293C89.2559 142.326 89.4522 142.369 89.6857 142.408L90.6736 136.49ZM84.0354 137.186C83.3787 137.383 82.9448 137.451 82.6894 137.468C82.4286 137.486 82.4248 137.447 82.5772 137.496C82.7472 137.552 83.0797 137.711 83.3759 138.089C83.6662 138.46 83.8363 138.937 83.8363 139.449H77.8363C77.8363 141.228 79.0505 142.658 80.7202 143.202C82.1863 143.679 83.9096 143.489 85.7618 142.932L84.0354 137.186ZM83.6135 140.583C84.0785 139.445 84.3725 137.936 84.4283 136.438C84.4838 134.947 84.3171 133.121 83.5609 131.48L78.1117 133.992C78.3304 134.466 78.4683 135.251 78.4325 136.215C78.3968 137.171 78.2034 137.961 78.059 138.314L83.6135 140.583ZM83.5609 131.48C83.1948 130.686 82.807 130.018 82.5551 129.569C82.2684 129.057 82.1841 128.87 82.1499 128.761C82.1406 128.732 82.1471 128.743 82.1496 128.781C82.1522 128.821 82.1475 128.845 82.1487 128.839C82.1546 128.81 82.2105 128.577 82.5484 128.051L77.4992 124.809C76.9231 125.707 76.4712 126.644 76.2676 127.65C76.0515 128.72 76.1516 129.686 76.4251 130.558C76.6701 131.338 77.0555 132.029 77.3211 132.502C77.6214 133.038 77.8684 133.464 78.1117 133.992L83.5609 131.48ZM82.5484 128.051C83.4391 126.663 84.1316 125.531 84.542 124.41C85.0055 123.144 85.055 122.058 85.055 120.938H79.055C79.055 121.852 79.0029 122.088 78.9078 122.347C78.7596 122.752 78.4365 123.349 77.4992 124.809L82.5484 128.051ZM85.055 120.938C85.055 119.02 84.1441 117.34 83.4351 116.275C82.6729 115.13 81.8109 114.21 81.3343 113.732L77.0884 117.972C77.4242 118.308 77.984 118.914 78.4405 119.6C78.9503 120.365 79.055 120.821 79.055 120.938H85.055ZM81.3343 113.732C81.8326 114.232 81.9411 114.754 81.9619 114.863C81.9868 114.995 81.9739 115.032 81.9783 114.882C81.9824 114.746 81.9955 114.577 82.0184 114.308C82.0387 114.07 82.0679 113.739 82.0817 113.41C82.1024 112.916 82.152 111.656 81.5107 110.518C81.1236 109.831 80.4996 109.207 79.6234 108.852C78.8048 108.521 78.0018 108.519 77.3646 108.611L78.2144 114.55C78.1696 114.556 77.83 114.599 77.3718 114.414C76.8561 114.205 76.4898 113.829 76.2835 113.463C76.1926 113.302 76.1453 113.166 76.1211 113.081C76.0969 112.996 76.0899 112.942 76.0886 112.931C76.0873 112.921 76.0944 112.982 76.087 113.158C76.0797 113.333 76.0634 113.525 76.0401 113.799C76.0193 114.042 75.9907 114.376 75.981 114.705C75.9716 115.021 75.973 115.485 76.0665 115.979C76.1557 116.45 76.3869 117.269 77.0884 117.972L81.3343 113.732ZM77.3646 108.611C76.4899 108.736 74.781 108.753 73.2296 108.62C72.4611 108.555 71.8783 108.464 71.5431 108.38C71.3553 108.332 71.3993 108.325 71.554 108.407C71.6327 108.45 71.8625 108.579 72.1117 108.839C72.37 109.109 72.7616 109.642 72.8496 110.436L66.8862 111.097C67.0771 112.817 68.4676 113.561 68.7207 113.696C69.2007 113.954 69.7048 114.104 70.0789 114.198C70.8672 114.397 71.8149 114.521 72.7191 114.599C74.5132 114.752 76.7194 114.764 78.2144 114.55L77.3646 108.611ZM72.8496 110.436C72.4235 106.595 71.6725 103.228 70.8071 100.656C70.3763 99.3755 69.8956 98.2276 69.3763 97.2939C68.9314 96.4939 68.206 95.3742 67.0926 94.737L64.1123 99.9445C63.7099 99.7142 63.7715 99.5607 64.1327 100.21C64.4195 100.726 64.7641 101.51 65.1203 102.569C65.829 104.676 66.4999 107.615 66.8862 111.097L72.8496 110.436ZM67.0926 94.737C65.95 94.0831 64.8412 94.0903 64.0424 94.2297C63.6875 94.2917 63.3724 94.3834 63.1867 94.4382C62.9547 94.5066 62.8803 94.5301 62.7902 94.5519C62.6711 94.5807 62.8537 94.5189 63.1228 94.5939C63.3879 94.6677 63.3928 94.7759 63.1521 94.5107L58.7095 98.5435C59.4843 99.3971 60.4033 100.065 61.5125 100.374C62.6259 100.684 63.5829 100.533 64.2001 100.384C64.4781 100.317 64.7623 100.229 64.8834 100.193C65.0508 100.144 65.0832 100.139 65.0742 100.14C64.9673 100.159 64.544 100.192 64.1123 99.9445L67.0926 94.737ZM47.1768 87.0795C46.6911 86.0796 46.6447 85.0499 46.7405 83.7598C46.7786 83.2464 46.8801 82.3051 46.8988 81.6393C46.9188 80.9303 46.8952 79.8022 46.3499 78.7099L40.9817 81.39C40.8426 81.1114 40.9144 81.0017 40.9012 81.4705C40.8868 81.9824 40.8266 82.378 40.757 83.3153C40.6373 84.9267 40.5909 87.2534 41.7798 89.7011L47.1768 87.0795ZM46.3499 78.7099C45.5717 77.1513 44.1151 76.5849 43.0579 76.4213C42.0285 76.2621 40.9788 76.3968 40.0977 76.5951C38.297 77.0005 36.3057 77.8809 34.6055 78.9023L37.6955 84.0455C39.0056 83.2584 40.398 82.6777 41.4154 82.4486C41.9433 82.3298 42.1613 82.354 42.1407 82.3508C42.0924 82.3433 41.3859 82.1996 40.9817 81.39L46.3499 78.7099ZM34.6055 78.9023C32.7867 79.9951 31.3224 81.333 30.3893 82.1137C29.8726 82.546 29.5521 82.785 29.3208 82.9193C29.1017 83.0465 29.1792 82.9492 29.4476 82.9492V88.9492C30.6301 88.9492 31.6124 88.5269 32.3338 88.1079C33.0431 87.696 33.699 87.1677 34.2395 86.7155C35.4206 85.7272 36.3938 84.8275 37.6955 84.0455L34.6055 78.9023ZM63.1521 94.5107C61.6974 92.9082 60.1817 92.1578 58.6729 91.6365C58.0004 91.4041 57.2373 91.1886 56.6145 91.0003C55.946 90.7981 55.2693 90.5796 54.5303 90.2838L52.3005 95.8541C53.2706 96.2424 54.1339 96.5185 54.8777 96.7434C55.6671 96.9821 56.1883 97.1261 56.7135 97.3075C57.6 97.6138 58.133 97.9084 58.7095 98.5435L63.1521 94.5107ZM54.5303 90.2838C53.5587 89.8948 52.5554 89.5752 51.6783 89.2961C50.7612 89.0042 49.9837 88.7569 49.2803 88.4783C47.8025 87.893 47.3432 87.4222 47.1768 87.0795L41.7798 89.7011C42.9748 92.1611 45.275 93.3454 47.0709 94.0567C48.0043 94.4264 48.9923 94.7378 49.8586 95.0135C50.7649 95.3019 51.5631 95.5589 52.3005 95.8541L54.5303 90.2838ZM29.4476 82.9492C28.7309 82.9492 27.7214 83.089 26.859 83.2119C25.8848 83.3508 24.841 83.5104 23.7642 83.643C22.6882 83.7756 21.6879 83.8667 20.8612 83.8763C19.926 83.887 19.6147 83.7822 19.6626 83.8027L17.296 89.3162C18.4813 89.825 19.8813 89.8879 20.9303 89.8758C22.0878 89.8625 23.3447 89.7401 24.4978 89.598C25.6502 89.456 26.8078 89.2799 27.706 89.1519C28.7161 89.0078 29.2503 88.9492 29.4476 88.9492V82.9492ZM19.6626 83.8027C19.9725 83.9357 20.3107 84.2307 20.4973 84.6441C20.6442 84.9696 20.6066 85.1703 20.6142 85.0675C20.634 84.7997 20.7818 84.2808 21.1243 83.3969C21.2542 83.0617 21.4684 82.5308 21.6083 82.1593C21.7541 81.772 21.9446 81.2395 22.0502 80.7073C22.1037 80.4381 22.1632 80.0384 22.135 79.5811C22.1074 79.1325 21.9799 78.3882 21.4347 77.684C20.1523 76.0273 18.2439 76.406 17.7506 76.5295L19.2079 82.3499C19.1591 82.3621 18.8498 82.4396 18.4027 82.3722C17.876 82.2928 17.1959 82.01 16.6902 81.3567C16.2394 80.7744 16.1615 80.1957 16.1464 79.9499C16.1379 79.8122 16.1444 79.7075 16.1501 79.648C16.1559 79.5868 16.1632 79.5486 16.1651 79.5389C16.1679 79.5249 16.1614 79.5598 16.1288 79.6618C16.0977 79.7593 16.0537 79.8842 15.993 80.0455C15.8519 80.4202 15.7297 80.7126 15.5296 81.2291C15.2119 82.0489 14.725 83.3481 14.6305 84.625C14.581 85.2946 14.6165 86.1993 15.0284 87.1121C15.4799 88.1126 16.2752 88.8781 17.296 89.3162L19.6626 83.8027ZM17.7506 76.5295C16.6546 76.8039 15.7369 77.3372 15.0584 77.7902C14.4333 78.2075 13.6984 78.7836 13.3292 79.0541C13.0992 79.2226 12.9251 79.3415 12.7839 79.4269C12.6405 79.5135 12.5837 79.5331 12.5952 79.529C12.686 79.4969 13.1532 79.3945 13.6412 79.666L10.7241 84.9091C12.1261 85.6892 13.5327 85.5614 14.5947 85.186C15.5331 84.8543 16.343 84.2841 16.8757 83.8937C17.5475 83.4014 17.8916 83.113 18.39 82.7802C18.8351 82.4831 19.0852 82.3806 19.2079 82.3499L17.7506 76.5295ZM13.6412 79.666C13.4867 79.5801 13.41 79.4711 12.7716 78.5475C12.57 78.2559 12.0514 77.4853 11.2327 76.9597C10.7551 76.6531 10.1462 76.4041 9.42415 76.3527C8.71211 76.3021 8.07363 76.4566 7.5464 76.6829L9.9129 82.1965C9.74113 82.2702 9.42002 82.3676 8.99837 82.3376C8.56673 82.3069 8.22124 82.1564 7.99123 82.0087C7.88443 81.9402 7.80937 81.8769 7.76506 81.8363C7.721 81.7959 7.69796 81.7692 7.6965 81.7675C7.69488 81.7657 7.70579 81.7782 7.73169 81.8129C7.75756 81.8474 7.79083 81.8939 7.83604 81.9593C7.97514 82.1605 8.35076 82.7426 8.75583 83.2346C9.20381 83.7787 9.83567 84.4149 10.7241 84.9091L13.6412 79.666ZM7.5464 76.6829C7.37433 76.7568 7.21525 76.8032 7.0953 76.8259C6.96191 76.8512 6.95642 76.8326 7.06171 76.8464C7.149 76.8578 7.56862 76.9262 8.00048 77.3272C8.51034 77.8007 8.68289 78.4058 8.68289 78.8294H2.68289C2.68289 79.8633 3.05857 80.9261 3.91753 81.7238C4.6985 82.449 5.61322 82.7081 6.28447 82.7958C7.58753 82.9661 8.91263 82.6258 9.9129 82.1965L7.5464 76.6829ZM8.68289 78.8294C8.68289 78.3008 8.56759 77.8311 8.49514 77.5653C8.41064 77.2554 8.30296 76.9411 8.19949 76.6577C8.00116 76.1144 7.71843 75.42 7.48629 74.827C6.96167 73.4867 6.5424 72.2746 6.42551 71.3381L0.471706 72.0812C0.693345 73.857 1.39122 75.7166 1.8991 77.014C2.18322 77.7398 2.3956 78.2558 2.56329 78.7152C2.64284 78.9331 2.68591 79.0683 2.70641 79.1435C2.73896 79.2629 2.68289 79.114 2.68289 78.8294H8.68289ZM6.42551 71.3381C6.25056 69.9365 6.06627 68.4838 6.01371 67.3588C5.98637 66.7736 6.00622 66.4687 6.02105 66.3755C6.03068 66.3149 6.01046 66.5235 5.8485 66.8272C5.67893 67.1451 5.14607 67.9198 4.0378 68.1418L2.85941 62.2586C1.54802 62.5213 0.85225 63.4452 0.554404 64.0036C0.264174 64.5478 0.150332 65.0882 0.0954328 65.4336C-0.0188093 66.1524 -0.0116467 66.9562 0.0202515 67.6389C0.0861795 69.0499 0.308122 70.7706 0.471706 72.0812L6.42551 71.3381ZM4.0378 68.1418C4.15902 68.1175 5.87301 67.9288 7.27043 67.0378C9.01791 65.9235 10.1047 63.996 10.1047 61.3352H4.10472C4.10472 61.8362 4.01185 62.0132 4.00965 62.0175C4.00696 62.0227 4.01275 62.0111 4.02844 61.9944C4.04288 61.979 4.05169 61.9742 4.04458 61.9787C4.01998 61.9944 3.93168 62.0412 3.72111 62.0938C3.61955 62.1191 3.50742 62.1418 3.3669 62.167C3.27821 62.1829 3.02114 62.2262 2.85941 62.2586L4.0378 68.1418ZM10.1047 61.3352C10.1047 59.4834 10.1184 58.512 10.2497 57.8543C10.3037 57.5841 10.3532 57.5166 10.3402 57.5377C10.313 57.5816 10.2806 57.5976 10.3214 57.5721L7.13794 52.4862C5.45325 53.5408 4.68615 55.0758 4.36592 56.6793C4.09103 58.0558 4.10472 59.7288 4.10472 61.3352H10.1047ZM10.3214 57.5721C10.0741 57.7268 9.97123 57.7099 10.3042 57.6346C10.5657 57.5754 10.9379 57.514 11.4441 57.4474C11.944 57.3816 12.5017 57.3198 13.1338 57.249C13.7533 57.1796 14.4314 57.1029 15.1178 57.0114C16.4648 56.8319 17.9896 56.578 19.354 56.1422C20.6123 55.7402 22.3156 55.0097 23.3756 53.4931L18.4578 50.0558C18.5697 49.8956 18.4787 50.123 17.5281 50.4267C16.6835 50.6965 15.5848 50.8961 14.3251 51.064C13.7082 51.1462 13.0872 51.2167 12.4658 51.2863C11.8571 51.3545 11.232 51.4236 10.6614 51.4987C10.097 51.5729 9.51078 51.6624 8.97999 51.7825C8.52057 51.8865 7.79142 52.0772 7.13794 52.4862L10.3214 57.5721ZM23.3756 53.4931C24.0638 52.5084 24.3987 51.4072 24.5843 50.4601C24.7726 49.4994 24.8433 48.4988 24.8791 47.5963C24.9593 45.5782 24.8975 44.1805 25.0998 42.8775L19.1709 41.9566C18.8994 43.7049 18.9391 45.9688 18.8839 47.358C18.852 48.1592 18.7958 48.7986 18.6963 49.3064C18.5941 49.8278 18.4805 50.0233 18.4578 50.0558L23.3756 53.4931ZM132.065 153.592C134.029 152.025 137.049 151.055 140.87 150.394C144.819 149.71 148.51 149.491 152.544 148.93L151.717 142.987C148.438 143.443 143.744 143.807 139.846 144.482C135.817 145.18 131.525 146.346 128.322 148.903L132.065 153.592ZM152.544 148.93C155.327 148.543 157.664 146.516 159.481 144.412C161.397 142.194 163.231 139.303 164.92 136.207L159.653 133.333C158.056 136.26 156.458 138.733 154.941 140.49C153.325 142.36 152.227 142.916 151.717 142.987L152.544 148.93ZM164.92 136.207C167.001 132.392 168.93 128.069 170.331 123.903C171.714 119.792 172.663 115.603 172.598 112.134L166.599 112.247C166.645 114.703 165.943 118.13 164.645 121.99C163.364 125.796 161.581 129.799 159.653 133.333L164.92 136.207ZM172.595 112.343C172.688 110.507 173.04 107.531 173.775 104.716C174.143 103.311 174.587 102.02 175.102 100.958C175.631 99.8689 176.15 99.1983 176.578 98.8475L172.775 94.2066C171.416 95.3204 170.432 96.84 169.705 98.3376C168.965 99.8621 168.401 101.553 167.971 103.198C167.112 106.482 166.712 109.874 166.602 112.038L172.595 112.343ZM176.578 98.8475C178.64 97.1582 180.166 95.2684 181.603 93.4711C183.065 91.6429 184.49 89.8345 186.499 87.9142L182.353 83.5772C180.011 85.816 178.349 87.9336 176.917 89.724C175.461 91.5453 174.288 92.9667 172.775 94.2066L176.578 98.8475ZM186.499 87.9142C188.74 85.7724 191.586 82.9706 193.842 80.1653C194.97 78.7637 196.018 77.2773 196.774 75.802C197.5 74.3826 198.127 72.6465 197.978 70.8506L191.998 71.3482C192.012 71.5052 191.958 72.0423 191.433 73.0677C190.936 74.0374 190.162 75.1675 189.167 76.4052C187.178 78.8787 184.581 81.4472 182.353 83.5772L186.499 87.9142ZM197.978 70.8506C197.616 66.5045 196.159 61.8117 192.991 58.1516L188.454 62.0778C190.568 64.5203 191.71 67.883 191.998 71.3482L197.978 70.8506ZM192.991 58.1516C192.274 57.3232 191.3 56.8323 190.673 56.5419C189.978 56.2197 189.129 55.8964 188.376 55.6001C186.77 54.9678 185.075 54.2571 183.482 53.165L180.089 58.1138C182.284 59.6182 184.527 60.5329 186.178 61.1829C187.054 61.5278 187.663 61.76 188.151 61.986C188.707 62.2438 188.641 62.2939 188.454 62.0778L192.991 58.1516ZM183.482 53.165C180.852 51.3623 178.781 49.4303 176.791 47.6524C174.975 46.0309 172.854 44.1575 170.494 43.419L168.702 49.1452C169.593 49.4238 170.74 50.2924 172.793 52.1269C174.672 53.8051 177.069 56.0432 180.089 58.1138L183.482 53.165ZM170.494 43.419C167.999 42.638 165.716 43.1722 164.265 43.5435C163.433 43.7561 162.969 43.8921 162.504 43.9708C162.074 44.0438 162.032 43.9878 162.154 44.0254L160.387 49.7593C161.565 50.1223 162.686 50.0257 163.508 49.8863C164.295 49.7528 165.171 49.5048 165.751 49.3564C167.123 49.0056 167.948 48.9091 168.702 49.1452L170.494 43.419ZM162.154 44.0254C161.014 43.6741 159.955 43.1473 158.385 42.4948C157.031 41.932 155.222 41.2479 153.349 41.2479V47.2479C153.914 47.2479 154.745 47.4791 156.082 48.0351C157.204 48.5014 158.887 49.2969 160.387 49.7593L162.154 44.0254ZM153.349 41.2479C151.399 41.2479 150.051 41.456 149.337 41.5365C148.924 41.5832 148.948 41.5571 149.097 41.5767C149.405 41.6171 149.842 41.7784 150.191 42.1281L145.945 46.3676C147.455 47.8798 149.406 47.567 150.011 47.4986C150.889 47.3993 151.822 47.2479 153.349 47.2479V41.2479ZM150.191 42.1281C150.485 42.4228 150.48 42.6304 150.342 42.1969C150.195 41.7387 150.159 41.5072 149.937 40.7295C149.771 40.1462 149.508 39.3118 149.045 38.5353C148.558 37.7185 147.73 36.7684 146.377 36.3167L144.478 42.008C144.039 41.8615 143.871 41.5725 143.892 41.6075C143.936 41.6828 144.029 41.891 144.168 42.3756C144.25 42.6659 144.468 43.5278 144.626 44.0231C144.793 44.5431 145.143 45.5644 145.945 46.3676L150.191 42.1281ZM146.377 36.3167C146.397 36.3232 146.289 36.2847 145.986 36.1227C145.709 35.9747 145.368 35.7775 144.946 35.5273C144.138 35.0473 143.052 34.3822 141.915 33.7467C139.744 32.533 136.701 31.0157 133.79 30.8769L133.504 36.87C134.858 36.9346 136.792 37.7566 138.987 38.984C140.034 39.569 140.979 40.1498 141.884 40.687C142.648 41.14 143.65 41.7316 144.478 42.008L146.377 36.3167ZM133.79 30.8769C132.671 30.8235 131.698 30.9256 130.817 31.1986C129.92 31.4763 129.289 31.8805 128.873 32.1661C128.625 32.3363 128.591 32.3651 128.465 32.4474C128.388 32.4976 128.369 32.5046 128.378 32.5006C128.447 32.4699 128.44 32.5045 128.206 32.5011L128.119 38.5004C129.145 38.5155 130.028 38.3356 130.828 37.9778C131.514 37.6709 132.111 37.2209 132.267 37.1138C132.48 36.9675 132.535 36.9478 132.592 36.9299C132.665 36.9073 132.917 36.842 133.504 36.87L133.79 30.8769ZM128.206 32.5011C128.46 32.5048 128.891 32.5517 129.367 32.7936C129.877 33.0526 130.243 33.4359 130.478 33.8223C130.831 34.4051 130.838 34.957 130.817 34.7458C130.809 34.6652 130.776 33.7723 130.439 32.8434C129.67 30.728 127.735 28.9918 124.163 27.6157L122.006 33.2147C123.382 33.7448 124.104 34.2154 124.465 34.5229C124.64 34.6717 124.725 34.7771 124.761 34.8286C124.78 34.8551 124.79 34.8724 124.794 34.8805C124.798 34.8885 124.799 34.8921 124.8 34.8923C124.812 34.9278 124.798 34.8477 124.847 35.3405C124.854 35.4161 124.899 36.1949 125.348 36.9339C125.629 37.3984 126.058 37.8421 126.649 38.1424C127.206 38.4257 127.738 38.4949 128.119 38.5004L128.206 32.5011ZM124.163 27.6157C122.849 27.1096 122.796 26.7762 122.912 26.9904C123.099 27.3345 122.941 27.578 123.052 27.2667C123.221 26.7917 123.43 26.5102 123.921 25.5521C124.112 25.1781 124.368 24.6466 124.532 24.0506C124.697 23.4477 124.834 22.5521 124.532 21.5633L118.794 23.3177C118.644 22.8271 118.741 22.4781 118.746 22.4598C118.749 22.4484 118.723 22.5395 118.581 22.8159C118.405 23.1585 117.743 24.2884 117.4 25.2529C116.998 26.381 116.685 28.092 117.637 29.8489C118.519 31.4758 120.152 32.5004 122.006 33.2147L124.163 27.6157ZM124.532 21.5633C123.909 19.5274 122.164 18.8923 121.286 18.6768C120.846 18.5686 120.395 18.5072 120.105 18.4669C119.764 18.4194 119.54 18.3885 119.328 18.3444C118.917 18.2589 118.9 18.1877 118.953 18.2401C119.039 18.3231 118.845 18.2307 118.751 17.4462L112.794 18.16C113.004 19.9184 113.623 21.4279 114.775 22.5458C115.895 23.633 117.198 24.0296 118.107 24.2187C118.555 24.3119 118.992 24.3699 119.279 24.4098C119.617 24.4568 119.763 24.4811 119.856 24.5038C120.044 24.55 119.112 24.3571 118.794 23.3177L124.532 21.5633ZM118.751 17.4462C118.518 15.5016 118.005 13.5265 117.513 11.9847C117.265 11.2055 117.012 10.5056 116.784 9.94118C116.595 9.47035 116.329 8.85222 116.035 8.41076L111.041 11.7355C110.95 11.5992 111.015 11.6764 111.219 12.1828C111.385 12.5955 111.589 13.1548 111.797 13.8083C112.22 15.1319 112.621 16.7167 112.794 18.16L118.751 17.4462ZM116.035 8.41076C115.546 7.67567 114.79 6.79219 113.643 6.34161C112.301 5.81422 111.017 6.09855 110.072 6.66377C109.252 7.15461 108.669 7.85445 108.282 8.39333C107.868 8.96873 107.503 9.6127 107.186 10.2214C106.619 11.3091 105.882 12.9536 105.407 13.9184C104.8 15.1501 104.371 15.8216 104.103 16.0902L108.349 20.3297C109.401 19.2761 110.205 17.7555 110.788 16.5712C111.504 15.12 111.917 14.1246 112.506 12.9947C112.767 12.4947 112.981 12.1354 113.154 11.8939C113.354 11.6159 113.365 11.6852 113.153 11.8125C112.816 12.0142 112.152 12.2021 111.45 11.9261C110.943 11.727 110.846 11.4427 111.041 11.7355L116.035 8.41076ZM104.103 16.0902C104.304 15.889 104.698 15.7136 105.086 15.726C105.269 15.7318 105.282 15.7836 104.846 15.5989C104.589 15.49 103.835 15.137 103.149 14.9389C102.367 14.7132 101.22 14.5303 99.9579 14.9701L101.932 20.6361C101.581 20.7584 101.353 20.6654 101.485 20.7036C101.713 20.7694 101.869 20.8543 102.507 21.1243C102.966 21.3184 103.859 21.6899 104.895 21.7229C106.137 21.7625 107.358 21.3219 108.349 20.3297L104.103 16.0902ZM99.9579 14.9701C99.4233 15.1564 98.9789 15.3586 98.5848 15.5981C98.2303 15.8136 97.8876 16.0947 97.9368 16.0572C97.9454 16.0507 98.0144 15.9982 98.1186 15.9399C98.2261 15.8798 98.3227 15.8399 98.3938 15.8159C98.5014 15.7796 98.4831 15.8032 98.164 15.84L98.8509 21.8005C99.3403 21.7441 99.8387 21.661 100.315 21.5001C100.885 21.3072 101.282 21.0515 101.575 20.8281C101.84 20.6265 101.707 20.7218 101.701 20.7254C101.655 20.7532 101.698 20.7176 101.932 20.6361L99.9579 14.9701ZM98.164 15.84C98.1439 15.8423 98.2259 15.8303 98.3759 15.8594C98.5358 15.8905 98.7086 15.9558 98.8692 16.0554C99.1523 16.2309 99.2427 16.4265 99.0887 16.1977C99.0407 16.1264 98.6321 15.4547 98.149 14.9595C97.5178 14.3124 96.6222 13.7513 95.417 13.6046L94.6919 19.5606C93.8935 19.4634 93.4497 18.5649 94.1108 19.5474C94.3371 19.8836 94.8378 20.6157 95.708 21.1551C96.6741 21.754 97.7602 21.9262 98.8509 21.8005L98.164 15.84ZM95.417 13.6046C93.2289 13.3382 90.4047 13.4428 87.7794 15.3964L91.3612 20.2099C92.258 19.5426 93.2889 19.3898 94.6919 19.5606L95.417 13.6046ZM87.7794 15.3964C86.9314 16.0274 86.443 16.6268 86.271 16.813C86.2017 16.8881 86.2152 16.8661 86.2597 16.8336C86.3035 16.8016 86.2989 16.816 86.1807 16.8653L88.4913 22.4025C88.9691 22.2032 89.4001 21.9698 89.7974 21.6797C90.1954 21.3891 90.4805 21.0986 90.679 20.8836C91.0428 20.4897 91.0756 20.4225 91.3612 20.2099L87.7794 15.3964ZM86.1807 16.8653C85.7514 17.0445 85.4316 17.0169 83.9907 16.9264C82.6345 16.8412 80.6795 16.7982 78.5147 18.0582L81.5329 23.2438C82.1327 22.8947 82.6151 22.8518 83.6145 22.9146C84.5292 22.972 86.4833 23.2405 88.4913 22.4025L86.1807 16.8653ZM78.5147 18.0582C77.6282 18.5742 77.0057 19.2862 76.6167 19.7736C76.4114 20.0308 76.2228 20.2891 76.0754 20.4913C75.9145 20.712 75.8027 20.8656 75.6951 21.0023C75.4327 21.336 75.4697 21.1996 75.7558 21.0542C75.9504 20.9554 76.2379 20.8618 76.585 20.8628C76.9274 20.8638 77.178 20.9564 77.3047 21.0199L74.6182 26.3848C75.8864 27.0199 77.2635 27.0181 78.4732 26.4036C79.436 25.9145 80.0783 25.1348 80.4111 24.7118C80.6011 24.4703 80.7843 24.2172 80.9236 24.0261C81.0764 23.8165 81.1933 23.6579 81.3062 23.5165C81.5536 23.2065 81.6188 23.1938 81.5329 23.2438L78.5147 18.0582ZM77.3047 21.0199C75.3482 20.0402 74.4111 19.3403 73.9172 18.7208C73.5351 18.2418 73.2516 17.6051 73.2738 16.224L67.2746 16.1275C67.2361 18.52 67.765 20.6295 69.2262 22.4618C70.5754 24.1537 72.5124 25.3303 74.6182 26.3848L77.3047 21.0199ZM73.2738 16.224C73.2705 16.4305 73.1759 16.5185 73.2641 16.3972C73.4002 16.2102 73.5971 16.0186 74.0692 15.5635C74.4185 15.2267 75.1234 14.5622 75.6022 13.7145C76.1856 12.6815 76.4694 11.3339 75.9391 9.86693L70.2965 11.9067C70.1349 11.4598 70.2525 10.9859 70.3778 10.7639C70.3986 10.7272 70.3537 10.8112 69.9047 11.2441C69.5784 11.5586 68.9285 12.158 68.4126 12.867C67.8488 13.6418 67.297 14.7309 67.2746 16.1275L73.2738 16.224ZM75.9391 9.86693C75.5281 8.72999 74.7671 7.86651 73.7417 7.36591C72.9356 6.97238 72.0732 6.88972 71.8978 6.8653C71.5125 6.81167 71.7499 6.80853 72.0403 6.97521C72.4991 7.2385 72.6902 7.62406 72.7285 7.74521L67.0074 9.5532C67.3561 10.6567 68.0282 11.5905 69.0538 12.1791C69.9112 12.6712 70.8015 12.7705 71.0706 12.808C71.5495 12.8747 71.3429 12.8716 71.1095 12.7577C70.6568 12.5367 70.3854 12.1528 70.2965 11.9067L75.9391 9.86693ZM72.7285 7.74521C72.8217 8.04015 72.763 8.21317 72.7887 8.08171C72.8275 7.88326 72.8765 7.76394 73.0347 7.22924C73.1389 6.87715 73.3829 6.06227 73.319 5.15714C73.2375 4.00227 72.6807 2.87511 71.5693 2.10982L68.1666 7.05168C67.9845 6.92629 67.7578 6.71265 67.5811 6.39338C67.4068 6.07855 67.3482 5.78256 67.3339 5.57975C67.3131 5.28523 67.3913 5.15494 67.2812 5.52693C67.2252 5.71629 67.0116 6.36054 66.9002 6.93062C66.7756 7.5677 66.679 8.51424 67.0074 9.5532L72.7285 7.74521ZM71.5693 2.10982C70.2496 1.2012 68.6766 0.717323 67.007 1.1717C65.5476 1.56886 64.5513 2.56047 63.9748 3.199C63.6605 3.54698 63.3664 3.91343 63.1264 4.2131C62.8682 4.53547 62.6632 4.79266 62.4539 5.03257C62.0166 5.53398 61.7898 5.68258 61.7032 5.72263L64.2207 11.1689C65.4742 10.5895 66.3746 9.66554 66.9756 8.97647C67.2855 8.62115 67.5775 8.25363 67.8096 7.9637C68.06 7.65108 68.2495 7.41765 68.4279 7.22009C68.8366 6.76752 68.8612 6.88532 68.5825 6.96115C68.0936 7.0942 67.8613 6.84148 68.1666 7.05168L71.5693 2.10982ZM61.7032 5.72263C60.9142 6.08732 60.4657 6.11318 59.7532 6.13356C58.8553 6.15925 57.4925 6.15518 55.7132 6.89764L58.0237 12.4349C58.6818 12.1603 59.0455 12.1563 59.9248 12.1311C60.9896 12.1006 62.3691 12.0248 64.2207 11.1689L61.7032 5.72263ZM55.7132 6.89764C54.7601 7.2953 53.8141 8.04021 53.3863 9.28016C53.0501 10.2547 53.2005 11.1924 53.2179 11.3436C53.2645 11.7492 53.2019 11.4648 53.2791 11.1247C53.4098 10.549 53.7716 10.154 54.0356 9.98546L57.2639 15.0429C57.7009 14.7639 58.1191 14.4004 58.4615 13.9291C58.8096 13.45 59.0193 12.9421 59.1304 12.4525C59.237 11.9826 59.2438 11.5691 59.2324 11.2784C59.2218 11.0079 59.1887 10.7461 59.1787 10.6592C59.1626 10.5188 59.1694 10.5476 59.1695 10.615C59.1696 10.6994 59.1622 10.9358 59.0582 11.237C58.9448 11.5657 58.7531 11.866 58.5084 12.101C58.2829 12.3175 58.0847 12.4095 58.0237 12.4349L55.7132 6.89764ZM54.0356 9.98546C54.7933 9.50176 55.3816 9.91242 54.9392 9.71009C54.5281 9.52211 54.0301 9.17298 53.1814 8.58113C52.5292 8.12626 51.4289 7.34558 50.284 6.97091C49.6586 6.76624 48.7592 6.58887 47.7563 6.82882C46.6715 7.08836 45.8363 7.74584 45.2685 8.55901L50.1878 11.9941C50.0368 12.2104 49.691 12.5353 49.1524 12.6641C48.9221 12.7192 48.7313 12.719 48.6069 12.7074C48.4871 12.6963 48.42 12.674 48.4179 12.6733C48.4149 12.6724 48.4487 12.6835 48.5251 12.721C48.6003 12.758 48.6984 12.8114 48.8234 12.8867C49.083 13.0429 49.3769 13.2429 49.7493 13.5026C50.3897 13.9492 51.4179 14.6974 52.4439 15.1666C53.4385 15.6214 55.3744 16.249 57.2639 15.0429L54.0356 9.98546ZM45.2685 8.55901C44.0021 10.3726 44.2087 12.2435 44.7281 13.6317C45.1468 14.7507 45.9643 15.9995 46.3554 16.6701L51.5383 13.6472C51.3898 13.3927 51.241 13.1459 51.1097 12.9279C50.9741 12.7026 50.857 12.5076 50.7496 12.3214C50.5281 11.9373 50.4098 11.6952 50.3476 11.5289C50.2885 11.3712 50.3287 11.4065 50.3207 11.5632C50.3104 11.7627 50.236 11.9252 50.1878 11.9941L45.2685 8.55901ZM46.3554 16.6701C46.9076 17.6168 47.4657 18.2644 47.6933 18.5603C47.8752 18.7968 47.9934 18.9665 48.1459 19.4029L53.8101 17.4239C53.402 16.2556 52.9299 15.5271 52.449 14.902C52.0139 14.3363 51.8367 14.1589 51.5383 13.6472L46.3554 16.6701ZM41.0747 23.961C40.2072 24.0055 39.707 23.8432 39.3885 23.6854C39.0312 23.5083 38.716 23.2464 38.2734 22.8031L34.0276 27.0426C34.6006 27.6165 35.4724 28.441 36.7241 29.0614C38.0148 29.701 39.5457 30.0473 41.3821 29.9531L41.0747 23.961ZM38.2734 22.8031C38.48 23.0101 38.4568 23.1324 38.3601 22.8022C38.2533 22.4372 38.2149 22.1535 38.0647 21.4612C37.9585 20.9713 37.7483 20.0254 37.2204 19.1901C36.5459 18.1228 35.3552 17.2442 33.7131 17.2442V23.2442C33.457 23.2442 33.1043 23.1781 32.7514 22.9671C32.4157 22.7665 32.23 22.5246 32.1484 22.3956C32.0469 22.2349 32.0888 22.2155 32.2011 22.7332C32.2695 23.0485 32.4161 23.8534 32.6016 24.4872C32.7972 25.1558 33.1735 26.1872 34.0276 27.0426L38.2734 22.8031ZM33.7131 17.2442C32.0591 17.2442 30.5943 17.5184 29.2812 17.8287C27.8252 18.1727 26.9225 18.4549 25.5906 18.7302L26.8049 24.606C28.1551 24.327 29.6898 23.8973 30.6608 23.6679C31.7747 23.4047 32.7265 23.2442 33.7131 23.2442V17.2442ZM25.5906 18.7302C24.5185 18.9518 23.8509 18.9323 22.594 19.0818C22.0913 19.1416 21.3722 19.2481 20.6741 19.5306C19.9099 19.8398 18.9937 20.4343 18.4373 21.5454L23.8023 24.2319C23.5173 24.8011 23.0669 25.0349 22.9248 25.0924C22.8488 25.1232 22.9083 25.0867 23.3026 25.0398C23.7248 24.9896 24.063 24.971 24.7431 24.9048C25.3382 24.8469 26.0457 24.763 26.8049 24.606L25.5906 18.7302ZM18.4373 21.5454C17.8039 22.8104 17.4413 24.5295 17.2159 25.3326L22.9926 26.9542C23.4239 25.4175 23.5112 24.8132 23.8023 24.2319L18.4373 21.5454ZM17.2159 25.3326C16.6745 27.2611 16.7074 28.8512 16.6981 30.1909L22.6979 30.2327C22.7082 28.7571 22.7047 27.9797 22.9926 26.9542L17.2159 25.3326ZM16.6981 30.1909C16.6809 32.6485 17.7646 34.1773 18.5686 35.1816C19.3825 36.1982 19.524 36.3518 19.61 36.7477L25.4733 35.4744C25.0214 33.3935 23.7311 32.0296 23.2526 31.4319C22.7642 30.8218 22.6951 30.6393 22.6979 30.2327L16.6981 30.1909ZM19.61 36.7477C19.7766 37.5153 19.7367 38.6665 19.5774 39.8278C19.5032 40.3679 19.4135 40.8411 19.3426 41.1767C19.3074 41.3434 19.2775 41.4734 19.2575 41.5575C19.2475 41.5994 19.24 41.6298 19.2357 41.6473C19.2335 41.656 19.2321 41.6616 19.2315 41.6637C19.2312 41.6648 19.2312 41.6651 19.2313 41.6645C19.2314 41.6642 19.2315 41.6636 19.2317 41.6629C19.2318 41.6625 19.2319 41.6621 19.2321 41.6616C19.2321 41.6614 19.2322 41.661 19.2323 41.6609C19.2324 41.6604 19.2325 41.66 22.1354 42.4171C25.0383 43.1741 25.0384 43.1737 25.0385 43.1732C25.0386 43.173 25.0387 43.1725 25.0388 43.1722C25.039 43.1715 25.0392 43.1707 25.0394 43.1699C25.0398 43.1682 25.0403 43.1664 25.0409 43.1643C25.0419 43.1601 25.0433 43.1549 25.0448 43.1489C25.0479 43.1369 25.0518 43.1212 25.0566 43.1021C25.0661 43.064 25.0789 43.012 25.0943 42.9473C25.1251 42.8181 25.1665 42.6376 25.2133 42.4155C25.3066 41.9736 25.4239 41.356 25.5216 40.6435C25.7061 39.2995 25.8692 37.2977 25.4733 35.4744L19.61 36.7477ZM48.1459 19.4029C48.0977 19.265 48.0282 18.835 48.2517 18.3686C48.4066 18.0452 48.5786 17.9861 48.3269 18.1675C48.0773 18.3474 47.7614 18.5271 47.1722 18.8722C46.6484 19.179 45.9692 19.5845 45.2969 20.0984L48.9407 24.8652C49.2984 24.5918 49.7033 24.3431 50.2046 24.0495C50.6404 23.7942 51.2906 23.4274 51.835 23.035C52.3772 22.6442 53.1711 21.9872 53.6627 20.9611C54.2229 19.7918 54.205 18.554 53.8101 17.4239L48.1459 19.4029ZM45.2969 20.0984C43.5818 21.4094 42.4578 22.9539 41.9937 23.4694C41.7219 23.7713 41.6082 23.8428 41.5634 23.8673C41.5462 23.8767 41.4363 23.9425 41.0747 23.961L41.3821 29.9531C42.5073 29.8954 43.5219 29.6352 44.444 29.1306C45.3385 28.641 45.9787 28.0105 46.4527 27.4841C47.48 26.3431 47.8144 25.7262 48.9407 24.8652L45.2969 20.0984Z" fill="#0A7FF6"/>
<path d="M106.248 184.561L103.746 186.217C104.313 187.074 105.279 187.58 106.307 187.56C107.334 187.54 108.279 186.996 108.812 186.118L106.248 184.561ZM173.662 84.9185C174.571 83.5332 174.185 81.6734 172.799 80.7644C171.414 79.8555 169.554 80.2417 168.645 81.627L173.662 84.9185ZM80.5441 59.3501C80.1852 57.7326 78.5829 56.7123 76.9654 57.0713C75.3479 57.4302 74.3277 59.0324 74.6866 60.6499L80.5441 59.3501ZM91.9805 124.732L89.0518 125.382L89.056 125.4L89.0604 125.419L91.9805 124.732ZM23.5016 75.7986C22.587 74.417 20.7256 74.0384 19.3441 74.953C17.9625 75.8675 17.5839 77.7289 18.4984 79.1105L23.5016 75.7986ZM108.812 186.118C118.379 170.358 134.582 145.071 148.413 123.695C155.325 113.014 161.637 103.319 166.222 96.2945C168.514 92.7824 170.375 89.938 171.662 87.9718C172.305 86.9887 172.805 86.2252 173.145 85.7075C173.314 85.4487 173.444 85.2513 173.531 85.1187C173.574 85.0524 173.607 85.0023 173.629 84.9688C173.64 84.952 173.648 84.9394 173.654 84.931C173.656 84.9268 173.659 84.9237 173.66 84.9216C173.661 84.9205 173.661 84.9198 173.661 84.9192C173.662 84.9187 173.662 84.9185 171.154 83.2727C168.645 81.627 168.645 81.6273 168.645 81.6278C168.644 81.6283 168.644 81.6292 168.643 81.6302C168.642 81.6324 168.64 81.6356 168.637 81.6398C168.631 81.6483 168.623 81.6611 168.612 81.6779C168.59 81.7116 168.557 81.762 168.513 81.8285C168.426 81.9615 168.296 82.1593 168.126 82.4186C167.786 82.9371 167.286 83.7016 166.641 84.6857C165.353 86.6539 163.491 89.5005 161.198 93.0151C156.61 100.044 150.293 109.746 143.376 120.436C129.55 141.804 113.301 167.161 103.683 183.004L108.812 186.118ZM109.164 183.855C105.89 170.334 102.325 155.381 99.577 143.808C98.2032 138.021 97.0341 133.08 96.2084 129.585C95.7955 127.838 95.4686 126.453 95.2448 125.504C95.133 125.03 95.0469 124.665 94.9888 124.418C94.9598 124.295 94.9377 124.201 94.9229 124.139C94.9156 124.107 94.91 124.084 94.9062 124.068C94.9044 124.06 94.903 124.054 94.9021 124.05C94.9016 124.048 94.9012 124.046 94.901 124.045C94.9009 124.045 94.9008 124.045 94.9007 124.044C94.9007 124.044 94.9007 124.044 91.9805 124.732C89.0604 125.419 89.0604 125.419 89.0605 125.42C89.0606 125.42 89.0606 125.42 89.0608 125.421C89.061 125.422 89.0614 125.423 89.0618 125.425C89.0628 125.429 89.0642 125.435 89.066 125.443C89.0698 125.459 89.0754 125.483 89.0828 125.514C89.0976 125.577 89.1197 125.671 89.1488 125.794C89.207 126.041 89.2931 126.407 89.4051 126.881C89.629 127.831 89.9561 129.217 90.3692 130.965C91.1952 134.461 92.3649 139.405 93.7392 145.193C96.4878 156.771 100.056 171.733 103.332 185.267L109.164 183.855ZM94.9093 124.082L80.5441 59.3501L74.6866 60.6499L89.0518 125.382L94.9093 124.082ZM18.4984 79.1105C20.3141 81.8534 25.4974 88.2837 32.3425 96.6085C39.2347 104.991 48.0171 115.539 57.0939 126.548C75.3312 148.669 94.8183 172.73 103.746 186.217L108.749 182.905C99.6084 169.096 79.8858 144.761 61.7234 122.732C52.6005 111.666 43.8856 101.2 36.977 92.7978C30.0212 84.3382 25.1 78.2133 23.5016 75.7986L18.4984 79.1105Z" fill="url(#paint0_linear_309_2)"/>
<defs>
<linearGradient id="paint0_linear_309_2" x1="96.0768" y1="60" x2="96.0768" y2="184.561" gradientUnits="userSpaceOnUse">
<stop stop-color="#F6CE1F" stop-opacity="0"/>
<stop offset="0.0001" stop-color="white" stop-opacity="0"/>
<stop offset="0.453125" stop-color="#F6CE1F"/>
</linearGradient>
</defs>
</svg>
