<svg width="520" height="521" viewBox="0 0 520 521" fill="none" xmlns="http://www.w3.org/2000/svg">
<path d="M270.061 509.406L266.125 508.691L266.061 509.045V509.406H270.061ZM270.061 517H266.061C266.061 518.629 267.049 520.096 268.559 520.707C270.069 521.319 271.8 520.954 272.933 519.784L270.061 517ZM287.935 498.557L290.808 501.34L290.856 501.29L290.903 501.238L287.935 498.557ZM302.56 480.113L305.949 482.237L302.56 480.113ZM312.309 463.297L308.888 461.225L312.309 463.297ZM325.851 442.684L329.81 443.248L325.851 442.684ZM325.851 417.188L329.544 418.725L325.851 417.188ZM343.183 397.66L345.678 400.786L343.183 397.66ZM231.604 457.872L229.103 454.751L231.604 457.872ZM267.353 424.783L263.369 425.144L267.353 424.783ZM255.978 410.679L258.381 407.48L258.343 407.452L258.306 407.425L255.978 410.679ZM249.479 389.523L248.653 385.609L248.096 385.726L247.594 385.995L249.479 389.523ZM239.729 387.895L235.869 388.946L239.729 387.895ZM222.396 367.824L221.245 363.994L222.396 367.824ZM211.563 366.197L207.86 364.685L207.563 365.412V366.197H211.563ZM211.563 348.296L207.931 349.97L211.563 348.296ZM182.314 289.711L186.29 289.27L182.314 289.711ZM114.609 230.041L118.207 228.293L114.609 230.041ZM112.442 207.8L116.021 206.013L112.442 207.8ZM92.4013 211.597L90.3413 208.168L92.4013 211.597ZM45.2781 225.159L43.7004 228.834L45.2781 225.159ZM5.19628 168.201L4.41069 164.278L5.19628 168.201ZM51.7778 132.398L48.4993 130.107H48.4993L51.7778 132.398ZM55.0277 107.446L51.1572 106.436L51.1061 106.632L51.0751 106.832L55.0277 107.446ZM401.681 383.556L401.13 379.594L401.681 383.556ZM448.263 293.508L444.268 293.305L444.261 293.444L444.263 293.583L448.263 293.508ZM428.763 353.721L432.275 355.637L428.763 353.721ZM487.803 222.989L490.567 225.88L487.803 222.989ZM515.968 183.932L511.982 184.263L515.968 183.932ZM504.594 154.639L507.618 152.022L504.594 154.639ZM480.761 142.705L478.5 146.004L480.761 142.705ZM426.055 119.38L427.233 115.557L426.055 119.38ZM390.848 112.328L393.679 109.501L390.848 112.328ZM352.391 84.6625L352.201 88.658L352.391 84.6625ZM337.767 89.0021L337.825 85.0025L337.767 89.0021ZM304.726 41.8084L308.698 41.3325L304.726 41.8084ZM279.269 42.8933L276.439 40.067L279.269 42.8933ZM265.186 41.8084L266.502 45.5857L265.186 41.8084ZM258.687 44.5206L259.144 48.4943L258.687 44.5206ZM249.479 38.5536L249.962 34.5829L249.479 38.5536ZM234.854 41.8084L237.242 45.0174L234.854 41.8084ZM228.896 46.6905L230.436 50.382L228.896 46.6905ZM209.397 49.4027L207.385 45.9457L209.397 49.4027ZM183.398 37.4687L187.397 37.5331L183.398 37.4687ZM190.981 23.3649L187.219 24.7247L190.981 23.3649ZM182.314 17.3979L186.129 16.1925L182.314 17.3979ZM182.314 6.54867L180.046 9.84325L182.314 6.54867ZM163.899 16.8554L165.577 20.4863L163.899 16.8554ZM147.649 20.1101L146.109 16.4185L147.649 20.1101ZM144.399 27.7045L142.247 24.3329L144.399 27.7045ZM123.275 21.7375L126.555 24.0275L123.275 21.7375ZM126.525 34.7564L123.07 36.7717L126.525 34.7564ZM131.941 43.4357L128.165 44.7551L131.941 43.4357ZM105.942 66.2189L105.738 62.2241L105.942 66.2189ZM92.4013 60.7943L95.2318 57.968L92.4013 60.7943ZM65.8606 52.115L66.6702 56.0322L65.8606 52.115ZM52.3195 55.3698L55.8961 57.1607L52.3195 55.3698ZM49.6112 64.049L53.4624 65.1301L49.6112 64.049ZM48.528 74.8982L44.5281 74.8703L48.528 74.8982ZM56.111 90.6294L60.0199 89.7805L56.111 90.6294ZM121.65 54.2848L119.221 51.1069L121.65 54.2848ZM266.061 509.406V517H274.061V509.406H266.061ZM272.933 519.784L290.808 501.34L285.063 495.773L267.189 514.216L272.933 519.784ZM287.935 498.557C290.903 501.238 290.904 501.238 290.904 501.238C290.904 501.238 290.904 501.237 290.904 501.237C290.905 501.236 290.905 501.236 290.906 501.235C290.908 501.233 290.91 501.231 290.913 501.228C290.918 501.222 290.926 501.213 290.937 501.201C290.957 501.178 290.987 501.145 291.026 501.102C291.103 501.016 291.216 500.889 291.361 500.727C291.651 500.402 292.067 499.932 292.581 499.346C293.607 498.174 295.024 496.534 296.589 494.659C299.68 490.955 303.487 486.166 305.949 482.237L299.17 477.989C297.018 481.423 293.514 485.857 290.446 489.533C288.932 491.348 287.558 492.939 286.563 494.075C286.066 494.642 285.664 495.095 285.388 495.405C285.25 495.56 285.143 495.679 285.072 495.759C285.036 495.798 285.009 495.828 284.992 495.848C284.983 495.857 284.977 495.865 284.973 495.869C284.97 495.871 284.969 495.873 284.968 495.874C284.968 495.875 284.967 495.875 284.967 495.875C284.967 495.875 284.967 495.875 284.967 495.875C284.967 495.875 284.967 495.875 287.935 498.557ZM305.949 482.237C307.845 479.211 309.282 476.652 310.742 474.036C312.202 471.42 313.688 468.742 315.731 465.369L308.888 461.225C306.761 464.736 305.21 467.533 303.756 470.137C302.303 472.741 300.95 475.148 299.17 477.989L305.949 482.237ZM315.731 465.369C317.954 461.698 320.838 458.41 323.693 454.78C326.28 451.49 329.203 447.507 329.81 443.248L321.891 442.119C321.631 443.936 320.175 446.311 317.405 449.835C314.901 453.018 311.448 456.998 308.888 461.225L315.731 465.369ZM329.81 443.248C330.442 438.824 329.659 433.386 329.22 429.12C328.986 426.838 328.823 424.772 328.86 422.931C328.897 421.071 329.138 419.7 329.544 418.725L322.157 415.652C321.209 417.931 320.908 420.425 320.861 422.77C320.814 425.132 321.023 427.609 321.262 429.938C321.772 434.894 322.343 438.949 321.891 442.119L329.81 443.248ZM329.544 418.725C330.368 416.743 332.355 413.848 335.326 410.519C338.233 407.261 341.859 403.834 345.678 400.786L340.688 394.533C336.54 397.844 332.582 401.578 329.357 405.193C326.195 408.736 323.499 412.426 322.157 415.652L329.544 418.725ZM273.997 510.12C274.644 506.553 273.26 500.01 265.781 496.553L262.425 503.815C266.212 505.565 266.2 508.28 266.125 508.691L273.997 510.12ZM265.781 496.553C263.417 495.46 259.848 493.003 256.188 490.152C252.602 487.359 249.241 484.436 247.368 482.646L241.84 488.429C243.939 490.436 247.511 493.534 251.273 496.464C254.961 499.337 259.155 502.304 262.425 503.815L265.781 496.553ZM247.368 482.646C244.176 479.595 240.654 479.535 238.511 479.644C238.255 479.657 238.01 479.673 237.801 479.687C237.583 479.701 237.41 479.712 237.248 479.72C237.088 479.728 236.972 479.731 236.883 479.731C236.794 479.731 236.758 479.727 236.759 479.728C236.848 479.737 237.835 479.923 238.377 480.931L231.331 484.719C232.505 486.903 234.531 487.541 235.945 487.686C237.014 487.795 238.423 487.659 238.916 487.634C240.338 487.562 241.059 487.683 241.84 488.429L247.368 482.646ZM238.377 480.931C237.555 479.401 236.675 478.29 235.836 477.277C234.998 476.265 234.214 475.364 233.236 473.993L226.723 478.638C227.912 480.305 228.933 481.484 229.675 482.379C230.415 483.274 230.89 483.899 231.331 484.719L238.377 480.931ZM233.236 473.993C231.856 472.059 229.712 471.295 228.385 470.926C226.969 470.532 225.338 470.31 224.33 470.144C222.97 469.921 222.689 469.788 222.778 469.84C222.935 469.931 223.577 470.354 223.891 471.3C224.208 472.258 223.927 472.964 223.878 473.073L216.581 469.794C216.126 470.807 215.778 472.249 216.296 473.814C216.81 475.367 217.922 476.269 218.748 476.75C220.174 477.582 222.025 477.873 223.035 478.039C224.397 478.262 225.373 478.392 226.242 478.634C227.199 478.9 227.019 479.054 226.723 478.638L233.236 473.993ZM223.878 473.073C224.461 471.776 225.936 469.592 227.967 467.168C229.952 464.8 232.203 462.518 234.105 460.994L229.103 454.751C226.673 456.698 224.049 459.389 221.836 462.029C219.669 464.614 217.623 467.475 216.581 469.794L223.878 473.073ZM234.105 460.994C237.185 458.526 238.899 456.182 240.923 453.848C242.988 451.466 245.916 448.388 251.946 443.662L247.011 437.366C240.583 442.404 237.282 445.835 234.879 448.607C232.434 451.426 231.44 452.879 229.103 454.751L234.105 460.994ZM251.946 443.662C258.018 438.903 262.175 436.754 265.494 434.562C267.041 433.541 268.697 432.32 269.844 430.64C271.133 428.753 271.541 426.669 271.336 424.421L263.369 425.144C263.436 425.879 263.302 426.034 263.237 426.129C263.03 426.433 262.519 426.941 261.087 427.886C258.448 429.628 253.397 432.36 247.011 437.366L251.946 443.662ZM271.336 424.421C271.15 422.37 270.277 420.458 269.326 418.881C268.346 417.256 267.1 415.688 265.826 414.277C263.283 411.459 260.346 408.957 258.381 407.48L253.576 413.877C255.221 415.113 257.756 417.276 259.888 419.638C260.953 420.817 261.846 421.968 262.475 423.012C263.133 424.103 263.339 424.808 263.369 425.144L271.336 424.421ZM258.306 407.425C258.953 407.889 258.5 407.989 258.345 406.505C258.204 405.163 258.363 402.762 259.732 399.041L252.224 396.279C250.56 400.803 250.087 404.46 250.389 407.339C250.676 410.078 251.74 412.565 253.651 413.932L258.306 407.425ZM259.732 399.041C260.626 396.611 261.024 394.29 260.671 392.156C260.295 389.879 259.106 388.103 257.434 386.943C255.879 385.863 254.134 385.464 252.703 385.344C251.245 385.221 249.825 385.362 248.653 385.609L250.304 393.437C250.847 393.322 251.476 393.269 252.032 393.316C252.302 393.338 252.512 393.381 252.662 393.428C252.736 393.45 252.788 393.471 252.823 393.488C252.857 393.504 252.871 393.514 252.871 393.514C252.774 393.447 252.756 393.326 252.778 393.46C252.824 393.738 252.847 394.586 252.224 396.279L259.732 399.041ZM247.594 385.995C247.13 386.243 246.501 386.518 245.822 386.726C245.131 386.938 244.521 387.04 244.057 387.042C243.587 387.044 243.495 386.946 243.579 386.999C243.744 387.106 243.684 387.196 243.588 386.844L235.869 388.946C236.424 390.981 237.569 392.649 239.261 393.734C240.872 394.767 242.628 395.048 244.094 395.042C246.929 395.028 249.701 393.939 251.363 393.051L247.594 385.995ZM243.588 386.844C243.304 385.799 243.113 384.106 242.986 381.841C242.859 379.561 242.819 377.313 242.709 374.836C242.608 372.539 242.449 370.11 242.046 368.166C241.848 367.211 241.537 366.083 240.97 365.077C240.408 364.08 239.234 362.602 237.138 362.252L235.82 370.143C234.536 369.928 234.022 369.043 234 369.004C233.973 368.955 234.08 369.15 234.213 369.789C234.47 371.032 234.615 372.874 234.717 375.188C234.811 377.322 234.872 380.024 234.999 382.287C235.126 384.565 235.342 387.009 235.869 388.946L243.588 386.844ZM237.138 362.252C236.341 362.119 236.254 362.053 235.227 361.845C234.36 361.669 233.392 361.541 232.127 361.59C229.806 361.679 226.663 362.366 221.245 363.994L223.547 371.655C228.963 370.028 231.235 369.63 232.435 369.584C232.931 369.565 233.25 369.607 233.635 369.685C233.861 369.731 234.992 370.004 235.82 370.143L237.138 362.252ZM221.245 363.994C217.215 365.204 215.451 364.951 214.968 364.794C214.757 364.725 215.563 365.045 215.563 366.197H207.563C207.563 368.976 209.453 371.412 212.492 372.401C215.259 373.302 218.911 373.048 223.547 371.655L221.245 363.994ZM215.266 367.71C216.293 365.198 217.01 361.653 217.145 358.019C217.28 354.395 216.854 350.22 215.196 346.622L207.931 349.97C208.872 352.014 209.259 354.801 209.15 357.722C209.042 360.633 208.459 363.219 207.86 364.685L215.266 367.71ZM215.196 346.622C214.302 344.681 213.362 343.062 212.658 341.806C211.907 340.467 211.482 339.633 211.25 338.894C211.056 338.276 211.012 337.759 211.142 337.112C211.29 336.383 211.703 335.292 212.763 333.641L206.031 329.319C204.653 331.465 203.712 333.494 203.301 335.527C202.873 337.644 203.066 339.534 203.617 341.289C204.13 342.923 204.957 344.429 205.679 345.717C206.447 347.089 207.2 348.385 207.931 349.97L215.196 346.622ZM212.763 333.641C215.169 329.892 216.77 327.23 217.689 324.718C218.68 322.013 218.813 319.683 218.813 316.834H210.813C210.813 319.409 210.676 320.605 210.177 321.968C209.607 323.525 208.499 325.474 206.031 329.319L212.763 333.641ZM218.813 316.834C218.813 312.921 216.922 309.257 215.164 306.616C213.335 303.869 211.238 301.625 210.061 300.446L204.4 306.099C205.389 307.09 207.083 308.914 208.504 311.049C209.997 313.291 210.813 315.322 210.813 316.834H218.813ZM210.061 300.446C210.59 300.976 210.653 301.474 210.635 301.379C210.622 301.314 210.596 301.077 210.611 300.568C210.625 300.077 210.671 299.516 210.73 298.815C210.786 298.156 210.856 297.367 210.888 296.592C210.944 295.261 210.973 292.956 209.877 291.01C209.24 289.88 208.237 288.884 206.828 288.314C205.496 287.775 204.117 287.743 202.872 287.921L204.005 295.84C204.34 295.793 204.196 295.879 203.826 295.729C203.379 295.548 203.062 295.212 202.908 294.938C202.776 294.705 202.952 294.897 202.895 296.256C202.871 296.825 202.819 297.429 202.759 298.137C202.702 298.803 202.636 299.583 202.614 300.332C202.593 301.063 202.604 301.966 202.774 302.866C202.939 303.737 203.329 305.026 204.4 306.099L210.061 300.446ZM202.872 287.921C200.126 288.314 195.238 288.34 190.939 287.973C188.799 287.79 187.001 287.526 185.805 287.225C185.518 287.152 185.296 287.085 185.133 287.028C184.963 286.969 184.904 286.936 184.922 286.946C184.934 286.952 184.986 286.981 185.063 287.036C185.138 287.089 185.265 287.188 185.41 287.339C185.694 287.635 186.18 288.28 186.29 289.27L178.339 290.152C178.609 292.583 180.59 293.701 181.144 293.998C182.001 294.457 182.98 294.763 183.853 294.983C185.653 295.436 187.937 295.746 190.258 295.944C194.88 296.339 200.432 296.352 204.005 295.84L202.872 287.921ZM186.29 289.27C185.18 279.267 183.231 270.574 181.028 264.025C179.929 260.758 178.738 257.939 177.508 255.728C176.377 253.695 174.885 251.558 172.927 250.437L168.953 257.38C168.89 257.345 169.497 257.784 170.516 259.616C171.436 261.27 172.446 263.605 173.445 266.576C175.44 272.504 177.282 280.627 178.339 290.152L186.29 289.27ZM172.927 250.437C170.929 249.294 168.994 249.287 167.468 249.553C166.764 249.676 166.112 249.863 165.629 250.005C165.084 250.166 164.746 250.271 164.38 250.36C163.731 250.517 163.458 250.494 163.254 250.437C163.045 250.379 162.442 250.15 161.444 249.05L155.52 254.427C157.231 256.311 159.065 257.575 161.107 258.143C163.154 258.714 164.946 258.453 166.26 258.136C166.876 257.987 167.494 257.796 167.891 257.679C168.35 257.543 168.625 257.472 168.843 257.434C169.042 257.399 169.091 257.412 169.056 257.408C168.999 257.401 168.951 257.379 168.953 257.38L172.927 250.437ZM118.207 228.293C116.443 224.661 116.381 221.051 116.652 217.397C116.775 215.745 117.018 213.598 117.065 211.926C117.114 210.195 117.019 208.012 116.021 206.013L108.863 209.587C108.949 209.758 109.108 210.29 109.068 211.7C109.027 213.168 108.839 214.587 108.674 216.804C108.371 220.887 108.309 226.227 111.011 231.788L118.207 228.293ZM116.021 206.013C114.734 203.436 112.292 202.399 110.21 202.077C108.164 201.76 105.92 202.013 103.806 202.489C99.526 203.453 94.6151 205.601 90.3413 208.168L94.4612 215.026C98.215 212.771 102.327 211.022 105.563 210.294C107.206 209.924 108.341 209.883 108.987 209.982C109.595 210.077 109.153 210.167 108.863 209.587L116.021 206.013ZM90.3413 208.168C85.8359 210.875 82.2586 214.151 79.6049 216.371C78.2112 217.537 77.133 218.367 76.1975 218.911C75.2783 219.444 74.7784 219.531 74.527 219.531V227.531C76.7129 227.531 78.6258 226.751 80.2148 225.829C81.7876 224.915 83.3131 223.699 84.7384 222.507C87.7229 220.01 90.6453 217.318 94.4612 215.026L90.3413 208.168ZM161.444 249.05C158.15 245.422 154.763 243.725 151.155 242.478C149.46 241.892 147.586 241.365 145.814 240.83C143.981 240.275 142.052 239.654 139.928 238.804L136.955 246.231C139.387 247.205 141.565 247.902 143.498 248.487C145.492 249.09 147.044 249.522 148.542 250.039C151.321 251 153.398 252.089 155.52 254.427L161.444 249.05ZM139.928 238.804C137.493 237.829 134.954 237.018 132.596 236.268C130.184 235.5 127.97 234.798 125.941 233.994C121.788 232.35 119.336 230.618 118.207 228.293L111.011 231.788C113.512 236.937 118.418 239.62 122.995 241.432C125.331 242.357 127.825 243.145 130.169 243.891C132.567 244.654 134.832 245.381 136.955 246.231L139.928 238.804ZM74.527 219.531C72.962 219.531 70.5869 219.85 68.1887 220.192C65.6414 220.555 62.7822 220.991 59.8603 221.351C56.9394 221.711 54.101 221.975 51.6759 222.003C49.1061 222.033 47.5503 221.781 46.8558 221.483L43.7004 228.834C46.039 229.838 49.0466 230.034 51.7681 230.003C54.6341 229.969 57.8148 229.664 60.8384 229.291C63.8612 228.919 66.872 228.46 69.318 228.112C71.9131 227.742 73.6545 227.531 74.527 227.531V219.531ZM46.8558 221.483C46.7951 221.457 46.9414 221.537 47.0134 221.696C47.0326 221.739 46.9339 221.537 46.9821 220.885C47.0847 219.498 47.7049 217.594 48.6016 215.28C48.9949 214.265 49.5048 213.008 49.8785 212.016C50.2602 211.002 50.6644 209.846 50.8772 208.774C50.9844 208.234 51.0802 207.541 51.0343 206.796C50.9891 206.062 50.7861 204.959 49.9962 203.939C48.1604 201.568 45.3704 202.026 44.3066 202.292L46.2496 210.053C46.8107 209.912 45.0024 210.557 43.6701 208.836C43.1321 208.141 43.0613 207.48 43.0494 207.287C43.0369 207.083 43.067 207.031 43.0304 207.216C42.9554 207.593 42.7588 208.221 42.3914 209.197C42.0161 210.194 41.629 211.133 41.142 212.389C40.2784 214.618 39.206 217.563 39.0039 220.295C38.8998 221.703 38.9957 223.378 39.7216 224.987C40.5003 226.712 41.8653 228.047 43.7004 228.834L46.8558 221.483ZM44.3066 202.292C42.0328 202.862 40.0304 203.996 38.3768 205.1C36.7944 206.157 35.0951 207.501 33.9089 208.371C32.5372 209.376 31.6112 209.938 30.9201 210.182C30.619 210.288 30.4824 210.289 30.4631 210.288C30.4549 210.288 30.4597 210.287 30.4686 210.29C30.4776 210.292 30.4667 210.291 30.4318 210.272L26.5423 217.262C29.0211 218.641 31.5228 218.454 33.5862 217.725C35.4849 217.054 37.2332 215.853 38.6375 214.824C40.2273 213.659 41.4054 212.698 42.819 211.754C44.1614 210.858 45.2735 210.297 46.2496 210.053L44.3066 202.292ZM30.4318 210.272C29.0071 209.479 28.2278 208.181 26.7672 206.068C26.1937 205.238 25.2145 203.838 23.7928 202.925C22.991 202.41 22.0035 202.013 20.8472 201.93C19.7042 201.849 18.6413 202.093 17.7014 202.497L20.8567 209.848C20.8647 209.845 20.6481 209.937 20.2795 209.91C19.8976 209.883 19.6125 209.748 19.4709 209.657C19.3695 209.592 19.5412 209.684 20.1865 210.617C21.1633 212.03 23.0922 215.343 26.5423 217.262L30.4318 210.272ZM17.7014 202.497C16.998 202.799 16.2951 203.013 15.6654 203.132C15.0179 203.255 14.562 203.256 14.3131 203.223C14.0401 203.188 14.2696 203.152 14.6127 203.47C15.0597 203.886 15.1544 204.387 15.1544 204.545H7.15438C7.15438 206.33 7.7907 208.053 9.16872 209.332C10.4427 210.516 11.9924 210.988 13.2768 211.156C15.7928 211.485 18.5752 210.828 20.8567 209.848L17.7014 202.497ZM15.1544 204.545C15.1544 203.678 14.9611 202.837 14.7945 202.226C14.6119 201.556 14.3678 200.838 14.1078 200.126C13.5994 198.733 12.8923 197 12.2387 195.33C10.8508 191.785 9.54703 188.121 9.16549 185.064L1.22708 186.055C1.74829 190.23 3.42355 194.758 4.78907 198.246C5.51206 200.093 6.1253 201.588 6.59291 202.869C6.82099 203.494 6.97892 203.974 7.07625 204.331C7.18964 204.746 7.15438 204.762 7.15438 204.545H15.1544ZM9.16549 185.064C8.70654 181.387 8.19 177.334 8.04093 174.144C7.96497 172.518 7.99991 171.372 8.10571 170.707C8.16158 170.355 8.19704 170.412 8.06661 170.657C7.92602 170.92 7.32415 171.854 5.98187 172.123L4.41069 164.278C2.52676 164.656 1.49045 165.987 1.00781 166.892C0.535321 167.778 0.321117 168.72 0.204896 169.451C-0.0334687 170.951 -0.0323815 172.761 0.0496449 174.517C0.21654 178.089 0.783288 182.499 1.22708 186.055L9.16549 185.064ZM5.98187 172.123C6.82056 171.955 10.3246 171.585 13.2372 169.728C16.6167 167.573 18.9459 163.783 18.9459 157.894H10.9459C10.9459 161.369 9.75446 162.461 8.93612 162.983C7.65103 163.802 6.28023 163.904 4.41069 164.278L5.98187 172.123ZM18.9459 157.894C18.9459 153.119 18.9642 150.061 19.4101 147.828C19.7956 145.898 20.3977 145.097 21.4014 144.468L17.1568 137.687C13.8273 139.771 12.2628 142.767 11.565 146.261C10.9277 149.453 10.9459 153.447 10.9459 157.894H18.9459ZM21.4014 144.468C21.3425 144.505 21.6228 144.344 22.595 144.124C23.472 143.926 24.6072 143.743 25.9958 143.561C27.3761 143.379 28.9081 143.209 30.5782 143.022C32.2314 142.837 34.0016 142.637 35.7857 142.399C39.3194 141.928 43.1015 141.287 46.3933 140.235C49.5437 139.229 53.011 137.616 55.0564 134.69L48.4993 130.107C48.0165 130.798 46.6989 131.74 43.9588 132.615C41.3601 133.445 38.1461 134.013 34.7287 134.469C33.0374 134.694 31.3433 134.887 29.6875 135.072C28.0486 135.256 26.4268 135.435 24.9522 135.629C23.486 135.822 22.0654 136.042 20.8294 136.321C19.6886 136.58 18.2989 136.972 17.1568 137.687L21.4014 144.468ZM55.0564 134.69C56.4479 132.699 57.1935 130.366 57.6328 128.125C58.0756 125.865 58.2545 123.437 58.3475 121.098C58.5447 116.136 58.3945 111.831 58.9803 108.059L51.0751 106.832C50.3971 111.197 50.5177 116.656 50.3538 120.78C50.2662 122.984 50.1066 124.93 49.7821 126.586C49.454 128.26 49.0035 129.386 48.4993 130.107L55.0564 134.69ZM345.678 400.786C351.742 395.947 360.643 393.231 370.969 391.442C381.468 389.624 391.979 388.944 402.232 387.518L401.13 379.594C391.883 380.88 380.035 381.753 369.604 383.56C359.001 385.396 348.403 388.376 340.688 394.533L345.678 400.786ZM402.232 387.518C408.139 386.696 413.544 382.271 418.256 376.817C423.099 371.211 427.832 363.779 432.275 355.637L425.252 351.805C420.932 359.721 416.514 366.596 412.202 371.587C407.76 376.73 404.005 379.194 401.13 379.594L402.232 387.518ZM432.275 355.637C437.723 345.651 442.77 334.335 446.426 323.466C450.057 312.671 452.423 302.008 452.262 293.433L444.263 293.583C444.399 300.809 442.363 310.454 438.843 320.916C435.349 331.304 430.497 342.193 425.252 351.805L432.275 355.637ZM452.257 293.711C452.517 288.596 453.487 280.384 455.531 272.564C456.552 268.658 457.816 264.947 459.341 261.807C460.883 258.631 462.577 256.277 464.339 254.833L459.268 248.645C456.264 251.106 453.95 254.593 452.144 258.314C450.32 262.071 448.896 266.314 447.791 270.54C445.584 278.985 444.55 287.752 444.268 293.305L452.257 293.711ZM464.339 254.833C469.471 250.627 473.306 245.9 477.152 241.091C481.03 236.242 484.988 231.213 490.567 225.88L485.039 220.097C479.016 225.855 474.741 231.296 470.903 236.095C467.033 240.936 463.669 245.039 459.268 248.645L464.339 254.833ZM490.567 225.88C496.533 220.176 503.958 212.86 509.796 205.601C512.714 201.972 515.328 198.246 517.169 194.649C518.973 191.127 520.262 187.296 519.955 183.6L511.982 184.263C512.108 185.775 511.583 188.006 510.048 191.003C508.552 193.926 506.304 197.177 503.562 200.587C498.08 207.404 490.989 214.409 485.039 220.097L490.567 225.88ZM519.955 183.6C519.039 172.598 515.362 160.97 507.618 152.022L501.569 157.257C507.908 164.582 511.164 174.436 511.982 184.263L519.955 183.6ZM507.618 152.022C506.309 150.509 504.404 149.494 502.78 148.741C501.064 147.946 498.96 147.145 496.871 146.322C492.558 144.624 487.672 142.593 483.023 139.406L478.5 146.004C483.951 149.741 489.568 152.044 493.94 153.766C496.193 154.653 497.977 155.333 499.417 156C500.118 156.325 500.643 156.605 501.028 156.849C501.216 156.969 501.35 157.067 501.443 157.142C501.535 157.218 501.57 157.258 501.569 157.257L507.618 152.022ZM483.023 139.406C475.75 134.42 470.009 129.064 464.777 124.389C459.777 119.923 454.77 115.597 449.457 113.935L447.068 121.57C450.422 122.619 454.13 125.605 459.447 130.355C464.53 134.897 470.705 140.661 478.5 146.004L483.023 139.406ZM449.457 113.935C443.963 112.215 438.848 113.348 435.03 114.325C432.98 114.849 431.467 115.286 430.014 115.533C428.606 115.771 427.775 115.724 427.233 115.557L424.877 123.202C427.152 123.903 429.422 123.747 431.352 123.42C433.236 123.1 435.298 122.514 437.013 122.075C440.724 121.126 443.896 120.577 447.068 121.57L449.457 113.935ZM427.233 115.557C423.953 114.546 420.712 112.962 416.825 111.346C413.226 109.85 409.052 108.328 404.931 108.328V116.328C407.309 116.328 410.177 117.246 413.754 118.733C417.044 120.101 421.116 122.043 424.877 123.202L427.233 115.557ZM404.931 108.328C400.013 108.328 396.694 108.845 394.682 109.072C392.305 109.341 393.102 108.923 393.679 109.501L388.018 115.154C390.51 117.65 393.712 117.233 395.58 117.022C397.813 116.769 400.578 116.328 404.931 116.328V108.328ZM393.679 109.501C393.733 109.555 393.489 109.29 393.101 108.076C392.703 106.829 392.485 105.792 391.986 104.043C391.561 102.553 390.974 100.746 390.018 99.1422C389.031 97.4853 387.486 95.7777 385.073 94.9722L382.54 102.56C382.564 102.569 382.78 102.624 383.147 103.239C383.545 103.907 383.906 104.879 384.293 106.238C384.607 107.337 385.067 109.215 385.481 110.511C385.905 111.84 386.61 113.744 388.018 115.154L393.679 109.501ZM385.073 94.9722C384.349 94.7304 382.892 93.9427 380.483 92.5125C378.262 91.1945 375.46 89.4771 372.488 87.816C366.682 84.5704 359.307 80.9878 352.582 80.6671L352.201 88.658C356.85 88.8797 362.746 91.5353 368.585 94.7991C371.436 96.3928 374.05 97.9979 376.4 99.3922C378.56 100.674 380.827 101.989 382.54 102.56L385.073 94.9722ZM352.582 80.6671C349.952 80.5417 347.84 80.7894 346.029 81.3504C344.197 81.9178 342.899 82.7394 341.925 83.408C340.874 84.1286 340.523 84.4079 339.975 84.653C339.579 84.8301 338.977 85.0193 337.825 85.0025L337.708 93.0016C339.917 93.0339 341.687 92.6511 343.241 91.9559C344.643 91.3288 345.822 90.4357 346.45 90.0049C347.154 89.522 347.683 89.2132 348.396 88.9922C349.13 88.7649 350.28 88.5664 352.201 88.658L352.582 80.6671ZM337.825 85.0025C338.079 85.0062 338.586 85.0538 339.166 85.3489C339.792 85.6666 340.24 86.1374 340.521 86.6005C340.929 87.2735 340.912 87.8581 340.865 87.3853C340.816 86.8954 340.761 85.1631 340.077 83.2816C338.586 79.1752 334.651 75.1701 325.663 71.708L322.788 79.1733C330.699 82.2207 332.182 84.9764 332.558 86.0134C332.809 86.7038 332.801 87.1387 332.905 88.1782C332.934 88.4701 333.02 89.6599 333.681 90.7494C334.088 91.4208 334.7 92.0526 335.542 92.4806C336.339 92.8859 337.116 92.993 337.708 93.0016L337.825 85.0025ZM325.663 71.708C321.799 70.2194 320.605 68.8696 320.249 68.2133C319.988 67.7304 319.88 67.0767 320.37 65.702C320.938 64.109 321.797 62.7928 322.896 60.6481C323.373 59.7159 323.902 58.5922 324.227 57.4077C324.556 56.2141 324.764 54.6555 324.259 53.005L316.609 55.3442C316.511 55.0223 316.614 54.9212 316.514 55.2867C316.411 55.6612 316.187 56.1978 315.776 56.9999C315.097 58.3238 313.634 60.7713 312.834 63.0169C311.956 65.4808 311.436 68.7403 313.215 72.0246C314.901 75.1357 318.203 77.4072 322.788 79.1733L325.663 71.708ZM324.259 53.005C323.226 49.6263 320.358 48.4847 318.476 48.0228C317.533 47.7914 316.535 47.6523 315.729 47.5403C314.855 47.4188 314.118 47.3182 313.395 47.1679C311.967 46.871 311.063 46.4641 310.424 45.844C309.827 45.2647 309.026 44.0736 308.698 41.3325L300.755 42.2842C301.239 46.3238 302.605 49.4045 304.852 51.585C307.057 53.7245 309.673 54.5652 311.766 55.0004C312.803 55.2161 313.826 55.3527 314.628 55.4641C315.498 55.585 316.09 55.6746 316.569 55.7922C317.531 56.0282 316.83 56.0658 316.609 55.3442L324.259 53.005ZM308.698 41.3325C308.117 36.481 306.824 31.4744 305.558 27.5083C304.922 25.5142 304.28 23.7416 303.714 22.3375C303.199 21.0583 302.625 19.7706 302.098 18.9785L295.439 23.4115C295.405 23.3604 295.481 23.4754 295.671 23.8795C295.84 24.2391 296.051 24.7242 296.294 25.3263C296.778 26.5281 297.354 28.1132 297.937 29.9397C299.109 33.6148 300.254 38.1012 300.755 42.2842L308.698 41.3325ZM302.098 18.9785C300.989 17.3132 299.542 15.7357 297.586 14.9673C295.37 14.0965 293.244 14.5399 291.579 15.5359C290.08 16.4327 288.907 17.7862 287.999 19.0493C287.057 20.3611 286.184 21.8885 285.375 23.4394C283.849 26.368 282.1 30.3205 280.672 33.2175C279.069 36.4705 277.676 38.8273 276.439 40.067L282.1 45.7196C284.383 43.4332 286.276 39.9444 287.848 36.7547C289.596 33.209 290.914 30.122 292.469 27.1371C293.202 25.7312 293.874 24.5834 294.497 23.7167C295.154 22.8014 295.565 22.4734 295.687 22.4008C295.712 22.3856 295.593 22.4623 295.349 22.4922C295.082 22.5248 294.833 22.481 294.661 22.4133C294.412 22.3154 294.723 22.3359 295.439 23.4115L302.098 18.9785ZM276.439 40.067C276.18 40.3259 276.153 40.2688 276.103 40.2672C275.777 40.2568 275.209 40.1129 274.03 39.614C273.091 39.2163 271.479 38.4536 269.954 38.0135C268.302 37.5366 266.161 37.2329 263.87 38.031L266.502 45.5857C266.642 45.537 266.95 45.4729 267.736 45.6997C268.649 45.9634 269.465 46.3687 270.912 46.9812C272.12 47.4925 273.898 48.201 275.848 48.2632C278.073 48.3341 280.252 47.5698 282.1 45.7196L276.439 40.067ZM263.87 38.031C262.645 38.4579 261.728 38.886 260.97 39.3466C260.265 39.7751 259.668 40.2738 259.59 40.3331C259.53 40.3791 259.55 40.3602 259.603 40.3302C259.661 40.2978 259.692 40.2891 259.664 40.2986C259.562 40.3331 259.193 40.4358 258.229 40.5469L259.144 48.4943C260.336 48.357 261.345 48.175 262.225 47.8775C263.232 47.5373 263.908 47.1016 264.442 46.6943C264.938 46.3162 264.901 46.3193 265.125 46.183C265.297 46.0788 265.678 45.8729 266.502 45.5857L263.87 38.031ZM258.229 40.5469C257.509 40.6299 257.43 40.4769 257.544 40.5475C257.551 40.552 257.505 40.5262 257.398 40.4063C257.28 40.275 257.136 40.0838 256.918 39.7604C256.279 38.8104 254.408 35.1242 249.962 34.5829L248.995 42.5243C249.058 42.5319 248.892 42.1633 250.281 44.2266C250.836 45.0516 251.777 46.3853 253.329 47.3471C255.008 48.3882 256.966 48.7454 259.144 48.4943L258.229 40.5469ZM249.962 34.5829C244.65 33.9363 238.315 34.2473 232.466 38.5993L237.242 45.0174C240.786 42.3804 244.73 42.0051 248.995 42.5243L249.962 34.5829ZM232.466 38.5993C230.58 40.003 229.581 41.2468 228.995 41.8819C228.592 42.3181 228.316 42.5981 227.356 42.999L230.436 50.382C232.654 49.4564 233.846 48.4201 234.872 47.3093C235.714 46.3973 236.105 45.8632 237.242 45.0174L232.466 38.5993ZM227.356 42.999C225.158 43.9159 223.216 43.6818 219.724 43.4624C216.346 43.2502 212.114 43.1929 207.385 45.9457L211.409 52.8598C214.052 51.3216 216.32 51.2643 219.223 51.4467C222.013 51.622 226.134 52.1773 230.436 50.382L227.356 42.999ZM207.385 45.9457C205.669 46.9443 204.381 48.3767 203.438 49.5582C202.952 50.167 202.497 50.7892 202.1 51.3333C201.685 51.9021 201.339 52.378 200.998 52.8126C200.658 53.2441 200.386 53.5523 200.158 53.7711C199.929 53.9914 199.82 54.0476 199.827 54.0442C200.087 53.9124 200.426 53.9987 200.355 53.9629L196.773 61.1162C199.051 62.2571 201.386 62.2253 203.45 61.1767C205.185 60.2954 206.445 58.8269 207.286 57.7585C207.737 57.1842 208.178 56.5757 208.564 56.0464C208.968 55.4924 209.327 55.0031 209.69 54.5487C210.444 53.6038 210.99 53.1038 211.409 52.8598L207.385 45.9457ZM200.355 53.9629C195.038 51.3005 191.873 49.1164 189.985 46.7496C188.247 44.5699 187.327 41.8902 187.397 37.5331L179.398 37.4044C179.306 43.1101 180.553 47.7536 183.73 51.7375C186.758 55.5342 191.257 58.3541 196.773 61.1162L200.355 53.9629ZM187.397 37.5331C187.406 37.015 187.584 36.4648 188.137 35.7057C188.753 34.859 189.58 34.0763 190.741 32.9563C191.739 31.9941 193.179 30.6093 194.123 28.9383C195.206 27.0203 195.695 24.641 194.743 22.005L187.219 24.7247C187.249 24.8089 187.295 24.7594 187.157 25.0041C186.879 25.4959 186.32 26.1068 185.189 27.1971C184.222 28.1296 182.79 29.4561 181.668 30.9988C180.482 32.6292 179.441 34.7487 179.398 37.4044L187.397 37.5331ZM194.743 22.005C193.98 19.8952 192.639 18.4242 190.89 17.5703C189.433 16.8592 187.846 16.6959 187.176 16.6026C186.226 16.4704 186.107 16.3978 186.117 16.4032C186.35 16.5373 186.284 16.686 186.129 16.1925L178.5 18.6032C179.172 20.7295 180.389 22.34 182.135 23.3417C183.656 24.2147 185.278 24.4155 186.073 24.5262C186.57 24.5954 186.845 24.632 187.103 24.6859C187.336 24.7345 187.398 24.7682 187.38 24.7593C187.158 24.6511 187.123 24.4589 187.219 24.7247L194.743 22.005ZM186.129 16.1925C186.096 16.0898 186.043 15.8048 186.178 15.1172C186.329 14.3402 186.57 13.6721 186.924 12.4764C187.205 11.5243 187.641 9.98136 187.527 8.36744C187.39 6.42055 186.479 4.55992 184.583 3.2541L180.046 9.84325C179.808 9.67915 179.57 9.24953 179.547 8.93093C179.544 8.88832 179.555 8.95991 179.509 9.20718C179.463 9.45367 179.382 9.76749 179.252 10.2067C179.035 10.9419 178.575 12.3099 178.326 13.5824C178.06 14.9442 177.906 16.7219 178.5 18.6032L186.129 16.1925ZM184.583 3.2541C181.74 1.29672 178.749 0.497447 175.736 1.31751C173.003 2.06127 170.994 3.96596 169.568 5.54473C168.821 6.3724 168.106 7.26091 167.459 8.06867C166.788 8.90668 166.183 9.66608 165.558 10.3828C164.283 11.845 163.229 12.7582 162.22 13.2245L165.577 20.4863C168.142 19.3008 170.094 17.3537 171.587 15.6413C172.346 14.7707 173.067 13.8642 173.704 13.0695C174.364 12.2444 174.939 11.5333 175.506 10.9062C176.707 9.57535 177.421 9.14988 177.836 9.03677C177.972 8.99995 178.556 8.81709 180.046 9.84325L184.583 3.2541ZM162.22 13.2245C159.408 14.5245 157.591 14.6268 155.456 14.6879C153.074 14.756 150.106 14.7506 146.109 16.4185L149.19 23.8016C151.692 22.7574 153.328 22.752 155.685 22.6846C158.29 22.6101 161.348 22.4411 165.577 20.4863L162.22 13.2245ZM146.109 16.4185C144.325 17.1629 142.82 18.4272 142.145 20.385C141.591 21.989 141.825 23.5773 141.888 24.1267C141.99 25.0153 141.954 24.9939 141.979 24.8844C142.075 24.4609 142.354 24.2645 142.247 24.3329L146.551 31.0761C148.281 29.9722 149.372 28.4545 149.78 26.6548C150.117 25.1692 149.894 23.7169 149.836 23.2141C149.739 22.3721 149.84 22.6084 149.707 22.9942C149.452 23.7338 148.921 23.9137 149.19 23.8016L146.109 16.4185ZM142.247 24.3329C142.503 24.1695 142.389 24.5724 140.841 23.8646C139.335 23.1758 137.653 21.9787 135.529 20.4973C133.667 19.1985 131.232 17.5046 128.847 16.724C127.583 16.3106 125.982 16.0267 124.281 16.4337C122.47 16.8669 121.03 17.9653 119.995 19.4474L126.555 24.0275C126.631 23.918 126.496 24.1295 126.142 24.2141C125.898 24.2727 125.904 24.1787 126.358 24.3273C127.408 24.6707 128.844 25.5888 130.953 27.0592C132.799 28.347 135.188 30.0762 137.514 31.1399C139.798 32.1845 143.278 33.1659 146.551 31.0761L142.247 24.3329ZM119.995 19.4474C117.61 22.8637 117.929 26.3645 119.021 29.2826C119.979 31.8419 121.824 34.6352 123.07 36.7717L129.98 32.7411C128.328 29.9083 127.154 28.1886 126.514 26.479C126.008 25.1282 126.152 24.6041 126.555 24.0275L119.995 19.4474ZM123.07 36.7717C124.373 39.0062 125.607 40.4197 126.353 41.3886C127.037 42.2783 127.588 43.1034 128.165 44.7551L135.718 42.1164C134.8 39.4889 133.777 37.9187 132.694 36.5109C131.672 35.1821 130.945 34.3956 129.98 32.7411L123.07 36.7717ZM105.738 62.2241C102.778 62.3759 100.757 61.8205 99.2598 61.0784C97.7106 60.3106 96.499 59.2371 95.2318 57.968L89.5707 63.6206C91.0118 65.0638 92.9656 66.8875 95.7073 68.2463C98.5009 69.6309 101.896 70.4316 106.147 70.2136L105.738 62.2241ZM95.2318 57.968C95.0757 57.8116 94.7784 57.3688 94.4547 56.2625C94.1174 55.11 93.9428 54.006 93.5968 52.4112C93.3094 51.0864 92.8612 49.2074 91.873 47.6439C90.6894 45.7712 88.7014 44.3178 85.9015 44.3178V52.3178C85.8654 52.3178 85.6478 52.3001 85.3891 52.1456C85.1534 52.0047 85.077 51.8651 85.1104 51.918C85.2592 52.1534 85.4832 52.7452 85.7787 54.1072C86.0156 55.1993 86.3345 56.9982 86.7766 58.5092C87.2323 60.0666 88.0003 62.0478 89.5707 63.6206L95.2318 57.968ZM85.9015 44.3178C81.9359 44.3178 78.3717 44.9734 75.003 45.7693C71.4436 46.6102 68.615 47.4612 65.051 48.1978L66.6702 56.0322C70.2585 55.2906 73.9297 54.2431 76.8424 53.5549C79.9456 52.8218 82.8257 52.3178 85.9015 52.3178V44.3178ZM65.051 48.1978C61.9967 48.8291 59.5949 48.8486 56.723 49.1902C55.4548 49.341 53.977 49.5782 52.6314 50.1227C51.1977 50.7029 49.6656 51.7359 48.7428 53.5788L55.8961 57.1607C55.697 57.5583 55.407 57.6297 55.6323 57.5386C55.9458 57.4117 56.5441 57.2678 57.6678 57.1342C59.5797 56.9068 63.2248 56.7443 66.6702 56.0322L65.051 48.1978ZM48.7428 53.5788C47.2819 56.4963 46.4985 60.3374 45.7601 62.968L53.4624 65.1301C54.4754 61.5214 54.8917 59.1667 55.8961 57.1607L48.7428 53.5788ZM45.7601 62.968C44.4855 67.5086 44.5536 71.2072 44.5281 74.8703L52.5279 74.926C52.5546 71.0816 52.5258 68.4668 53.4624 65.1301L45.7601 62.968ZM44.5281 74.8703C44.4919 80.0566 46.7055 83.2357 48.639 85.651C50.5857 88.0828 51.7289 89.2992 52.2021 91.4783L60.0199 89.7805C59.0588 85.3549 56.3839 82.5247 54.8843 80.6515C53.3716 78.7618 52.5108 77.3776 52.5279 74.926L44.5281 74.8703ZM52.2021 91.4783C52.7995 94.229 52.6108 97.8659 52.1691 101.085C51.9557 102.64 51.698 103.998 51.4942 104.964C51.3925 105.445 51.3051 105.825 51.2446 106.08C51.2143 106.207 51.1908 106.302 51.1757 106.363C51.1682 106.393 51.1627 106.414 51.1595 106.427C51.158 106.433 51.157 106.437 51.1566 106.438C51.1563 106.439 51.1563 106.439 51.1564 106.439C51.1564 106.439 51.1565 106.439 51.1567 106.438C51.1567 106.438 51.1569 106.437 51.1569 106.437C51.157 106.437 51.1572 106.436 55.0277 107.446C58.8982 108.455 58.8984 108.454 58.8986 108.454C58.8987 108.453 58.8988 108.453 58.899 108.452C58.8993 108.451 58.8996 108.45 58.9 108.448C58.9007 108.446 58.9016 108.442 58.9026 108.438C58.9047 108.43 58.9073 108.42 58.9106 108.407C58.9171 108.381 58.926 108.346 58.937 108.302C58.959 108.214 58.9895 108.09 59.027 107.933C59.1019 107.618 59.2046 107.171 59.3218 106.615C59.5555 105.508 59.8499 103.957 60.0949 102.172C60.5699 98.71 60.9229 93.9389 60.0199 89.7805L52.2021 91.4783ZM128.165 44.7551C128.264 45.0379 128.257 45.1506 128.257 45.1364C128.257 45.1311 128.258 45.1122 128.265 45.0863C128.268 45.0745 128.271 45.0643 128.274 45.0563C128.277 45.0483 128.279 45.0443 128.279 45.0445C128.261 45.082 128.075 45.4016 127.21 46.025C126.348 46.6463 125.283 47.2504 123.814 48.1108C122.432 48.9201 120.804 49.8969 119.221 51.1069L124.079 57.4627C125.243 56.5733 126.505 55.8056 127.857 55.0139C129.122 54.2732 130.633 53.4197 131.888 52.5151C133.14 51.6125 134.613 50.3379 135.493 48.5012C136.465 46.4736 136.475 44.2846 135.718 42.1164L128.165 44.7551ZM119.221 51.1069C115.04 54.3029 112.569 57.8032 110.956 59.5949C110.096 60.5495 109.442 61.1129 108.756 61.4882C108.107 61.8435 107.211 62.1486 105.738 62.2241L106.147 70.2136C108.639 70.0858 110.741 69.5215 112.597 68.506C114.416 67.5106 115.772 66.2018 116.901 64.9478C119.265 62.3221 120.683 60.0587 124.079 57.4627L119.221 51.1069Z" fill="#0A7FF6"/>
<path d="M278.327 492.162L274.992 494.37C275.748 495.513 277.036 496.189 278.406 496.162C279.775 496.135 281.036 495.409 281.747 494.238L278.327 492.162ZM454.754 224.255C455.966 222.408 455.451 219.928 453.604 218.716C451.757 217.504 449.277 218.019 448.065 219.866L454.754 224.255ZM205.879 159.133C205.401 156.977 203.264 155.616 201.108 156.095C198.951 156.574 197.591 158.71 198.069 160.867L205.879 159.133ZM240.281 332.618L236.376 333.484L236.382 333.51L236.388 333.535L240.281 332.618ZM54.3354 204.338C53.116 202.495 50.6342 201.991 48.7921 203.21C46.95 204.429 46.4452 206.911 47.6646 208.753L54.3354 204.338ZM281.747 494.238C307.291 452.157 350.531 384.678 387.411 327.681C405.845 299.191 422.681 273.334 434.909 254.599C441.023 245.232 445.985 237.645 449.418 232.401C451.134 229.778 452.468 227.742 453.374 226.361C453.826 225.67 454.171 225.144 454.403 224.79C454.519 224.613 454.607 224.479 454.666 224.39C454.695 224.345 454.717 224.311 454.732 224.289C454.739 224.277 454.745 224.269 454.749 224.263C454.75 224.261 454.752 224.258 454.753 224.257C454.754 224.256 454.754 224.255 451.41 222.061C448.065 219.866 448.065 219.867 448.064 219.868C448.063 219.87 448.062 219.872 448.06 219.875C448.056 219.881 448.05 219.889 448.043 219.9C448.028 219.923 448.006 219.957 447.977 220.002C447.918 220.091 447.83 220.226 447.714 220.403C447.481 220.757 447.135 221.284 446.682 221.975C445.777 223.358 444.441 225.396 442.724 228.019C439.289 233.266 434.326 240.856 428.21 250.227C415.978 268.968 399.136 294.834 380.694 323.336C343.821 380.322 300.521 447.893 274.908 490.087L281.747 494.238ZM282.215 491.221C273.485 455.156 263.975 415.276 256.647 384.411C252.983 368.979 249.865 355.801 247.663 346.481C246.562 341.821 245.69 338.126 245.093 335.596C244.795 334.331 244.565 333.357 244.41 332.699C244.333 332.371 244.274 332.121 244.234 331.954C244.215 331.87 244.2 331.807 244.19 331.764C244.185 331.743 244.181 331.727 244.179 331.717C244.177 331.711 244.176 331.708 244.176 331.705C244.176 331.704 244.175 331.703 244.175 331.702C244.175 331.701 244.175 331.701 240.281 332.618C236.388 333.535 236.388 333.535 236.388 333.536C236.388 333.536 236.389 333.537 236.389 333.539C236.39 333.541 236.39 333.545 236.392 333.551C236.394 333.561 236.398 333.577 236.403 333.598C236.413 333.641 236.428 333.704 236.448 333.788C236.487 333.956 236.546 334.205 236.623 334.534C236.779 335.192 237.008 336.167 237.307 337.432C237.904 339.963 238.776 343.66 239.877 348.321C242.08 357.643 245.199 370.823 248.863 386.259C256.192 417.129 265.705 457.021 274.44 493.104L282.215 491.221ZM244.186 331.751L205.879 159.133L198.069 160.867L236.376 333.484L244.186 331.751ZM47.6646 208.753C52.3616 215.849 66.009 232.793 84.3363 255.082C102.726 277.448 126.101 305.522 150.337 334.918C198.92 393.846 251.042 458.19 274.992 494.37L281.663 489.955C257.429 453.345 204.992 388.635 156.51 329.829C132.212 300.358 108.928 272.394 90.5156 250.001C72.0406 227.532 58.7428 210.996 54.3354 204.338L47.6646 208.753Z" fill="url(#paint0_linear_309_8)"/>
<defs>
<linearGradient id="paint0_linear_309_8" x1="251.205" y1="160" x2="251.205" y2="492.162" gradientUnits="userSpaceOnUse">
<stop stop-color="#F6CE1F" stop-opacity="0"/>
<stop offset="0.0001" stop-color="white" stop-opacity="0"/>
<stop offset="0.453125" stop-color="#F6CE1F"/>
</linearGradient>
</defs>
</svg>
