<svg width="144" height="37" viewBox="0 0 144 37" fill="none" xmlns="http://www.w3.org/2000/svg">
<path d="M54.8039 22.295L53.2919 24.695C53.7879 25.079 54.3239 25.431 54.8999 25.751C55.4759 26.055 56.0999 26.295 56.7719 26.471C57.4599 26.663 58.2039 26.759 59.0039 26.759C60.3159 26.759 61.3319 26.463 62.0519 25.871C62.7879 25.263 63.1559 24.367 63.1559 23.183C63.1559 22.495 63.0039 21.943 62.6999 21.527C62.4119 21.111 62.0199 20.767 61.5239 20.495C61.0439 20.223 60.5159 19.983 59.9399 19.775C59.3959 19.567 58.9319 19.399 58.5479 19.271C58.1799 19.127 57.8919 18.975 57.6839 18.815C57.4919 18.655 57.3959 18.455 57.3959 18.215C57.3959 18.007 57.4759 17.839 57.6359 17.711C57.8119 17.583 58.0679 17.519 58.4039 17.519C58.8999 17.519 59.4439 17.663 60.0359 17.951C60.6279 18.223 61.1559 18.575 61.6199 19.007L62.9159 16.655C62.4839 16.335 62.0199 16.055 61.5239 15.815C61.0439 15.575 60.5239 15.383 59.9639 15.239C59.4199 15.095 58.8279 15.023 58.1879 15.023C57.3879 15.023 56.6759 15.143 56.0519 15.383C55.4439 15.623 54.9559 15.975 54.5879 16.439C54.2359 16.903 54.0599 17.471 54.0599 18.143C54.0599 18.847 54.2119 19.423 54.5159 19.871C54.8199 20.319 55.2039 20.679 55.6679 20.951C56.1479 21.207 56.6519 21.431 57.1799 21.623C57.7719 21.799 58.2359 21.967 58.5719 22.127C58.9239 22.287 59.1719 22.455 59.3159 22.631C59.4599 22.791 59.5319 22.991 59.5319 23.231C59.5319 23.487 59.4439 23.695 59.2679 23.855C59.0919 24.015 58.8199 24.095 58.4519 24.095C58.1959 24.095 57.8919 24.047 57.5399 23.951C57.1879 23.839 56.7799 23.655 56.3159 23.399C55.8679 23.127 55.3639 22.759 54.8039 22.295ZM70.7652 26.543C72.1732 26.543 73.3652 26.271 74.3412 25.727C75.3332 25.183 76.1172 24.367 76.6932 23.279L73.4532 22.487C73.1812 22.967 72.8132 23.327 72.3492 23.567C71.9012 23.807 71.3572 23.927 70.7172 23.927C70.1572 23.927 69.6852 23.807 69.3012 23.567C68.9172 23.311 68.6292 22.943 68.4372 22.463C68.2452 21.983 68.1492 21.407 68.1492 20.735C68.1652 19.999 68.2612 19.391 68.4372 18.911C68.6292 18.415 68.9092 18.047 69.2772 17.807C69.6452 17.567 70.1012 17.447 70.6452 17.447C71.0772 17.447 71.4532 17.543 71.7732 17.735C72.0932 17.927 72.3412 18.199 72.5172 18.551C72.6932 18.903 72.7812 19.319 72.7812 19.799C72.7812 19.911 72.7492 20.055 72.6852 20.231C72.6372 20.391 72.5732 20.527 72.4932 20.639L73.3572 19.535H66.5412V21.551H76.6212C76.6532 21.439 76.6692 21.303 76.6692 21.143C76.6692 20.967 76.6692 20.791 76.6692 20.615C76.6692 19.431 76.4372 18.423 75.9732 17.591C75.5092 16.759 74.8372 16.127 73.9572 15.695C73.0772 15.247 71.9972 15.023 70.7172 15.023C69.4372 15.023 68.3252 15.255 67.3812 15.719C66.4532 16.183 65.7412 16.847 65.2452 17.711C64.7492 18.575 64.5012 19.599 64.5012 20.783C64.5012 21.951 64.7572 22.967 65.2692 23.831C65.7812 24.695 66.5012 25.367 67.4292 25.847C68.3732 26.311 69.4852 26.543 70.7652 26.543ZM82.507 7.58304H78.883V26.303H82.507V7.58304ZM91.531 20.783C91.531 19.535 91.275 18.487 90.763 17.639C90.267 16.791 89.619 16.143 88.819 15.695C88.035 15.247 87.187 15.023 86.275 15.023C85.363 15.023 84.547 15.255 83.827 15.719C83.107 16.183 82.539 16.847 82.123 17.711C81.707 18.559 81.499 19.583 81.499 20.783C81.499 21.967 81.707 22.991 82.123 23.855C82.539 24.719 83.107 25.383 83.827 25.847C84.547 26.311 85.363 26.543 86.275 26.543C87.187 26.543 88.035 26.319 88.819 25.871C89.619 25.423 90.267 24.775 90.763 23.927C91.275 23.063 91.531 22.015 91.531 20.783ZM87.715 20.783C87.715 21.359 87.595 21.863 87.355 22.295C87.115 22.711 86.795 23.039 86.395 23.279C85.995 23.503 85.555 23.615 85.075 23.615C84.659 23.615 84.251 23.503 83.851 23.279C83.467 23.055 83.147 22.735 82.891 22.319C82.635 21.887 82.507 21.375 82.507 20.783C82.507 20.191 82.635 19.687 82.891 19.271C83.147 18.839 83.467 18.511 83.851 18.287C84.251 18.063 84.659 17.951 85.075 17.951C85.555 17.951 85.995 18.071 86.395 18.311C86.795 18.535 87.115 18.863 87.355 19.295C87.595 19.711 87.715 20.207 87.715 20.783ZM110.568 19.199C110.568 18.303 110.456 17.543 110.232 16.919C110.008 16.295 109.64 15.823 109.128 15.503C108.632 15.167 107.952 14.999 107.088 14.999C106.336 14.999 105.664 15.159 105.072 15.479C104.48 15.799 103.984 16.247 103.584 16.823C103.36 16.231 102.992 15.783 102.48 15.479C101.968 15.159 101.28 14.999 100.416 14.999C99.6635 14.999 99.0155 15.167 98.4715 15.503C97.9435 15.839 97.5275 16.303 97.2235 16.895V15.263H93.7195V26.303H97.2235V19.583C97.2235 19.135 97.2875 18.759 97.4155 18.455C97.5595 18.151 97.7515 17.927 97.9915 17.783C98.2475 17.623 98.5355 17.543 98.8555 17.543C99.3515 17.543 99.7035 17.719 99.9115 18.071C100.136 18.407 100.248 18.911 100.248 19.583V26.303H103.896V19.583C103.896 19.135 103.96 18.759 104.088 18.455C104.232 18.151 104.424 17.927 104.664 17.783C104.92 17.623 105.208 17.543 105.528 17.543C106.024 17.543 106.376 17.719 106.584 18.071C106.808 18.407 106.92 18.911 106.92 19.583V26.303H110.568V19.199ZM111.802 15.263L118.21 27.599L124.594 15.263H120.73L118.21 21.383L115.666 15.263H111.802ZM133.122 19.583V26.303H136.89V19.199C136.89 17.871 136.578 16.839 135.954 16.103C135.33 15.367 134.33 14.999 132.954 14.999C132.138 14.999 131.45 15.167 130.89 15.503C130.346 15.839 129.914 16.311 129.594 16.919V15.263H125.946V26.303H129.594V19.583C129.594 19.151 129.674 18.783 129.834 18.479C129.994 18.175 130.218 17.943 130.506 17.783C130.794 17.623 131.13 17.543 131.514 17.543C132.09 17.543 132.498 17.719 132.738 18.071C132.994 18.423 133.122 18.927 133.122 19.583Z" fill="black" fill-opacity="0.8"/>
<path d="M23.3734 35.4809L22.3957 35.2711L22.3734 35.3748V35.4809H23.3734ZM23.3734 36H22.3734C22.3734 36.3922 22.6027 36.7482 22.9597 36.9104C23.3168 37.0727 23.7357 37.0112 24.0311 36.7533L23.3734 36ZM24.8175 34.7392L25.4752 35.4925L25.4883 35.481L25.501 35.4691L24.8175 34.7392ZM25.9989 33.4784L26.8026 34.0735L25.9989 33.4784ZM26.7866 32.3289L25.9735 31.7468L26.7866 32.3289ZM27.8806 30.9198L28.8667 31.086L27.8806 30.9198ZM27.8806 29.1769L28.778 29.6182L27.8806 29.1769ZM29.2808 27.842L29.8405 28.6707L29.2808 27.842ZM20.2666 31.9581L19.7054 31.1303L20.2666 31.9581ZM23.1546 29.6961L22.1603 29.8027L23.1546 29.6961ZM22.2357 28.7319L22.7721 27.888L22.7629 27.8821L22.7535 27.8764L22.2357 28.7319ZM21.7106 27.2857L21.535 26.3013L21.4123 26.3232L21.2988 26.3745L21.7106 27.2857ZM20.9229 27.1745L19.971 27.4808L20.9229 27.1745ZM19.5227 25.8025L19.2763 24.8333L19.5227 25.8025ZM18.6475 25.6912L17.7469 25.2565L17.6475 25.4625V25.6912H18.6475ZM18.6475 24.4675L17.7693 24.9458L18.6475 24.4675ZM16.2845 20.4627L17.276 20.3327L16.2845 20.4627ZM10.8147 16.3836L11.6819 15.8858L10.8147 16.3836ZM10.6397 14.8633L11.5009 14.3551L10.6397 14.8633ZM9.02058 15.1228L8.56742 14.2314L9.02058 15.1228ZM5.21358 16.0499L4.8722 16.9898L5.21358 16.0499ZM1.97543 12.1563L1.80833 11.1703L1.97543 12.1563ZM5.73868 9.70888L4.9677 9.07202V9.07202L5.73868 9.70888ZM6.00123 8.00311L5.04559 7.70857L5.02828 7.76475L5.01767 7.82256L6.00123 8.00311ZM34.0068 26.8778L33.8899 25.8847L34.0068 26.8778ZM37.77 20.7222L36.7718 20.6623L36.7694 20.7034L36.7703 20.7445L37.77 20.7222ZM36.1947 24.8383L37.0351 25.3803L36.1947 24.8383ZM40.9644 15.9016L41.5933 16.679L40.9644 15.9016ZM42.3209 11.2292L43.0201 10.5142L42.3209 11.2292ZM40.3955 10.4134L39.8938 11.2784L40.3955 10.4134ZM35.9759 8.81891L36.2282 7.85127L35.9759 8.81891ZM33.1316 8.33685L33.7781 7.57392L33.1316 8.33685ZM30.0247 6.44568L29.9844 7.44487L30.0247 6.44568ZM28.8433 6.74233L28.8556 5.7424L28.8433 6.74233ZM26.174 3.5162L27.1641 3.37599L26.174 3.5162ZM22.9796 3.5162L23.2624 4.47539L22.9796 3.5162ZM22.4545 3.70161L22.5515 4.69689L22.4545 3.70161ZM21.7106 3.2937L21.8131 2.29897L21.7106 3.2937ZM20.5291 3.5162L21.0619 4.36242L20.5291 3.5162ZM20.0478 3.84993L20.3807 4.79288L20.0478 3.84993ZM18.4725 4.03534L18.0306 3.13824L18.4725 4.03534ZM16.372 3.21954L17.3719 3.23855L16.372 3.21954ZM16.9847 2.25541L16.0651 2.64828L16.9847 2.25541ZM16.2845 1.84751L17.2213 1.49764L16.2845 1.84751ZM16.2845 1.10587L15.7811 1.96992L16.2845 1.10587ZM14.7967 1.81043L15.161 2.74173L14.7967 1.81043ZM13.484 2.03291L13.151 1.08996L13.484 2.03291ZM13.2214 2.55206L12.7462 1.67221V1.67221L13.2214 2.55206ZM11.5148 2.14416L12.2861 2.78066V2.78066L11.5148 2.14416ZM11.7774 3.03413L10.954 3.60167L11.7774 3.03413ZM12.215 3.62744L11.2907 4.0091L12.215 3.62744ZM10.1145 5.18488L10.0712 4.18582L10.1145 5.18488ZM9.02058 4.81406L9.66709 4.05116L9.02058 4.81406ZM6.87641 4.22075L7.04867 5.2058L6.87641 4.22075ZM5.78244 4.44324L6.64304 4.95253L5.78244 4.44324ZM5.56365 5.03656L6.51278 5.35142L5.56365 5.03656ZM5.47613 5.77819L4.47616 5.76996L5.47613 5.77819ZM6.08875 6.85357L7.05736 6.60498L6.08875 6.85357ZM11.3835 4.36908L10.8404 3.52941L11.3835 4.36908ZM22.3734 35.4809V36H24.3734V35.4809H22.3734ZM24.0311 36.7533L25.4752 35.4925L24.1598 33.9859L22.7157 35.2467L24.0311 36.7533ZM24.8175 34.7392C25.501 35.4691 25.5011 35.4691 25.5011 35.469C25.5011 35.469 25.5012 35.469 25.5012 35.4689C25.5013 35.4689 25.5014 35.4688 25.5015 35.4687C25.5017 35.4685 25.5019 35.4683 25.5022 35.468C25.5028 35.4675 25.5036 35.4667 25.5045 35.4658C25.5065 35.464 25.5092 35.4614 25.5126 35.4582C25.5195 35.4517 25.5292 35.4425 25.5416 35.4308C25.5663 35.4073 25.6014 35.3738 25.6444 35.3322C25.7304 35.2492 25.8491 35.133 25.9805 34.9997C26.2316 34.745 26.5707 34.3867 26.8026 34.0735L25.1953 32.8833C25.0544 33.0735 24.8028 33.3456 24.5564 33.5954C24.439 33.7145 24.3322 33.8191 24.2549 33.8938C24.2163 33.9311 24.1853 33.9606 24.1643 33.9806C24.1538 33.9905 24.1458 33.9981 24.1406 34.003C24.1381 34.0054 24.1362 34.0072 24.135 34.0082C24.1345 34.0088 24.1341 34.0091 24.1339 34.0093C24.1338 34.0094 24.1338 34.0095 24.1338 34.0095C24.1338 34.0095 24.1338 34.0094 24.1338 34.0094C24.1338 34.0094 24.1338 34.0094 24.1338 34.0094C24.1339 34.0093 24.1339 34.0093 24.8175 34.7392ZM26.8026 34.0735C26.9684 33.8496 27.0938 33.6604 27.2126 33.4803C27.3312 33.3005 27.4439 33.1286 27.5997 32.911L25.9735 31.7468C25.7923 31.9998 25.6598 32.2021 25.543 32.3792C25.4264 32.5559 25.3264 32.7062 25.1953 32.8833L26.8026 34.0735ZM27.5997 32.911C27.7435 32.7101 27.9175 32.5459 28.1847 32.2584C28.3001 32.1343 28.4388 31.9788 28.5569 31.808C28.6714 31.6425 28.8145 31.3956 28.8667 31.086L26.8945 30.7535C26.9117 30.6516 26.9488 30.6172 26.9119 30.6705C26.8788 30.7184 26.8208 30.7881 26.7197 30.8969C26.5541 31.0751 26.2161 31.4078 25.9735 31.7468L27.5997 32.911ZM28.8667 31.086C28.9093 30.8332 28.8987 30.5894 28.8831 30.4064C28.8681 30.2298 28.8392 30.0247 28.824 29.8999C28.8057 29.7492 28.7987 29.6545 28.8003 29.5877C28.8019 29.5187 28.8123 29.5483 28.778 29.6182L26.9832 28.7357C26.8394 29.0281 26.806 29.3219 26.8009 29.5402C26.7956 29.7608 26.8187 29.9767 26.8386 30.1411C26.8618 30.3315 26.8793 30.4463 26.8903 30.5756C26.8951 30.6326 26.8969 30.6755 26.8967 30.7081C26.8965 30.741 26.8943 30.7544 26.8945 30.7535L28.8667 31.086ZM28.778 29.6182C28.7746 29.6251 28.7914 29.5914 28.8534 29.5165C28.9111 29.4466 28.9911 29.3612 29.093 29.2646C29.2973 29.0709 29.56 28.8601 29.8405 28.6707L28.7212 27.0132C28.358 27.2585 28.0081 27.5372 27.7169 27.8133C27.4472 28.0691 27.1514 28.3935 26.9832 28.7357L28.778 29.6182ZM24.3512 35.6906C24.4913 35.0375 24.1309 34.2612 23.2563 33.9192L22.5278 35.7818C22.573 35.7994 22.5062 35.7836 22.4444 35.6746C22.3946 35.5867 22.3572 35.4504 22.3957 35.2711L24.3512 35.6906ZM23.2563 33.9192C23.1342 33.8714 22.8955 33.7373 22.6044 33.5454C22.3294 33.3643 22.0764 33.1775 21.9457 33.0718L20.6879 34.6267C20.878 34.7805 21.1851 35.0054 21.5038 35.2154C21.8064 35.4148 22.1949 35.6515 22.5278 35.7818L23.2563 33.9192ZM21.9457 33.0718C21.7279 32.8956 21.495 32.8003 21.2783 32.7547C21.0739 32.7118 20.8958 32.7162 20.798 32.7204C20.773 32.7214 20.7496 32.7227 20.7332 32.7237C20.7146 32.7247 20.7047 32.7252 20.6964 32.7256C20.6756 32.7264 20.6976 32.7245 20.7364 32.7278C20.7744 32.7311 20.8769 32.743 21.0005 32.8004C21.1397 32.8651 21.2755 32.9738 21.3731 33.1275L19.6851 34.2001C19.9559 34.6264 20.3818 34.7046 20.5639 34.7204C20.6563 34.7284 20.7376 34.7256 20.7808 34.7238C20.8044 34.7228 20.8277 34.7215 20.8433 34.7206C20.861 34.7196 20.8727 34.719 20.8838 34.7185C20.9663 34.715 20.822 34.7353 20.6879 34.6267L21.9457 33.0718ZM21.3731 33.1275C21.2646 32.9566 21.1503 32.8373 21.0742 32.7595C20.9967 32.6803 20.9572 32.6424 20.8999 32.5744L19.3707 33.8633C19.4884 34.003 19.5948 34.1072 19.6449 34.1584C19.6964 34.2111 19.6916 34.2103 19.6851 34.2001L21.3731 33.1275ZM20.8999 32.5744C20.7527 32.3998 20.5833 32.3019 20.4657 32.2475C20.3455 32.1918 20.2317 32.1599 20.1488 32.1404C19.9973 32.1048 19.8216 32.0843 19.7641 32.0763C19.7439 32.0735 19.7292 32.0713 19.7178 32.0695C19.7062 32.0676 19.7018 32.0666 19.7025 32.0668C19.7027 32.0668 19.714 32.0692 19.7327 32.075C19.7504 32.0805 19.7868 32.0927 19.8332 32.1156C19.905 32.151 20.1447 32.2828 20.2679 32.5976C20.4034 32.9441 20.2941 33.2349 20.2308 33.3541L18.4644 32.4161C18.3683 32.5971 18.2535 32.9382 18.4053 33.3263C18.5447 33.6825 18.8224 33.8471 18.9482 33.9091C19.0849 33.9766 19.2139 34.0075 19.2835 34.0224C19.3615 34.0391 19.4373 34.0501 19.4891 34.0573C19.6231 34.0759 19.6579 34.0795 19.691 34.0873C19.7625 34.1041 19.5526 34.0792 19.3707 33.8633L20.8999 32.5744ZM20.2308 33.3541C20.2206 33.3734 20.2278 33.3562 20.2735 33.2999C20.3141 33.25 20.3693 33.1885 20.4355 33.1216C20.5727 32.9831 20.72 32.8588 20.8277 32.7858L19.7054 31.1303C19.4631 31.2946 19.2165 31.5103 19.0146 31.7142C18.829 31.9015 18.6012 32.1586 18.4644 32.4161L20.2308 33.3541ZM20.8277 32.7858C21.143 32.572 21.3487 32.3414 21.4737 32.2195C21.6076 32.0889 21.81 31.9054 22.2633 31.6048L21.1579 29.9381C20.6047 30.3049 20.304 30.5665 20.0769 30.7881C19.8408 31.0185 19.8277 31.0475 19.7054 31.1303L20.8277 32.7858ZM22.2633 31.6048C22.7274 31.297 22.9906 31.1901 23.3141 31.0095C23.4409 30.9386 23.681 30.8011 23.8672 30.5703C24.1073 30.2727 24.1848 29.924 24.1489 29.5894L22.1603 29.8027C22.1554 29.7563 22.1535 29.6728 22.1813 29.5703C22.2101 29.4639 22.26 29.3773 22.3107 29.3144C22.3876 29.2191 22.4526 29.1998 22.3388 29.2634C22.1809 29.3515 21.7002 29.5784 21.1579 29.9381L22.2633 31.6048ZM24.1489 29.5894C24.1134 29.2581 23.9569 29.0011 23.8516 28.8534C23.7347 28.6893 23.5975 28.5461 23.4753 28.4316C23.2308 28.2023 22.9573 28.0057 22.7721 27.888L21.6993 29.5759C21.8058 29.6436 21.9743 29.7659 22.1075 29.8907C22.1743 29.9533 22.2099 29.9959 22.223 30.0142C22.2286 30.0221 22.2203 30.012 22.2077 29.9846C22.1957 29.9584 22.1703 29.8955 22.1603 29.8027L24.1489 29.5894ZM22.7535 27.8764C22.901 27.9657 22.9846 28.076 23.0285 28.1536C23.076 28.2376 23.0926 28.3092 23.0979 28.3523C23.1083 28.436 23.078 28.4126 23.1528 28.2407L21.3186 27.4433C21.0176 28.1355 20.9384 29.1156 21.7179 29.5874L22.7535 27.8764ZM23.1528 28.2407C23.2574 28 23.3471 27.6754 23.2775 27.3187C23.1993 26.9183 22.952 26.6342 22.6756 26.4718C22.4305 26.3278 22.1817 26.2869 22.0151 26.2751C21.8384 26.2625 21.6719 26.2769 21.535 26.3013L21.8862 28.2702C21.885 28.2704 21.8847 28.2704 21.8849 28.2704C21.885 28.2704 21.8851 28.2704 21.8853 28.2704C21.8854 28.2704 21.8855 28.2704 21.8854 28.2704C21.8854 28.2704 21.8853 28.2704 21.8849 28.2704C21.8845 28.2704 21.8839 28.2704 21.883 28.2704C21.8813 28.2704 21.878 28.2704 21.873 28.27C21.8691 28.2697 21.7802 28.2654 21.6623 28.1961C21.5132 28.1085 21.3605 27.9375 21.3145 27.7019C21.2771 27.5101 21.3365 27.4021 21.3186 27.4433L23.1528 28.2407ZM21.2988 26.3745C21.2937 26.3768 21.2773 26.3832 21.2588 26.388C21.2377 26.3935 21.2418 26.3897 21.2702 26.3896C21.2925 26.3895 21.4009 26.3909 21.5363 26.4644C21.6996 26.553 21.8219 26.7035 21.8749 26.8681L19.971 27.4808C20.0765 27.8087 20.2962 28.067 20.5828 28.2225C20.8416 28.3628 21.0992 28.3903 21.278 28.3896C21.6243 28.3882 21.9388 28.28 22.1224 28.197L21.2988 26.3745ZM21.8749 26.8681C21.8833 26.8943 21.8713 26.8623 21.8613 26.71C21.8509 26.5522 21.8504 26.45 21.8395 26.2418C21.8314 26.0863 21.8166 25.8543 21.765 25.6435C21.7397 25.5402 21.6886 25.3668 21.5741 25.1947C21.4492 25.007 21.2008 24.7576 20.8002 24.701L20.5205 26.6814C20.1856 26.6341 19.9906 26.4252 19.9093 26.303C19.8702 26.2444 19.849 26.1954 19.8387 26.1689C19.828 26.1413 19.8234 26.1231 19.8224 26.119C19.821 26.1133 19.8249 26.1284 19.8299 26.1752C19.8346 26.2193 19.8386 26.2751 19.8422 26.3458C19.8478 26.4528 19.8555 26.689 19.8656 26.8418C19.8761 27 19.897 27.2507 19.971 27.4808L21.8749 26.8681ZM20.8002 24.701C20.7379 24.6922 20.8011 24.6996 20.6642 24.6761C20.5618 24.6585 20.4409 24.6451 20.2887 24.65C20.0274 24.6585 19.7153 24.7217 19.2763 24.8333L19.7691 26.7716C20.2052 26.6607 20.3307 26.6497 20.3538 26.649C20.354 26.649 20.3522 26.649 20.3487 26.6489C20.3452 26.6489 20.341 26.6487 20.3364 26.6483C20.3265 26.6475 20.321 26.6464 20.3256 26.6472C20.3383 26.6494 20.3426 26.6504 20.3838 26.6583C20.4178 26.6649 20.4645 26.6735 20.5205 26.6814L20.8002 24.701ZM19.2763 24.8333C18.993 24.9053 18.9739 24.8598 19.088 24.8912C19.1559 24.9099 19.2915 24.9628 19.4197 25.1013C19.5515 25.2437 19.6475 25.4501 19.6475 25.6912H17.6475C17.6475 26.347 18.156 26.709 18.557 26.8194C18.9337 26.9231 19.3522 26.8776 19.7691 26.7716L19.2763 24.8333ZM19.548 26.126C19.6835 25.8454 19.7599 25.4981 19.7745 25.166C19.7891 24.8342 19.7474 24.3963 19.5257 23.9892L17.7693 24.9458C17.7609 24.9303 17.7653 24.9322 17.7704 24.9605C17.7754 24.9883 17.7786 25.0284 17.7765 25.078C17.7743 25.1273 17.7673 25.1747 17.7582 25.2137C17.7485 25.2559 17.7408 25.2692 17.7469 25.2565L19.548 26.126ZM19.5257 23.9892C19.4345 23.8217 19.337 23.6798 19.2877 23.6053C19.2593 23.5624 19.2465 23.5419 19.2392 23.5293C19.2327 23.518 19.2408 23.5302 19.2514 23.5589C19.2631 23.5904 19.2775 23.6406 19.2825 23.7046C19.2876 23.7699 19.2815 23.8305 19.2694 23.8812C19.2475 23.9728 19.2154 23.9932 19.2692 23.9224L17.6758 22.7136C17.5326 22.9023 17.3911 23.136 17.3241 23.4164C17.2499 23.727 17.2862 24.0117 17.3762 24.2544C17.452 24.4587 17.5667 24.6288 17.6203 24.7097C17.6899 24.8149 17.7292 24.8723 17.7693 24.9458L19.5257 23.9892ZM19.2692 23.9224C19.4547 23.6778 19.6408 23.4268 19.7567 23.1589C19.8989 22.8303 19.91 22.5451 19.91 22.3168H17.91C17.91 22.396 17.9071 22.4149 17.9074 22.413C17.9094 22.3994 17.915 22.3788 17.9212 22.3646C17.9236 22.3591 17.916 22.3783 17.8749 22.44C17.8331 22.5026 17.7718 22.587 17.6758 22.7136L19.2692 23.9224ZM19.91 22.3168C19.91 21.779 19.6168 21.3568 19.4553 21.1515C19.2651 20.9097 19.0553 20.7212 18.9439 20.6268L17.6509 22.1526C17.7146 22.2066 17.8111 22.2962 17.8834 22.3881C17.8999 22.409 17.9124 22.4267 17.9215 22.4408C17.9259 22.4478 17.9292 22.4532 17.9314 22.4572C17.9325 22.4592 17.9333 22.4607 17.9339 22.4617C17.9344 22.4627 17.9346 22.4632 17.9346 22.4632C17.9346 22.4632 17.9343 22.4625 17.9338 22.4613C17.9332 22.46 17.9324 22.458 17.9315 22.4554C17.9295 22.4502 17.9266 22.4418 17.9236 22.4302C17.9176 22.4074 17.91 22.3686 17.91 22.3168H19.91ZM18.9439 20.6268C19.1456 20.7977 19.2102 21.0008 19.2309 21.0929C19.2418 21.1419 19.2451 21.1795 19.2462 21.199C19.2474 21.2193 19.2469 21.2314 19.2469 21.2317C19.2469 21.2323 19.247 21.2277 19.2481 21.2146C19.2493 21.2013 19.2508 21.1857 19.2532 21.162C19.2571 21.1224 19.2651 21.0475 19.2688 20.9711C19.2726 20.895 19.2748 20.7789 19.256 20.6485C19.2374 20.5196 19.1914 20.3257 19.062 20.1314C18.9205 19.9189 18.714 19.7589 18.4678 19.6746C18.2419 19.5972 18.0297 19.599 17.8709 19.6182L18.1113 21.6037C18.0801 21.6075 17.9677 21.6174 17.8196 21.5667C17.651 21.5089 17.5 21.394 17.3974 21.24C17.307 21.1043 17.2835 20.9824 17.2764 20.9337C17.2692 20.8836 17.2721 20.8561 17.2713 20.872C17.2705 20.8875 17.2686 20.9078 17.2632 20.9617C17.259 21.0033 17.2509 21.0814 17.2481 21.1618C17.2455 21.2374 17.2444 21.3746 17.279 21.5293C17.3144 21.6875 17.4054 21.9446 17.6509 22.1526L18.9439 20.6268ZM17.8709 19.6182C17.7035 19.6385 17.352 19.6425 17.0258 19.6189C16.8646 19.6072 16.7518 19.5917 16.6959 19.5798C16.6611 19.5724 16.6933 19.5757 16.7554 19.6039C16.7851 19.6173 16.8696 19.6575 16.9631 19.7401C17.0539 19.8202 17.2342 20.0138 17.276 20.3327L15.293 20.5927C15.3373 20.9302 15.5291 21.142 15.6395 21.2394C15.7527 21.3393 15.865 21.3962 15.9297 21.4255C16.0619 21.4854 16.1933 21.5176 16.2794 21.5359C16.4657 21.5756 16.6826 21.5993 16.8817 21.6137C17.2763 21.6422 17.7682 21.6453 18.1113 21.6037L17.8709 19.6182ZM17.276 20.3327C17.1793 19.5946 17.0077 18.938 16.8035 18.4245C16.7021 18.1693 16.5841 17.9281 16.4494 17.7232C16.3364 17.5512 16.1286 17.2736 15.8014 17.1152L14.9297 18.9153C14.7558 18.831 14.7175 18.7296 14.7781 18.8218C14.8171 18.8811 14.8769 18.9922 14.945 19.1635C15.08 19.5029 15.2147 19.9958 15.293 20.5927L17.276 20.3327ZM15.8014 17.1152C15.4868 16.9629 15.1934 16.9682 14.9945 16.9976C14.9051 17.0108 14.8268 17.0302 14.7859 17.0404C14.7317 17.0539 14.7236 17.0562 14.7112 17.0587C14.7035 17.0603 14.7809 17.0429 14.8874 17.068C14.9979 17.0941 15.0498 17.1436 15.041 17.1354L13.6773 18.5984C13.8873 18.7942 14.1361 18.9457 14.4285 19.0146C14.7169 19.0826 14.961 19.049 15.112 19.0181C15.1789 19.0045 15.248 18.9864 15.27 18.9809C15.3051 18.9722 15.3017 18.9739 15.2868 18.9761C15.2369 18.9835 15.0912 18.9934 14.9297 18.9153L15.8014 17.1152ZM11.6819 15.8858C11.6547 15.8383 11.6365 15.7824 11.6537 15.5865C11.658 15.5375 11.685 15.3085 11.6896 15.1709C11.6949 15.0104 11.6929 14.6805 11.5009 14.3551L9.77839 15.3714C9.67394 15.1944 9.69247 15.0502 9.69066 15.1044C9.6881 15.1814 9.68027 15.1961 9.66135 15.4116C9.63211 15.7446 9.6139 16.3005 9.94743 16.8815L11.6819 15.8858ZM11.5009 14.3551C11.2311 13.8979 10.775 13.7815 10.5397 13.7507C10.2826 13.7171 10.0287 13.746 9.82577 13.7847C9.40895 13.8641 8.95448 14.0347 8.56742 14.2314L9.47375 16.0143C9.73523 15.8813 10.0097 15.7856 10.2 15.7493C10.3007 15.7302 10.3198 15.739 10.2801 15.7338C10.2621 15.7314 9.96759 15.6921 9.77839 15.3714L11.5009 14.3551ZM8.56742 14.2314C8.14753 14.4449 7.80366 14.7101 7.61634 14.8427C7.50772 14.9196 7.45756 14.9496 7.43279 14.9617C7.41364 14.9712 7.47074 14.9387 7.57654 14.9387V16.9387C8.13919 16.9387 8.58405 16.6081 8.77196 16.4751C9.04013 16.2852 9.22136 16.1426 9.47375 16.0143L8.56742 14.2314ZM15.041 17.1354C14.6678 16.7876 14.2862 16.633 13.9423 16.5325C13.7916 16.4884 13.6178 16.4468 13.4901 16.4141C13.3488 16.378 13.2105 16.3401 13.0609 16.2894L12.4193 18.1837C12.6378 18.2577 12.8313 18.31 12.9943 18.3517C13.1708 18.3968 13.2737 18.4207 13.381 18.4521C13.5531 18.5024 13.6129 18.5384 13.6773 18.5984L15.041 17.1354ZM13.0609 16.2894C12.8419 16.2152 12.6175 16.1548 12.4298 16.1043C12.2301 16.0505 12.0711 16.0076 11.929 15.96C11.597 15.8487 11.6289 15.7934 11.6819 15.8858L9.94743 16.8815C10.2938 17.4848 10.9201 17.7312 11.2935 17.8563C11.504 17.9269 11.7253 17.9858 11.9098 18.0355C12.1063 18.0884 12.27 18.1331 12.4193 18.1837L13.0609 16.2894ZM7.57654 14.9387C7.40477 14.9387 7.17127 14.9664 6.99032 14.9883C6.77782 15.0139 6.55687 15.0425 6.32749 15.0664C6.09836 15.0903 5.8915 15.106 5.72441 15.1077C5.52451 15.1096 5.4962 15.0886 5.55495 15.11L4.8722 16.9898C5.176 17.1002 5.51636 17.1098 5.74392 17.1076C6.0043 17.105 6.28371 17.0818 6.53484 17.0556C6.78571 17.0295 7.03899 16.9969 7.22988 16.9739C7.32926 16.9619 7.41107 16.9525 7.47721 16.9462C7.54938 16.9393 7.57681 16.9387 7.57654 16.9387V14.9387ZM5.55495 15.11C5.67246 15.1526 5.83621 15.2575 5.94158 15.4551C6.03492 15.6301 6.02912 15.7795 6.02517 15.8247C6.02034 15.8799 6.01173 15.863 6.08996 15.6922C6.11037 15.6476 6.16646 15.529 6.19647 15.4616C6.22855 15.3895 6.28756 15.254 6.32251 15.105C6.34028 15.0293 6.36499 14.8976 6.35343 14.7388C6.34139 14.5735 6.28416 14.3181 6.07704 14.0917C5.86556 13.8606 5.60625 13.7776 5.41986 13.7539C5.24582 13.7317 5.09766 13.7544 5.00632 13.7737L5.42083 15.7303C5.39513 15.7358 5.29962 15.7547 5.1669 15.7378C5.02183 15.7193 4.79252 15.6507 4.60138 15.4417C4.4146 15.2376 4.36805 15.0124 4.35871 14.884C4.34984 14.7622 4.36925 14.6743 4.37539 14.6482C4.3871 14.5983 4.39757 14.5848 4.36914 14.6487C4.33863 14.7172 4.32225 14.7487 4.27155 14.8595C4.20756 14.9992 4.06221 15.3137 4.03277 15.6505C4.01651 15.8365 4.02644 16.1142 4.17687 16.3963C4.33933 16.7009 4.60154 16.8915 4.8722 16.9898L5.55495 15.11ZM5.00632 13.7737C4.73245 13.8318 4.50502 13.9443 4.3436 14.0355C4.202 14.1155 4.0214 14.2343 3.95911 14.273C3.85429 14.338 3.8426 14.3355 3.87477 14.3259C3.93488 14.3079 4.09945 14.28 4.283 14.3664L3.43111 16.1759C3.81158 16.355 4.17853 16.3225 4.44786 16.242C4.68925 16.1698 4.89362 16.0468 5.01306 15.9727C5.17504 15.8723 5.2269 15.8336 5.32735 15.7768C5.40797 15.7313 5.43215 15.7279 5.42083 15.7303L5.00632 13.7737ZM4.283 14.3664C4.33849 14.3925 4.3835 14.4596 4.22671 14.2677C4.18103 14.2118 4.02567 14.0146 3.78057 13.8814C3.45735 13.7058 3.0972 13.6939 2.7718 13.8121L3.45452 15.692C3.38734 15.7164 3.28438 15.7407 3.15683 15.733C3.0261 15.7251 2.91316 15.6863 2.8259 15.6389C2.74562 15.5953 2.69681 15.5498 2.68018 15.5335C2.66426 15.518 2.66028 15.5115 2.67787 15.533C2.68594 15.5429 2.69462 15.5538 2.70851 15.5712C2.72112 15.587 2.73783 15.6079 2.75586 15.6299C2.7922 15.6742 2.84127 15.7321 2.90104 15.7936C3.02347 15.9194 3.19526 16.0649 3.43111 16.1759L4.283 14.3664ZM2.7718 13.8121C2.7073 13.8355 2.70366 13.8192 2.77997 13.8276C2.81655 13.8317 2.96941 13.852 3.13413 13.9814C3.22365 14.0517 3.31091 14.1506 3.37304 14.2794C3.43505 14.4079 3.45678 14.5345 3.45678 14.6408H1.45678C1.45678 14.9991 1.61629 15.3323 1.8984 15.554C2.13832 15.7425 2.39785 15.7976 2.56023 15.8155C2.88816 15.8518 3.21271 15.7798 3.45452 15.692L2.7718 13.8121ZM3.45678 14.6408C3.45678 14.4586 3.41067 14.3089 3.3909 14.2475C3.36535 14.1682 3.33485 14.0938 3.31002 14.0363C3.26395 13.9295 3.19543 13.7866 3.15104 13.6906C3.03491 13.4396 2.97731 13.2823 2.96473 13.197L0.986139 13.4888C1.04649 13.898 1.22956 14.3006 1.33587 14.5304C1.4027 14.6748 1.44085 14.7526 1.47363 14.8286C1.48823 14.8624 1.4902 14.87 1.48727 14.8609C1.48551 14.8554 1.47933 14.8358 1.47309 14.8058C1.46744 14.7786 1.45678 14.7197 1.45678 14.6408H3.45678ZM2.96473 13.197C2.92562 12.9319 2.89059 12.6951 2.88093 12.5202C2.87562 12.424 2.88321 12.4211 2.87415 12.4693C2.87007 12.491 2.84954 12.5996 2.76816 12.7287C2.67395 12.8782 2.47263 13.0863 2.14253 13.1422L1.80833 11.1703C1.43448 11.2337 1.19806 11.469 1.07622 11.6623C0.9672 11.8352 0.926501 12.0044 0.908525 12.1001C0.871659 12.2963 0.876515 12.4955 0.883968 12.6304C0.899834 12.9178 0.952316 13.2595 0.986139 13.4888L2.96473 13.197ZM2.14253 13.1422C2.15992 13.1393 2.16279 13.1393 2.22236 13.1303C2.26705 13.1235 2.32858 13.1136 2.39765 13.0989C2.53176 13.0706 2.72538 13.0185 2.92615 12.9102C3.13432 12.7979 3.35824 12.6203 3.52481 12.3469C3.69199 12.0724 3.76309 11.7642 3.76309 11.4517H1.76309C1.76309 11.4593 1.76308 11.3946 1.81676 11.3064C1.86983 11.2193 1.93786 11.1709 1.97647 11.1501C2.00768 11.1332 2.01806 11.135 1.98396 11.1422C1.96893 11.1454 1.95012 11.1487 1.92183 11.153C1.90615 11.1554 1.89428 11.1571 1.87404 11.1601C1.85704 11.1626 1.83313 11.1661 1.80833 11.1703L2.14253 13.1422ZM3.76309 11.4517C3.76309 11.2877 3.76329 11.1728 3.76757 11.0767C3.7696 11.0312 3.77225 10.9981 3.77502 10.9739C3.7778 10.9498 3.78012 10.9398 3.78011 10.9398C3.77963 10.9418 3.76649 10.9954 3.71752 11.0623C3.66577 11.1329 3.60865 11.1714 3.5812 11.1859L2.64512 9.41849C2.18311 9.66318 1.93474 10.0518 1.83359 10.4804C1.75682 10.8057 1.76309 11.1843 1.76309 11.4517H3.76309ZM3.5812 11.1859C3.48502 11.2368 3.42746 11.2394 3.49778 11.2259C3.54448 11.217 3.61713 11.2066 3.72429 11.1947C3.82956 11.1829 3.9474 11.1719 4.08439 11.1589C4.21778 11.1463 4.36581 11.1321 4.51608 11.1152C4.80878 11.0821 5.1527 11.0343 5.46628 10.9495C5.73137 10.8778 6.19511 10.7265 6.50966 10.3457L4.9677 9.07202C5.078 8.93849 5.15518 8.96181 4.94439 9.01879C4.78208 9.06266 4.5608 9.09743 4.29193 9.12776C4.16142 9.14248 4.02959 9.15515 3.89565 9.16784C3.76531 9.1802 3.62835 9.19299 3.50298 9.20695C3.3795 9.2207 3.24568 9.23785 3.12168 9.26159C3.02129 9.28081 2.82881 9.32119 2.64512 9.41849L3.5812 11.1859ZM6.50966 10.3457C6.8998 9.87344 6.93193 9.25983 6.94543 8.97244C6.96582 8.5384 6.94971 8.37481 6.9848 8.18366L5.01767 7.82256C4.97853 8.03578 4.96671 8.24798 4.96081 8.41734C4.95343 8.62937 4.95527 8.71599 4.94764 8.87861C4.94129 9.01363 4.93101 9.09251 4.92035 9.13852C4.90962 9.18488 4.9111 9.14054 4.9677 9.07202L6.50966 10.3457ZM29.8405 28.6707C30.1983 28.429 30.7923 28.2576 31.6155 28.137C32.4681 28.012 33.2288 27.9763 34.1237 27.871L33.8899 25.8847C33.2094 25.9648 32.1638 26.0353 31.3255 26.1581C30.4578 26.2853 29.4765 26.5032 28.7212 27.0132L29.8405 28.6707ZM34.1237 27.871C34.8098 27.7902 35.3786 27.3666 35.8011 26.9528C36.2456 26.5175 36.6613 25.9599 37.0351 25.3803L35.3543 24.2963C35.0202 24.8145 34.6967 25.2349 34.4016 25.524C34.0845 25.8346 33.9133 25.8819 33.8899 25.8847L34.1237 27.871ZM37.0351 25.3803C37.4983 24.6621 37.9293 23.8456 38.2446 23.0524C38.5511 22.2816 38.7862 21.4395 38.7698 20.7L36.7703 20.7445C36.7779 21.0852 36.6573 21.6313 36.3861 22.3135C36.1238 22.9734 35.7551 23.6749 35.3543 24.2963L37.0351 25.3803ZM38.7682 20.7821C38.7862 20.4825 38.8559 19.983 39.0001 19.5165C39.1595 19.0006 39.3405 18.7534 39.4338 18.6887L38.2942 17.0451C37.6174 17.5144 37.2733 18.3303 37.0892 18.9261C36.8898 19.5715 36.7976 20.2327 36.7718 20.6623L38.7682 20.7821ZM39.4338 18.6887C39.914 18.3558 40.2682 17.9833 40.5784 17.6551C40.8948 17.3203 41.1842 17.01 41.5933 16.679L40.3355 15.1241C39.8074 15.5513 39.4316 15.9567 39.1247 16.2815C38.8115 16.6129 38.5842 16.8441 38.2942 17.0451L39.4338 18.6887ZM41.5933 16.679C42.076 16.2886 42.7077 15.7635 43.2143 15.2305C43.4665 14.9651 43.7172 14.6674 43.9048 14.3574C44.0772 14.0725 44.2844 13.6354 44.2351 13.1338L42.2447 13.3295C42.2304 13.1839 42.291 13.1612 42.1937 13.322C42.1116 13.4577 41.9696 13.637 41.7646 13.8527C41.3565 14.282 40.8155 14.7358 40.3355 15.1241L41.5933 16.679ZM44.2351 13.1338C44.147 12.2385 43.7904 11.2674 43.0201 10.5142L41.6218 11.9442C41.9892 12.3035 42.1927 12.8008 42.2447 13.3295L44.2351 13.1338ZM43.0201 10.5142C42.8044 10.3033 42.5332 10.194 42.4035 10.1431C42.2446 10.0809 42.0515 10.0186 41.8947 9.96639C41.5487 9.85111 41.2095 9.72953 40.8973 9.54843L39.8938 11.2784C40.3976 11.5707 40.9069 11.7454 41.2625 11.8638C41.4566 11.9285 41.5775 11.9675 41.6735 12.0052C41.7987 12.0542 41.7234 12.0435 41.6218 11.9442L43.0201 10.5142ZM40.8973 9.54843C40.3533 9.23288 39.9268 8.89635 39.4919 8.56758C39.1069 8.27656 38.5993 7.89279 38.026 7.74099L37.514 9.67436C37.6409 9.70796 37.8374 9.82403 38.2858 10.163C38.6843 10.4643 39.2205 10.8879 39.8938 11.2784L40.8973 9.54843ZM38.026 7.74099C37.4269 7.58234 36.8864 7.69232 36.5696 7.76089C36.3814 7.80163 36.2962 7.82296 36.2077 7.83566C36.1281 7.84709 36.1553 7.83224 36.2282 7.85127L35.7236 9.78656C36.0241 9.86491 36.3018 9.84266 36.4919 9.81538C36.673 9.78938 36.8767 9.74073 36.9926 9.71564C37.284 9.65258 37.413 9.64761 37.514 9.67436L38.026 7.74099ZM36.2282 7.85127C35.997 7.79097 35.7948 7.70443 35.438 7.57892C35.1423 7.47489 34.717 7.33685 34.2693 7.33685V9.33685C34.3467 9.33685 34.4903 9.36568 34.7744 9.4656C34.9974 9.54404 35.386 9.69852 35.7236 9.78656L36.2282 7.85127ZM34.2693 7.33685C33.8351 7.33685 33.5306 7.37639 33.3825 7.39055C33.3458 7.39405 33.3302 7.39495 33.3249 7.39515C33.3195 7.39535 33.3417 7.39405 33.3796 7.39825C33.42 7.40274 33.485 7.41415 33.5619 7.44453C33.6419 7.47616 33.7152 7.52066 33.7781 7.57392L32.4851 9.09977C32.9316 9.4781 33.4733 9.39098 33.5727 9.38147C33.7675 9.36286 33.9546 9.33685 34.2693 9.33685V7.33685ZM33.7781 7.57392C33.9288 7.70161 33.9634 7.83462 33.9413 7.77615C33.9358 7.76151 33.928 7.73838 33.9135 7.69204C33.9015 7.65388 33.8813 7.58795 33.8604 7.52603C33.801 7.34989 33.5793 6.65784 32.8346 6.44746L32.2909 8.37215C32.1209 8.32414 32.0154 8.21655 31.9695 8.15145C31.9382 8.10695 31.9397 8.0893 31.9652 8.16501C31.9772 8.20043 31.9871 8.233 32.0052 8.29073C32.0207 8.34028 32.043 8.41044 32.0703 8.4827C32.0974 8.5545 32.1377 8.65088 32.1965 8.75185C32.2553 8.85281 32.3464 8.98223 32.4851 9.09977L33.7781 7.57392ZM32.8346 6.44746C32.8473 6.45106 32.79 6.43022 32.578 6.3238C32.4086 6.23873 32.1676 6.11391 31.9182 5.99595C31.4454 5.77229 30.7466 5.47399 30.0651 5.44649L29.9844 7.44487C30.2218 7.45445 30.5951 7.58259 31.0631 7.80392C31.2841 7.90844 31.4807 8.01075 31.6805 8.11109C31.8378 8.19008 32.0813 8.31293 32.2909 8.37215L32.8346 6.44746ZM30.0651 5.44649C29.807 5.43608 29.5727 5.4555 29.3528 5.51314C29.1255 5.57272 28.9629 5.66077 28.8599 5.72054C28.7427 5.78857 28.7792 5.76709 28.7997 5.75936C28.8509 5.73996 28.8811 5.74272 28.8556 5.7424L28.8309 7.74225C29.0769 7.7453 29.2987 7.70894 29.5075 7.62992C29.6855 7.56256 29.8456 7.46094 29.864 7.45026C29.8966 7.43132 29.8816 7.4421 29.8599 7.44778C29.8456 7.45153 29.875 7.44045 29.9844 7.44487L30.0651 5.44649ZM28.8556 5.7424C28.9292 5.74331 29.0577 5.75437 29.205 5.81771C29.366 5.88696 29.5029 5.99884 29.6022 6.13736C29.6921 6.26285 29.7294 6.37961 29.745 6.43893C29.7604 6.49731 29.765 6.54082 29.7652 6.542C29.7682 6.56776 29.7552 6.30646 29.6451 6.05012C29.3977 5.47387 28.833 5.11672 28.0592 4.8645L27.4394 6.76605C28.0308 6.95882 27.9038 7.06384 27.8073 6.8392C27.7727 6.75865 27.7635 6.64551 27.7789 6.77582C27.7799 6.78439 27.7979 7.05314 27.9767 7.30258C28.2322 7.65896 28.6049 7.73945 28.8309 7.74225L28.8556 5.7424ZM28.0592 4.8645C27.9379 4.82498 27.8863 4.79615 27.8762 4.78988C27.8667 4.78397 27.9255 4.81766 27.986 4.91221C28.0542 5.01862 28.0884 5.14586 28.0869 5.26721C28.0857 5.3728 28.0581 5.43848 28.055 5.44585C28.0521 5.45279 28.0568 5.44023 28.0873 5.39112C28.102 5.36746 28.1171 5.34396 28.1388 5.31014C28.1584 5.27958 28.1842 5.2394 28.2096 5.19737C28.2549 5.12267 28.3347 4.98576 28.3889 4.81911C28.4447 4.64741 28.503 4.35262 28.3835 4.02169L26.5025 4.7014C26.4157 4.46129 26.4656 4.26614 26.4868 4.20102C26.5063 4.14094 26.5254 4.11753 26.4989 4.16138C26.4932 4.17078 26.3044 4.44966 26.2118 4.6697C26.0907 4.95709 25.9703 5.4731 26.3018 5.99077C26.5763 6.41936 27.0377 6.63512 27.4394 6.76605L28.0592 4.8645ZM28.3835 4.02169C28.1581 3.39803 27.574 3.26128 27.4111 3.22746C27.3036 3.20514 27.1958 3.19284 27.1352 3.18571C27.0597 3.17683 27.0191 3.17198 26.9818 3.16541C26.9022 3.15141 26.9615 3.14787 27.0438 3.21547C27.1552 3.30692 27.1682 3.40515 27.1641 3.37599L25.1839 3.6564C25.2454 4.09076 25.4335 4.48102 25.7746 4.76112C26.0866 5.01737 26.4304 5.09911 26.6352 5.13515C26.7401 5.15361 26.8417 5.16498 26.9016 5.17202C26.9358 5.17604 26.9587 5.17883 26.9783 5.18157C26.9974 5.18425 27.0046 5.1857 27.0044 5.18567C27.0039 5.18557 27 5.18475 26.9935 5.18302C26.987 5.18129 26.9766 5.17833 26.9632 5.17373C26.9377 5.16494 26.8926 5.14725 26.8384 5.1145C26.7152 5.0399 26.5757 4.90407 26.5025 4.7014L28.3835 4.02169ZM27.1641 3.37599C27.1066 2.9696 26.9826 2.57032 26.869 2.26899C26.8109 2.11489 26.7509 1.97423 26.6954 1.85755C26.6549 1.77246 26.5777 1.61473 26.4786 1.48878L24.9067 2.72538C24.8671 2.67505 24.8505 2.64155 24.8608 2.65999C24.8649 2.6675 24.8748 2.68612 24.8895 2.71712C24.9188 2.77859 24.9573 2.86745 24.9976 2.97453C25.0809 3.19554 25.154 3.4452 25.1839 3.6564L27.1641 3.37599ZM26.4786 1.48878C26.3387 1.31093 26.1185 1.09465 25.7944 0.986917C25.4335 0.866953 25.0902 0.928981 24.826 1.0627C24.5919 1.18126 24.4265 1.35052 24.3228 1.47274C24.2128 1.60224 24.1201 1.74168 24.0458 1.86241C23.926 2.05688 23.7347 2.4122 23.6565 2.54645C23.5271 2.76859 23.4682 2.8297 23.4708 2.82745L24.7638 4.35327C25.0509 4.10999 25.2574 3.77149 25.3846 3.55321C25.4558 3.43103 25.5262 3.30234 25.585 3.19615C25.6475 3.08339 25.6997 2.99077 25.7486 2.91137C25.7988 2.82998 25.8309 2.78654 25.8474 2.76713C25.8701 2.74043 25.8327 2.79474 25.7294 2.84704C25.5962 2.91449 25.3866 2.95894 25.1636 2.88481C25.0687 2.85329 25.002 2.80966 24.9625 2.77831C24.9427 2.76264 24.9288 2.74926 24.9202 2.74037C24.9115 2.73148 24.9072 2.72597 24.9067 2.72538L26.4786 1.48878ZM23.4708 2.82745C23.5205 2.78537 23.5883 2.74387 23.6717 2.71618C23.7536 2.68897 23.8263 2.68311 23.8782 2.68451C23.9591 2.68669 23.9953 2.70879 23.9053 2.67656C23.8655 2.6623 23.6784 2.58859 23.5125 2.54805C23.3201 2.50107 23.0271 2.45963 22.6968 2.55701L23.2624 4.47539C23.1972 4.49461 23.1397 4.49876 23.0982 4.49755C23.0782 4.49697 23.0628 4.49518 23.053 4.4937C23.048 4.49296 23.0442 4.49226 23.0417 4.49177C23.0393 4.49127 23.038 4.49095 23.0379 4.49094C23.0379 4.49093 23.0389 4.49118 23.0411 4.4918C23.0433 4.49243 23.0465 4.49337 23.0509 4.49473C23.0599 4.49753 23.0719 4.50154 23.0887 4.50748C23.1698 4.5362 23.1208 4.51999 23.2309 4.55944C23.3338 4.59627 23.5595 4.67664 23.8243 4.68378C24.1368 4.69221 24.4725 4.60011 24.7638 4.35327L23.4708 2.82745ZM22.6968 2.55701C22.5702 2.59434 22.4563 2.63736 22.3495 2.69228C22.2538 2.7415 22.1531 2.81069 22.1813 2.79254C22.1909 2.78634 22.219 2.76862 22.2584 2.75C22.2981 2.73117 22.3339 2.7186 22.362 2.71057C22.4075 2.69755 22.421 2.70013 22.3574 2.70633L22.5515 4.69689C22.6622 4.6861 22.787 4.66921 22.9118 4.6335C23.0663 4.58933 23.1796 4.52855 23.2657 4.47301C23.3402 4.42495 23.2848 4.46026 23.2642 4.47087C23.2324 4.48719 23.2234 4.48687 23.2624 4.47539L22.6968 2.55701ZM22.3574 2.70633C22.3904 2.70312 22.5118 2.70102 22.6564 2.77684C22.7846 2.84409 22.8467 2.93227 22.8262 2.90643C22.8209 2.89977 22.8165 2.89407 22.8033 2.87708C22.7925 2.8631 22.7755 2.84118 22.756 2.81743C22.7171 2.77002 22.6548 2.69792 22.5699 2.62429C22.4818 2.54786 22.3714 2.47136 22.2354 2.41064C22.0991 2.34985 21.9569 2.31379 21.8131 2.29897L21.6081 4.28844C21.4796 4.2752 21.3526 4.21593 21.2594 4.13509C21.2247 4.10503 21.2063 4.08176 21.2091 4.08516C21.2322 4.11334 21.2057 4.082 21.2608 4.15127C21.3222 4.22843 21.4727 4.4144 21.7274 4.54799C21.9984 4.69015 22.2845 4.72293 22.5515 4.69689L22.3574 2.70633ZM21.8131 2.29897C21.3235 2.24853 20.6463 2.26071 19.9963 2.66997L21.0619 4.36242C21.1707 4.29392 21.3241 4.25918 21.6081 4.28844L21.8131 2.29897ZM19.9963 2.66997C19.8903 2.7367 19.8061 2.80109 19.7348 2.8624C19.701 2.89148 19.673 2.91738 19.6532 2.936C19.6276 2.96001 19.6268 2.96102 19.6176 2.96943C19.6131 2.97356 19.6356 2.95254 19.6714 2.93039C19.7054 2.90939 19.7256 2.90319 19.7148 2.90699L20.3807 4.79288C20.4983 4.75134 20.6123 4.69998 20.7225 4.63193C20.8345 4.56273 20.9155 4.49278 20.9687 4.44402C21.0588 4.36145 21.0354 4.37915 21.0619 4.36242L19.9963 2.66997ZM19.7148 2.90699C19.6822 2.91852 19.6697 2.92113 19.3396 2.90358C19.0403 2.88767 18.5649 2.87509 18.0306 3.13824L18.9143 4.93244C18.9756 4.90227 19.0253 4.88969 19.2335 4.90076C19.4109 4.91019 19.8883 4.96676 20.3807 4.79288L19.7148 2.90699ZM18.0306 3.13824C17.7865 3.2585 17.6156 3.42499 17.5161 3.53037C17.4644 3.5852 17.4179 3.63921 17.3865 3.67564C17.3501 3.71789 17.3319 3.73893 17.3155 3.75663C17.3001 3.77317 17.3028 3.76853 17.319 3.75537C17.3357 3.74181 17.38 3.70814 17.4508 3.67769C17.5264 3.64519 17.6228 3.62056 17.7322 3.62083C17.8404 3.62109 17.928 3.64565 17.9874 3.67081L17.2071 5.51233C17.5463 5.65604 17.9106 5.657 18.2406 5.51514C18.5136 5.3978 18.696 5.20905 18.7803 5.11834C18.828 5.06707 18.8734 5.01398 18.9016 4.98117C18.9349 4.94254 18.9542 4.92056 18.971 4.90272C19.0087 4.86274 18.986 4.89713 18.9143 4.93244L18.0306 3.13824ZM17.9874 3.67081C17.7885 3.58652 17.6458 3.51673 17.5417 3.45548C17.438 3.39453 17.3944 3.35467 17.3793 3.3386C17.37 3.32877 17.3759 3.33351 17.3794 3.34345C17.3809 3.3479 17.3703 3.32163 17.3719 3.23855L15.3722 3.20053C15.3617 3.75555 15.514 4.27552 15.9238 4.71032C16.2757 5.0837 16.755 5.32075 17.2071 5.51233L17.9874 3.67081ZM17.3719 3.23855C17.3679 3.44664 17.2677 3.57163 17.2518 3.59016C17.2509 3.59115 17.2594 3.58189 17.3732 3.48909C17.4365 3.43741 17.6418 3.27747 17.7889 3.0571C17.8737 2.93 17.9631 2.75072 17.9947 2.52382C18.0275 2.28832 17.9895 2.06213 17.9043 1.86254L16.0651 2.64828C16.0195 2.54167 15.9924 2.40178 16.0139 2.24782C16.0341 2.10246 16.0899 1.99995 16.1254 1.94677C16.1585 1.89722 16.1845 1.87462 16.176 1.88264C16.168 1.89018 16.1517 1.90448 16.1089 1.93937C16.0507 1.98687 15.8767 2.12179 15.7354 2.28612C15.579 2.46799 15.3803 2.77549 15.3722 3.20053L17.3719 3.23855ZM17.9043 1.86254C17.8389 1.70966 17.7437 1.5638 17.6133 1.43848C17.4837 1.31386 17.344 1.23308 17.2173 1.18077C17.0956 1.13047 16.9856 1.10641 16.9114 1.0933C16.8418 1.08102 16.7719 1.07345 16.7497 1.07084C16.6586 1.06011 16.7542 1.06205 16.8677 1.11712C16.9392 1.15186 17.0184 1.20572 17.0891 1.28388C17.1589 1.36114 17.1994 1.43885 17.2213 1.49764L15.3477 2.19738C15.4031 2.34572 15.4862 2.49317 15.6056 2.62522C15.7258 2.75816 15.8614 2.85183 15.994 2.91622C16.2296 3.03061 16.4659 3.05124 16.5157 3.05711C16.564 3.06279 16.5646 3.06301 16.5635 3.06281C16.5576 3.06177 16.5138 3.05408 16.4537 3.02927C16.3888 3.00243 16.3063 2.95625 16.2271 2.88016C16.1473 2.80337 16.0957 2.71996 16.0651 2.64828L17.9043 1.86254ZM17.2213 1.49764C17.2916 1.68581 17.2605 1.83531 17.2538 1.86424C17.2536 1.86526 17.245 1.8951 17.291 1.76358C17.3115 1.70483 17.4042 1.458 17.3798 1.16629C17.3656 0.995613 17.3126 0.805053 17.1941 0.623939C17.0778 0.446148 16.9288 0.323862 16.7879 0.241814L15.7811 1.96992C15.7073 1.92689 15.6053 1.84858 15.5205 1.71891C15.4335 1.58592 15.3964 1.44764 15.3868 1.33262C15.378 1.22749 15.3927 1.15081 15.3989 1.12291C15.405 1.09483 15.4104 1.0824 15.403 1.10343C15.3998 1.11281 15.396 1.12323 15.3893 1.14167C15.3834 1.15794 15.3749 1.18127 15.3662 1.206C15.3493 1.25464 15.325 1.32819 15.3051 1.41405C15.2661 1.58308 15.2268 1.87359 15.3477 2.19738L17.2213 1.49764ZM16.7879 0.241814C16.447 0.0431648 16.0432 -0.0613289 15.6135 0.0376117C15.226 0.126833 14.9579 0.353008 14.8108 0.4908C14.7329 0.563866 14.6614 0.639362 14.6103 0.693302C14.5528 0.754144 14.5154 0.793733 14.478 0.829949C14.4017 0.903964 14.3938 0.894255 14.4325 0.87913L15.161 2.74173C15.4884 2.61368 15.7232 2.40845 15.8706 2.26545C15.9452 2.19316 16.0148 2.11887 16.0629 2.06809C16.1175 2.01042 16.1502 1.97656 16.1784 1.95018C16.2436 1.88907 16.1954 1.95596 16.0623 1.98661C15.887 2.02697 15.772 1.96461 15.7811 1.96992L16.7879 0.241814ZM14.4325 0.87913C14.3062 0.928529 14.2437 0.932391 14.0997 0.935874C13.9077 0.940522 13.5783 0.939115 13.151 1.08996L13.8169 2.97586C13.9148 2.94131 13.9573 2.93991 14.1481 2.93529C14.3871 2.9295 14.7184 2.91483 15.161 2.74173L14.4325 0.87913ZM13.151 1.08996C13.0358 1.13064 12.8947 1.19592 12.7591 1.30614C12.6145 1.42359 12.4945 1.57752 12.4188 1.76333C12.3465 1.94057 12.3333 2.10079 12.3334 2.20749C12.3335 2.30577 12.346 2.39104 12.3487 2.41077C12.3542 2.45169 12.3499 2.425 12.3485 2.3946C12.3467 2.35552 12.3461 2.26901 12.3751 2.16076C12.4063 2.04437 12.4639 1.93224 12.5456 1.83711C12.6227 1.74729 12.7003 1.69699 12.7462 1.67221L13.6967 3.43192C13.8167 3.36707 13.9478 3.27415 14.063 3.13998C14.1828 3.00049 14.263 2.84226 14.3069 2.67883C14.3485 2.52355 14.3504 2.38906 14.3464 2.30188C14.3427 2.22339 14.3314 2.14846 14.3305 2.14182C14.3267 2.11399 14.3333 2.15239 14.3334 2.20525C14.3335 2.26655 14.326 2.38285 14.2707 2.51845C14.212 2.66263 14.1201 2.77721 14.0202 2.85839C13.9292 2.93235 13.8492 2.96446 13.8169 2.97586L13.151 1.08996ZM12.7462 1.67221C13.0184 1.52516 13.2313 1.63304 13.1604 1.60563C13.101 1.58263 13.0206 1.53599 12.8282 1.42244C12.6936 1.34303 12.4209 1.17779 12.1313 1.09759C11.9725 1.05362 11.7387 1.01359 11.4729 1.06742C11.1822 1.12626 10.9297 1.28213 10.7435 1.50767L12.2861 2.78066C12.1898 2.89739 12.0427 2.99263 11.8697 3.02765C11.7215 3.05765 11.6176 3.03061 11.5976 3.02506C11.5854 3.02169 11.6255 3.035 11.8117 3.1449C11.9401 3.22065 12.1885 3.37406 12.4387 3.47085C12.6774 3.56323 13.1806 3.71066 13.6967 3.43192L12.7462 1.67221ZM10.7435 1.50767C10.5669 1.72178 10.4481 1.98785 10.4297 2.28991C10.4125 2.57276 10.4883 2.80817 10.5593 2.96856C10.6743 3.22873 10.9001 3.5235 10.954 3.60167L12.6007 2.46659C12.5664 2.41678 12.5322 2.36879 12.5044 2.32983C12.4749 2.28835 12.4523 2.25643 12.4322 2.22693C12.3885 2.16286 12.3832 2.14786 12.3884 2.15968C12.3948 2.17415 12.4348 2.26782 12.4261 2.4113C12.4216 2.48485 12.4049 2.55868 12.3764 2.62787C12.3484 2.69587 12.3142 2.7466 12.2861 2.78066L10.7435 1.50767ZM10.954 3.60167C11.0958 3.80733 11.2488 3.95951 11.2797 3.99345C11.2976 4.01321 11.2952 4.01224 11.2893 4.00332C11.2826 3.99334 11.2835 3.99183 11.2907 4.0091L13.1393 3.24578C13.0235 2.9655 12.8862 2.78749 12.7595 2.64811C12.6476 2.52499 12.6422 2.52677 12.6007 2.46659L10.954 3.60167ZM10.0712 4.18582C9.91449 4.19262 9.84401 4.16724 9.81791 4.15629C9.78543 4.14267 9.74987 4.1213 9.66709 4.05116L8.37407 5.57697C8.51009 5.69224 8.73025 5.86891 9.04443 6.00067C9.36498 6.1351 9.73209 6.20242 10.1579 6.18394L10.0712 4.18582ZM9.66709 4.05116C9.79467 4.15927 9.82718 4.27093 9.82141 4.25424C9.80753 4.21411 9.81204 4.21447 9.77003 4.05062C9.74624 3.95782 9.68159 3.69798 9.50592 3.46278C9.40603 3.32904 9.26449 3.19352 9.07117 3.09576C8.87786 2.99799 8.67861 2.96118 8.49548 2.96118V4.96118C8.41098 4.96118 8.2934 4.94363 8.16857 4.8805C8.04374 4.81737 7.95752 4.73187 7.90355 4.65962C7.85393 4.59318 7.83275 4.53979 7.82795 4.52731C7.82302 4.51447 7.82452 4.51546 7.83269 4.54731C7.83647 4.56207 7.84055 4.57886 7.84618 4.60229C7.85128 4.62357 7.85824 4.65278 7.86546 4.68181C7.87988 4.73974 7.90109 4.82072 7.93124 4.90789C7.98843 5.07328 8.10701 5.35066 8.37407 5.57697L9.66709 4.05116ZM8.49548 2.96118C8.11691 2.96118 7.78381 3.01439 7.49327 3.07248C7.16178 3.13874 6.99051 3.18562 6.70414 3.2357L7.04867 5.2058C7.34012 5.15484 7.69395 5.07193 7.88533 5.03367C8.11766 4.98723 8.30518 4.96118 8.49548 4.96118V2.96118ZM6.70414 3.2357C6.48354 3.27428 6.37172 3.26763 6.07624 3.29736C5.96549 3.3085 5.78613 3.32991 5.60492 3.39196C5.41708 3.45627 5.1186 3.60148 4.92184 3.93396L6.64304 4.95253C6.50475 5.18622 6.30661 5.26569 6.2528 5.28411C6.20562 5.30027 6.19399 5.29561 6.27648 5.28731C6.31088 5.28385 6.35126 5.28062 6.40462 5.27664C6.45436 5.27294 6.51828 5.26838 6.58251 5.26309C6.71381 5.25227 6.8745 5.23626 7.04867 5.2058L6.70414 3.2357ZM4.92184 3.93396C4.81797 4.10949 4.75446 4.28354 4.71315 4.40798C4.69204 4.47159 4.67272 4.535 4.6574 4.58508C4.6409 4.63904 4.62792 4.68126 4.61451 4.72169L6.51278 5.35142C6.53474 5.28522 6.55436 5.221 6.56995 5.17001C6.58673 5.11515 6.59901 5.07512 6.6113 5.03809C6.63681 4.96126 6.64732 4.94529 6.64304 4.95253L4.92184 3.93396ZM4.61451 4.72169C4.46764 5.1644 4.47807 5.53872 4.47616 5.76996L6.47609 5.78643C6.47842 5.50446 6.48101 5.4472 6.51278 5.35142L4.61451 4.72169ZM4.47616 5.76996C4.4707 6.43258 4.8258 6.83391 5.01095 7.02962C5.22648 7.25743 5.14166 7.186 5.12014 7.10216L7.05736 6.60498C6.98521 6.32385 6.85439 6.11063 6.73264 5.95423C6.63009 5.8225 6.49543 5.68856 6.46379 5.65512C6.40663 5.59469 6.41786 5.59833 6.4354 5.63112C6.46278 5.68226 6.47646 5.74238 6.47609 5.78643L4.47616 5.76996ZM5.12014 7.10216C5.11981 7.10088 5.1221 7.10967 5.12404 7.13066C5.12595 7.1513 5.12707 7.17872 5.1264 7.21302C5.12504 7.28319 5.11664 7.36336 5.10334 7.44537C5.09027 7.52599 5.07426 7.59745 5.06167 7.64793C5.05548 7.67275 5.0504 7.69137 5.04735 7.7022C5.04584 7.70759 5.04485 7.71096 5.04451 7.71211C5.04434 7.71268 5.04434 7.71269 5.04451 7.71211C5.0446 7.71182 5.04473 7.71139 5.04491 7.7108C5.045 7.7105 5.0451 7.71017 5.04521 7.7098C5.04527 7.70962 5.04533 7.70942 5.04539 7.70922C5.04543 7.70911 5.04548 7.70895 5.04549 7.7089C5.04554 7.70874 5.04559 7.70857 6.00123 8.00311C6.95687 8.29765 6.95692 8.29748 6.95698 8.2973C6.957 8.29724 6.95705 8.29707 6.95709 8.29694C6.95716 8.2967 6.95724 8.29644 6.95733 8.29617C6.95749 8.29564 6.95767 8.29506 6.95786 8.29444C6.95824 8.29319 6.95867 8.29178 6.95914 8.29019C6.9601 8.28702 6.96125 8.28317 6.96258 8.27867C6.96524 8.26966 6.96862 8.25802 6.97258 8.24397C6.98047 8.21593 6.99075 8.17795 7.00223 8.13189C7.02499 8.04063 7.05359 7.91326 7.07755 7.76553C7.12038 7.50144 7.17072 7.04667 7.05736 6.60498L5.12014 7.10216ZM11.2907 4.0091C11.266 3.9494 11.2365 3.84857 11.2409 3.71814C11.2454 3.58269 11.2849 3.46062 11.3403 3.36284C11.3916 3.27222 11.4475 3.21797 11.4737 3.19483C11.4999 3.17183 11.5139 3.16466 11.501 3.1725C11.4633 3.19549 11.4129 3.21995 11.2776 3.28697C11.1643 3.34314 11.0031 3.42419 10.8404 3.52941L11.9266 5.20875C11.9859 5.17044 12.0582 5.13225 12.1657 5.07897C12.2513 5.03655 12.409 4.96137 12.5423 4.88004C12.6652 4.80511 12.9148 4.64126 13.0807 4.34829C13.2887 3.98084 13.2774 3.58021 13.1393 3.24578L11.2907 4.0091ZM10.8404 3.52941C10.4334 3.79267 10.1357 4.12922 10.0749 4.18633C10.0343 4.22446 10.0424 4.20987 10.0768 4.19394C10.1145 4.17647 10.1255 4.18347 10.0712 4.18582L10.1579 6.18394C10.4239 6.1724 10.6772 6.11996 10.9172 6.00879C11.154 5.89916 11.3245 5.75659 11.4446 5.64373C11.7051 5.39888 11.7215 5.34143 11.9266 5.20875L10.8404 3.52941Z" fill="#0A7FF6"/>
<path d="M24.4866 32.1913L23.699 32.8074C23.893 33.0555 24.1926 33.1976 24.5074 33.1911C24.8222 33.1845 25.1156 33.0301 25.2992 32.7742L24.4866 32.1913ZM39.2599 14.3401C39.5983 13.9036 39.5189 13.2755 39.0824 12.937C38.646 12.5986 38.0178 12.6781 37.6794 13.1145L39.2599 14.3401ZM19.2855 9.23118C19.1454 8.69696 18.5987 8.37747 18.0645 8.51758C17.5303 8.65768 17.2108 9.20433 17.3509 9.73855L19.2855 9.23118ZM21.4129 21.2849L20.4457 21.5386L20.4476 21.5458L20.4496 21.553L21.4129 21.2849ZM6.90883 12.0505C6.56853 11.6155 5.94004 11.5388 5.50505 11.8791C5.07006 12.2194 4.9933 12.8479 5.3336 13.2828L6.90883 12.0505ZM25.2992 32.7742C27.3554 29.9079 30.8422 25.3035 33.8223 21.4064C35.3108 19.4598 36.6704 17.6931 37.6578 16.4129C38.1515 15.7729 38.5521 15.2545 38.8293 14.8963C38.9679 14.7171 39.0756 14.578 39.1486 14.4837C39.1851 14.4366 39.213 14.4006 39.2317 14.3765C39.241 14.3644 39.2481 14.3553 39.2528 14.3492C39.2552 14.3461 39.257 14.3439 39.2582 14.3423C39.2587 14.3416 39.2592 14.341 39.2595 14.3406C39.2596 14.3404 39.2597 14.3403 39.2598 14.3402C39.2599 14.3401 39.2599 14.3401 38.4697 13.7273C37.6794 13.1145 37.6794 13.1146 37.6793 13.1147C37.6792 13.1148 37.6791 13.1149 37.6789 13.1151C37.6786 13.1155 37.6782 13.1161 37.6776 13.1169C37.6764 13.1184 37.6746 13.1208 37.6722 13.1238C37.6674 13.13 37.6603 13.1392 37.6509 13.1513C37.632 13.1756 37.6041 13.2117 37.5674 13.259C37.4942 13.3536 37.3862 13.493 37.2474 13.6725C36.9697 14.0314 36.5685 14.5505 36.0742 15.1914C35.0855 16.4731 33.7242 18.2421 32.2336 20.1915C29.2554 24.0861 25.7507 28.7137 23.6741 31.6084L25.2992 32.7742ZM25.448 31.9162C24.7432 29.4526 23.9753 26.7279 23.3835 24.6185C23.0876 23.5639 22.8358 22.6634 22.6579 22.0265C22.569 21.7081 22.4986 21.4556 22.4504 21.2828C22.4263 21.1963 22.4078 21.1298 22.3953 21.0849C22.389 21.0625 22.3843 21.0454 22.3811 21.034C22.3795 21.0283 22.3783 21.024 22.3775 21.0211C22.3771 21.0197 22.3768 21.0186 22.3766 21.0179C22.3765 21.0175 22.3765 21.0172 22.3764 21.0171C22.3764 21.017 22.3764 21.0169 22.3764 21.0169C22.3763 21.0168 22.3763 21.0168 21.4129 21.2849C20.4496 21.553 20.4496 21.553 20.4496 21.5531C20.4496 21.5531 20.4496 21.5532 20.4496 21.5533C20.4497 21.5535 20.4498 21.5538 20.4499 21.5541C20.4501 21.5549 20.4504 21.556 20.4508 21.5574C20.4516 21.5603 20.4528 21.5647 20.4544 21.5704C20.4576 21.5819 20.4624 21.599 20.4686 21.6215C20.4812 21.6665 20.4997 21.7332 20.5239 21.8198C20.5721 21.9929 20.6426 22.2457 20.7316 22.5644C20.9096 23.2019 21.1617 24.1032 21.4578 25.1587C22.0501 27.2695 22.819 29.998 23.5252 32.4663L25.448 31.9162ZM22.3802 21.0312L19.2855 9.23118L17.3509 9.73855L20.4457 21.5386L22.3802 21.0312ZM5.3336 13.2828C5.74332 13.8066 6.88163 15 8.34684 16.5079C9.83038 18.0346 11.7277 19.9628 13.6796 21.9661C17.6151 26.0052 21.7938 30.3721 23.699 32.8074L25.2742 31.5751C23.2867 29.0346 19.0183 24.5794 15.112 20.5703C13.143 18.5495 11.2708 16.647 9.78117 15.1141C8.27319 13.5622 7.23463 12.467 6.90883 12.0505L5.3336 13.2828Z" fill="url(#paint0_linear_303_16)"/>
<defs>
<linearGradient id="paint0_linear_303_16" x1="22.2954" y1="9.48486" x2="22.2954" y2="32.1913" gradientUnits="userSpaceOnUse">
<stop stop-color="#F6CE1F" stop-opacity="0"/>
<stop offset="0.0001" stop-color="white" stop-opacity="0"/>
<stop offset="0.453125" stop-color="#F6CE1F"/>
</linearGradient>
</defs>
</svg>
