<svg width="120" height="34" viewBox="0 0 120 34" fill="none" xmlns="http://www.w3.org/2000/svg">
<path d="M2.08204 13.9759L0.833393 14.8071L0.847162 14.8278L0.861608 14.848L2.08204 13.9759ZM12.898 27.7831L11.7166 28.7074C12.0077 29.0794 12.457 29.2926 12.9292 29.2828C13.4015 29.273 13.8415 29.0413 14.1168 28.6575L12.898 27.7831ZM22.8762 13.8742L21.6671 12.9865L21.6622 12.9931L21.6574 12.9999L22.8762 13.8742ZM9.01342 14.2811L10.4486 13.8448L10.4301 13.7839L10.4064 13.7247L9.01342 14.2811ZM10 17.5L11.434 17.06L11.425 17.0305L11.4147 17.0014L10 17.5ZM2.91997 15.1131L4.10139 14.1888L4.09531 14.181L4.08912 14.1733L2.91997 15.1131ZM14.1168 28.6575C16.0652 25.9416 18.5597 22.4644 20.5672 19.6661C21.5709 18.267 22.4528 17.0376 23.0839 16.158C23.3994 15.7182 23.6521 15.3659 23.826 15.1234C23.913 15.0022 23.9802 14.9085 24.0257 14.8451C24.0485 14.8134 24.0658 14.7893 24.0774 14.7731C24.0832 14.765 24.0876 14.7588 24.0905 14.7548C24.092 14.7527 24.0931 14.7511 24.0939 14.7501C24.0943 14.7496 24.0945 14.7493 24.0947 14.749C24.0948 14.7488 24.0949 14.7487 24.0949 14.7487C24.0949 14.7486 24.095 14.7486 22.8762 13.8742C21.6574 12.9999 21.6573 12.9999 21.6573 13C21.6572 13 21.6572 13.0001 21.6571 13.0003C21.6569 13.0005 21.6566 13.0009 21.6562 13.0014C21.6555 13.0025 21.6544 13.004 21.6529 13.006C21.65 13.0101 21.6456 13.0162 21.6398 13.0243C21.6282 13.0406 21.6109 13.0647 21.5881 13.0964C21.5426 13.1598 21.4754 13.2535 21.3884 13.3747C21.2145 13.6171 20.9618 13.9695 20.6462 14.4093C20.0152 15.2889 19.1333 16.5183 18.1296 17.9174C16.1221 20.7157 13.6276 24.1929 11.6792 26.9088L14.1168 28.6575ZM24.0853 14.762C24.0852 14.762 24.0847 14.7627 24.0838 14.7639C24.0831 14.7648 24.0811 14.7676 24.0783 14.7713C24.0775 14.7724 24.0685 14.7844 24.0566 14.7994C24.0551 14.8014 24.032 14.8308 24.0009 14.8658C23.9772 14.8918 23.8877 14.98 23.8188 15.0388C23.3249 15.3012 21.6755 14.7619 21.4168 13.5402C21.4608 13.3842 21.5428 13.1897 21.5658 13.1462C21.5773 13.1256 21.5963 13.0934 21.6034 13.0817C21.6159 13.0614 21.6262 13.0459 21.629 13.0417C21.6365 13.0303 21.6424 13.0217 21.6434 13.0202C21.6456 13.0171 21.6471 13.0149 21.6476 13.0141C21.648 13.0136 21.6483 13.0132 21.6484 13.013C21.6486 13.0128 21.6486 13.0127 21.6487 13.0127C21.6487 13.0127 21.6485 13.0129 21.6481 13.0135C21.6476 13.0141 21.6471 13.0149 21.6464 13.0159C21.645 13.0179 21.6431 13.0205 21.6408 13.0238C21.636 13.0304 21.63 13.039 21.6224 13.0496C21.5922 13.092 21.5431 13.1607 21.4802 13.2486C21.3547 13.4239 21.1768 13.6722 20.9906 13.9317C20.6157 14.4545 20.2159 15.011 20.139 15.1165L22.5633 16.8835C22.6489 16.7661 23.0582 16.1963 23.4284 15.6802C23.6148 15.4203 23.7935 15.1711 23.9198 14.9945C23.9828 14.9065 24.0334 14.8356 24.0656 14.7905C24.0808 14.7692 24.0947 14.7497 24.1037 14.7369C24.1058 14.7339 24.1102 14.7275 24.1152 14.7202C24.117 14.7176 24.1235 14.7082 24.1314 14.6963C24.1343 14.6919 24.1447 14.6762 24.1573 14.6557C24.1645 14.6439 24.1835 14.6116 24.195 14.5909C24.218 14.5474 24.3001 14.3529 24.3441 14.1969C24.0854 12.9752 22.4359 12.4359 21.942 12.6983C21.8731 12.7571 21.7836 12.8453 21.7599 12.8713C21.7286 12.9064 21.7055 12.9361 21.7038 12.9382C21.6915 12.9537 21.682 12.9664 21.6805 12.9684C21.6744 12.9765 21.6692 12.9836 21.6671 12.9865L24.0853 14.762ZM14.3402 27.3706C12.9907 22.6536 12.7944 21.8314 11.4425 17.0888L8.55746 17.9112C9.85731 22.4714 10.1447 23.6124 11.4559 28.1957L14.3402 27.3706ZM11.4147 17.0014C11.4188 17.0131 11.4081 16.9808 11.3725 16.8667C11.3423 16.7698 11.3019 16.6389 11.2544 16.4847C11.1596 16.1766 11.0386 15.7808 10.919 15.3893C10.7996 14.998 10.682 14.6118 10.5942 14.3235C10.5503 14.1793 10.5139 14.0596 10.4885 13.976C10.4757 13.9342 10.4658 13.9014 10.459 13.879C10.4556 13.8678 10.453 13.8593 10.4512 13.8535C10.4504 13.8507 10.4497 13.8485 10.4492 13.847C10.449 13.8463 10.4489 13.8457 10.4487 13.8454C10.4487 13.8452 10.4487 13.8451 10.4486 13.845C10.4486 13.8449 10.4486 13.8449 10.4486 13.8449C10.4486 13.8449 10.4486 13.8448 9.01342 14.2811C7.57825 14.7173 7.57825 14.7173 7.57826 14.7173C7.57827 14.7174 7.57828 14.7174 7.57829 14.7174C7.57832 14.7175 7.57836 14.7177 7.57842 14.7179C7.57853 14.7182 7.5787 14.7188 7.57893 14.7195C7.57938 14.721 7.58004 14.7232 7.58093 14.7261C7.58269 14.7319 7.5853 14.7405 7.58871 14.7517C7.59553 14.7741 7.60553 14.807 7.61828 14.8489C7.64377 14.9328 7.68025 15.0527 7.72421 15.1971C7.81212 15.4859 7.92999 15.8728 8.04975 16.2652C8.27904 17.0163 8.54147 17.8742 8.58528 17.9986L11.4147 17.0014ZM10.4064 13.7247C10.4018 13.7132 10.3894 13.6823 10.3715 13.6439C10.363 13.6258 10.3448 13.5875 10.3184 13.5407C10.3112 13.5281 10.2297 13.3762 10.0791 13.2237C9.9711 13.1245 9.60813 12.9013 9.34151 12.8144C8.87563 12.7838 8.0642 13.1148 7.77943 13.4224C7.66291 13.6214 7.54701 13.9542 7.5255 14.0747C7.51743 14.1466 7.51172 14.2658 7.51208 14.3127C7.5141 14.4 7.52353 14.4678 7.52688 14.4912C7.53142 14.5229 7.5361 14.5483 7.53898 14.5633C7.54857 14.613 7.55906 14.6532 7.56065 14.6594C7.56451 14.6744 7.56812 14.6877 7.57064 14.6968C7.57995 14.7306 7.59259 14.7736 7.60485 14.815C7.63104 14.9032 7.67016 15.0325 7.71692 15.186C7.81092 15.4945 7.94019 15.915 8.06929 16.3338C8.19851 16.753 8.32802 17.1719 8.42271 17.4779C8.47006 17.6308 8.50874 17.7557 8.53436 17.8383C8.54714 17.8795 8.55678 17.9106 8.56264 17.9294C8.56532 17.938 8.56788 17.9463 8.56951 17.9515C8.56966 17.9519 8.57112 17.9566 8.57283 17.9619C8.57342 17.9638 8.57498 17.9686 8.57596 17.9716C8.57788 17.9774 8.58541 17.9994 8.5912 18.0156C8.74864 18.329 10.7593 18.7978 11.4571 17.1429C11.4515 17.121 11.4436 17.0923 11.4417 17.0855C11.4392 17.0772 11.4372 17.0704 11.4371 17.0701C11.4365 17.0681 11.436 17.0663 11.4357 17.0654C11.4351 17.0634 11.4345 17.0615 11.434 17.06L8.56597 17.9399C8.56883 17.9493 8.5645 17.9353 8.56049 17.9215C8.55855 17.9147 8.5507 17.8862 8.54511 17.8643C9.24286 16.2093 11.2536 16.6782 11.411 16.9915C11.4168 17.0077 11.4243 17.0297 11.4262 17.0354C11.4271 17.0383 11.4286 17.043 11.4292 17.0448C11.4302 17.0478 11.4309 17.0501 11.4311 17.0507C11.4314 17.0516 11.4315 17.0522 11.4316 17.0523C11.4317 17.0527 11.4314 17.0518 11.4306 17.049C11.4298 17.0464 11.4287 17.043 11.4273 17.0386C11.4218 17.0209 11.4125 16.9908 11.3997 16.9497C11.3743 16.8678 11.3358 16.7435 11.2886 16.5909C11.1941 16.2857 11.065 15.8679 10.9362 15.4501C10.8072 15.0319 10.6792 14.6152 10.5867 14.3116C10.5402 14.159 10.5038 14.0386 10.4809 13.9615C10.4753 13.9426 10.4708 13.9274 10.4674 13.9157C10.4638 13.9032 10.4624 13.8983 10.4625 13.8986C10.4626 13.899 10.463 13.9003 10.4635 13.9024C10.4641 13.9044 10.465 13.9081 10.4663 13.913C10.4663 13.9131 10.4758 13.9488 10.4848 13.9957C10.4875 14.0099 10.4921 14.0347 10.4966 14.066C10.4999 14.0888 10.5093 14.1562 10.5113 14.2433C10.5116 14.29 10.5059 14.409 10.4979 14.4809C10.4764 14.6013 10.3605 14.934 10.244 15.133C9.95926 15.4405 9.14787 15.7715 8.68204 15.741C8.41546 15.654 8.05254 15.4308 7.94456 15.3317C7.79412 15.1794 7.71276 15.0277 7.70583 15.0154C7.67962 14.969 7.66158 14.9311 7.65338 14.9135C7.636 14.8763 7.6242 14.8469 7.62041 14.8374L10.4064 13.7247ZM2.08204 13.9759C0.861608 14.848 0.861618 14.848 0.861631 14.8481C0.861639 14.8481 0.861654 14.8481 0.861669 14.8481C0.861699 14.8482 0.861738 14.8482 0.861786 14.8483C0.861883 14.8484 0.862016 14.8486 0.862186 14.8488C0.862526 14.8493 0.863011 14.85 0.863638 14.8509C0.864892 14.8526 0.866714 14.8552 0.869073 14.8585C0.873791 14.8651 0.88066 14.8747 0.889437 14.8869C0.906988 14.9114 0.932194 14.9465 0.96311 14.9895C1.02486 15.0754 1.10979 15.1931 1.20224 15.3202C1.37776 15.5615 1.60952 15.877 1.75082 16.0528L4.08912 14.1733C4.00192 14.0649 3.8147 13.8118 3.62839 13.5556C3.53992 13.434 3.45822 13.3207 3.39856 13.2378C3.36877 13.1964 3.34458 13.1626 3.32791 13.1394C3.31958 13.1277 3.31313 13.1187 3.30881 13.1127C3.30665 13.1097 3.30502 13.1074 3.30396 13.1059C3.30342 13.1052 3.30303 13.1046 3.30278 13.1043C3.30266 13.1041 3.30257 13.104 3.30252 13.1039C3.30249 13.1039 3.30248 13.1038 3.30247 13.1038C3.30247 13.1038 3.30247 13.1038 3.30247 13.1038C3.30247 13.1038 3.30248 13.1038 2.08204 13.9759ZM1.73854 16.0373C2.43471 16.9272 4.01547 18.9266 5.87538 21.283C7.73767 23.6424 9.88367 26.3644 11.7166 28.7074L14.0795 26.8589C12.2422 24.5103 10.0926 21.7838 8.2302 19.4243C6.36539 17.0617 4.79223 15.0719 4.10139 14.1888L1.73854 16.0373ZM3.33069 13.1447C3.33249 13.1475 3.34146 13.1609 3.35276 13.179C3.35748 13.1866 3.37134 13.2089 3.38786 13.2383C3.39569 13.2522 3.41219 13.2821 3.43097 13.321C3.4359 13.3313 3.49836 13.4552 3.53858 13.6237C3.562 13.743 3.57268 14.1158 3.52755 14.3637C3.3121 14.8269 2.49475 15.4134 1.98785 15.4692C1.73809 15.4326 1.38814 15.3031 1.28281 15.2428C1.22605 15.2054 1.13745 15.1391 1.10464 15.1119C1.04565 15.0614 1.00385 15.0175 0.990571 15.0034C0.971761 14.9836 0.957256 14.9671 0.949073 14.9577C0.921953 14.9266 0.902007 14.9009 0.901183 14.8998C0.88817 14.8833 0.880464 14.8725 0.891415 14.8874C0.903979 14.9044 0.926909 14.9357 0.960041 14.9812C0.986323 15.0173 1.1567 15.2516 1.21874 15.3368C1.39995 15.5856 1.65627 15.9369 1.75746 16.061L4.08248 14.1651C4.08546 14.1688 4.07415 14.1547 4.04078 14.1105C4.01154 14.0717 3.97447 14.0218 3.93145 13.9636C3.84559 13.8473 3.74266 13.7064 3.64363 13.5705C3.50677 13.3826 3.48988 13.359 3.38497 13.2149C3.3525 13.1704 3.32385 13.1311 3.30441 13.1048C3.29936 13.098 3.28054 13.0724 3.26201 13.0488C3.2598 13.046 3.23883 13.019 3.21104 12.9871C3.20269 12.9775 3.18804 12.9609 3.1691 12.9409C3.1557 12.9267 3.1138 12.8827 3.05474 12.8322C3.02189 12.8049 2.93325 12.7386 2.87647 12.7011C2.77111 12.6409 2.42114 12.5114 2.17136 12.4748C1.66445 12.5306 0.847087 13.117 0.631634 13.5803C0.586496 13.8282 0.597177 14.201 0.620605 14.3204C0.660837 14.4889 0.723343 14.6129 0.728333 14.6233C0.747174 14.6624 0.763759 14.6924 0.771693 14.7065C0.788431 14.7363 0.802607 14.7591 0.807734 14.7673C0.819838 14.7867 0.830003 14.802 0.833393 14.8071L3.33069 13.1447Z" fill="#F6CE1F"/>
<path d="M36.016 21.992C36.864 22.696 37.584 23.176 38.176 23.432C38.784 23.672 39.28 23.792 39.664 23.792C40.384 23.792 40.744 23.504 40.744 22.928C40.744 22.576 40.576 22.296 40.24 22.088C39.904 21.864 39.288 21.608 38.392 21.32C37.88 21.144 37.384 20.92 36.904 20.648C36.424 20.376 36.032 20.016 35.728 19.568C35.424 19.12 35.272 18.544 35.272 17.84C35.272 16.832 35.664 16.064 36.448 15.536C37.232 14.992 38.216 14.72 39.4 14.72C40.344 14.72 41.208 14.88 41.992 15.2C42.776 15.504 43.488 15.888 44.128 16.352L42.832 18.728C42.384 18.296 41.856 17.936 41.248 17.648C40.656 17.36 40.112 17.216 39.616 17.216C39.296 17.216 39.048 17.28 38.872 17.408C38.712 17.536 38.632 17.704 38.632 17.912C38.632 18.28 38.848 18.552 39.28 18.728C39.728 18.904 40.36 19.152 41.176 19.472C41.752 19.68 42.28 19.92 42.76 20.192C43.24 20.464 43.624 20.808 43.912 21.224C44.216 21.64 44.368 22.192 44.368 22.88C44.368 24.048 44.008 24.936 43.288 25.544C42.568 26.152 41.544 26.456 40.216 26.456C39.016 26.456 37.952 26.264 37.024 25.88C36.096 25.48 35.256 24.984 34.504 24.392L36.016 21.992ZM52.0013 26.24C50.7053 26.24 49.5853 26.008 48.6413 25.544C47.7133 25.064 46.9933 24.392 46.4813 23.528C45.9693 22.664 45.7133 21.648 45.7133 20.48C45.7133 18.688 46.2653 17.28 47.3693 16.256C48.4733 15.232 49.9933 14.72 51.9293 14.72C53.8333 14.72 55.2973 15.208 56.3213 16.184C57.3613 17.16 57.8813 18.536 57.8813 20.312C57.8813 20.488 57.8813 20.656 57.8813 20.816C57.8813 20.976 57.8733 21.12 57.8573 21.248H49.4333C49.5293 22 49.7933 22.584 50.2253 23C50.6573 23.416 51.2253 23.624 51.9293 23.624C53.2093 23.624 54.1213 23.144 54.6653 22.184L57.9293 22.976C56.7613 25.152 54.7853 26.24 52.0013 26.24ZM51.8573 17.144C50.5453 17.144 49.7533 17.84 49.4813 19.232H53.9933C53.9293 18.592 53.7053 18.088 53.3213 17.72C52.9533 17.336 52.4653 17.144 51.8573 17.144ZM72.7431 20.48C72.7431 21.712 72.4871 22.76 71.9751 23.624C71.4791 24.488 70.8311 25.144 70.0311 25.592C69.2311 26.024 68.3831 26.24 67.4871 26.24C65.8551 26.24 64.5991 25.576 63.7191 24.248V26H60.0951V7.28H63.7191V16.712C64.5991 15.384 65.8551 14.72 67.4871 14.72C68.3831 14.72 69.2311 14.944 70.0311 15.392C70.8311 15.824 71.4791 16.472 71.9751 17.336C72.4871 18.184 72.7431 19.232 72.7431 20.48ZM68.9271 20.48C68.9271 19.616 68.6631 18.928 68.1351 18.416C67.6231 17.904 67.0071 17.648 66.2871 17.648C65.8871 17.648 65.4871 17.76 65.0871 17.984C64.6871 18.208 64.3591 18.528 64.1031 18.944C63.8471 19.36 63.7191 19.872 63.7191 20.48C63.7191 21.072 63.8471 21.584 64.1031 22.016C64.3591 22.432 64.6871 22.752 65.0871 22.976C65.4871 23.2 65.8871 23.312 66.2871 23.312C67.0071 23.312 67.6231 23.056 68.1351 22.544C68.6631 22.032 68.9271 21.344 68.9271 20.48ZM91.7562 18.896V26H88.1082V19.28C88.1082 18.624 87.9962 18.128 87.7722 17.792C87.5642 17.44 87.2122 17.264 86.7162 17.264C86.2362 17.264 85.8442 17.432 85.5402 17.768C85.2362 18.104 85.0842 18.608 85.0842 19.28V26H81.4362V19.28C81.4362 18.624 81.3242 18.128 81.1002 17.792C80.8922 17.44 80.5402 17.264 80.0442 17.264C79.5642 17.264 79.1722 17.432 78.8682 17.768C78.5642 18.104 78.4122 18.608 78.4122 19.28V26H74.9082V14.96H78.4122V16.592C78.7322 15.984 79.1562 15.52 79.6842 15.2C80.2122 14.864 80.8522 14.696 81.6042 14.696C82.4682 14.696 83.1562 14.848 83.6682 15.152C84.1962 15.456 84.5642 15.912 84.7722 16.52C85.1722 15.944 85.6682 15.496 86.2602 15.176C86.8522 14.856 87.5242 14.696 88.2762 14.696C89.5562 14.696 90.4522 15.064 90.9642 15.8C91.4922 16.536 91.7562 17.568 91.7562 18.896ZM92.9905 14.96H96.8785L99.3985 21.08L101.919 14.96H105.807L99.3985 27.296L92.9905 14.96ZM114.311 19.28C114.311 18.624 114.191 18.128 113.951 17.792C113.711 17.44 113.295 17.264 112.703 17.264C112.127 17.264 111.663 17.44 111.311 17.792C110.959 18.128 110.783 18.624 110.783 19.28V26H107.135V14.96H110.783V16.616C111.103 16.008 111.535 15.536 112.079 15.2C112.639 14.864 113.327 14.696 114.143 14.696C115.519 14.696 116.519 15.064 117.143 15.8C117.783 16.536 118.103 17.568 118.103 18.896V26H114.311V19.28Z" fill="black" fill-opacity="0.8"/>
</svg>
