<svg width="25" height="18" viewBox="0 0 25 18" fill="none" xmlns="http://www.w3.org/2000/svg">
<path d="M2.08204 1.97593L0.833393 2.80712L0.847162 2.82781L0.861608 2.84802L2.08204 1.97593ZM12.898 15.7831L11.7166 16.7074C12.0077 17.0794 12.457 17.2926 12.9292 17.2828C13.4015 17.273 13.8415 17.0413 14.1168 16.6575L12.898 15.7831ZM22.8762 1.87423L21.6671 0.986476L21.6622 0.993143L21.6574 0.999865L22.8762 1.87423ZM9.01342 2.28107L10.4486 1.84484L10.4301 1.78387L10.4064 1.7247L9.01342 2.28107ZM10 5.49998L11.434 5.06004L11.425 5.03053L11.4147 5.00141L10 5.49998ZM2.91997 3.11307L4.10139 2.18883L4.09531 2.18105L4.08912 2.17335L2.91997 3.11307ZM14.1168 16.6575C16.0652 13.9416 18.5597 10.4644 20.5672 7.66613C21.5709 6.267 22.4528 5.03762 23.0839 4.15801C23.3994 3.71821 23.6521 3.36586 23.826 3.12345C23.913 3.00225 23.9802 2.90853 24.0257 2.84512C24.0485 2.81341 24.0658 2.78928 24.0774 2.77307C24.0832 2.76497 24.0876 2.75885 24.0905 2.75475C24.092 2.75273 24.0931 2.75114 24.0939 2.75014C24.0943 2.74957 24.0945 2.74928 24.0947 2.74898C24.0948 2.74885 24.0949 2.74875 24.0949 2.74869C24.0949 2.74862 24.095 2.74859 22.8762 1.87423C21.6574 0.999865 21.6573 0.999897 21.6573 0.999962C21.6572 1.00003 21.6572 1.00012 21.6571 1.00025C21.6569 1.00051 21.6566 1.00089 21.6562 1.00141C21.6555 1.00246 21.6544 1.00396 21.6529 1.00603C21.65 1.01013 21.6456 1.01624 21.6398 1.02435C21.6282 1.04055 21.6109 1.06469 21.5881 1.09639C21.5426 1.15981 21.4754 1.25352 21.3884 1.37473C21.2145 1.61713 20.9618 1.96949 20.6462 2.40929C20.0152 3.28889 19.1333 4.51828 18.1296 5.91741C16.1221 8.71566 13.6276 12.1929 11.6792 14.9088L14.1168 16.6575ZM24.0853 2.76198C24.0852 2.76202 24.0847 2.76272 24.0838 2.7639C24.0831 2.76483 24.0811 2.76756 24.0783 2.77129C24.0775 2.77238 24.0685 2.78438 24.0566 2.79944C24.0551 2.80136 24.032 2.83081 24.0009 2.86583C23.9772 2.89181 23.8877 2.98002 23.8188 3.03875C23.3249 3.30115 21.6755 2.76185 21.4168 1.54016C21.4608 1.38422 21.5428 1.18971 21.5658 1.14622C21.5773 1.12564 21.5963 1.0934 21.6034 1.08166C21.6159 1.06135 21.6262 1.04586 21.629 1.04166C21.6365 1.03032 21.6424 1.02173 21.6434 1.02017C21.6456 1.01709 21.6471 1.01488 21.6476 1.0141C21.648 1.01359 21.6483 1.01322 21.6484 1.013C21.6486 1.01278 21.6486 1.01266 21.6487 1.01265C21.6487 1.01265 21.6485 1.01292 21.6481 1.01351C21.6476 1.01408 21.6471 1.01486 21.6464 1.01586C21.645 1.01788 21.6431 1.02051 21.6408 1.02382C21.636 1.03044 21.63 1.03901 21.6224 1.04956C21.5922 1.092 21.5431 1.16067 21.4802 1.24856C21.3547 1.42388 21.1768 1.67219 20.9906 1.93169C20.6157 2.45447 20.2159 3.01097 20.139 3.11647L22.5633 4.88353C22.6489 4.76609 23.0582 4.19631 23.4284 3.68024C23.6148 3.42031 23.7935 3.17106 23.9198 2.99452C23.9828 2.90647 24.0334 2.83564 24.0656 2.79049C24.0808 2.76921 24.0947 2.74968 24.1037 2.73686C24.1058 2.73386 24.1102 2.7275 24.1152 2.72024C24.117 2.71763 24.1235 2.70825 24.1314 2.69635C24.1343 2.69186 24.1447 2.67616 24.1573 2.6557C24.1645 2.64388 24.1835 2.61158 24.195 2.59095C24.218 2.54742 24.3001 2.35287 24.3441 2.19691C24.0854 0.975206 22.4359 0.435902 21.942 0.698318C21.8731 0.757066 21.7836 0.845311 21.7599 0.871336C21.7286 0.906444 21.7055 0.936053 21.7038 0.938185C21.6915 0.953688 21.682 0.966368 21.6805 0.96841C21.6744 0.976487 21.6692 0.983613 21.6671 0.986476L24.0853 2.76198ZM14.3402 15.3706C12.9907 10.6536 12.7944 9.83145 11.4425 5.0888L8.55746 5.91117C9.85731 10.4714 10.1447 11.6124 11.4559 16.1957L14.3402 15.3706ZM11.4147 5.00141C11.4188 5.01307 11.4081 4.98082 11.3725 4.86668C11.3423 4.76982 11.3019 4.63894 11.2544 4.48471C11.1596 4.17663 11.0386 3.78079 10.919 3.38928C10.7996 2.99797 10.682 2.61184 10.5942 2.32348C10.5503 2.17931 10.5139 2.05962 10.4885 1.97598C10.4757 1.93416 10.4658 1.90136 10.459 1.87902C10.4556 1.86785 10.453 1.8593 10.4512 1.85354C10.4504 1.85066 10.4497 1.84848 10.4492 1.84702C10.449 1.8463 10.4489 1.84575 10.4487 1.84538C10.4487 1.8452 10.4487 1.84506 10.4486 1.84497C10.4486 1.84493 10.4486 1.84489 10.4486 1.84487C10.4486 1.84485 10.4486 1.84484 9.01342 2.28107C7.57825 2.71729 7.57825 2.7173 7.57826 2.71733C7.57827 2.71735 7.57828 2.71739 7.57829 2.71744C7.57832 2.71753 7.57836 2.71767 7.57842 2.71786C7.57853 2.71824 7.5787 2.71879 7.57893 2.71953C7.57938 2.72101 7.58004 2.72321 7.58093 2.7261C7.58269 2.7319 7.5853 2.74049 7.58871 2.7517C7.59553 2.77413 7.60553 2.80702 7.61828 2.84893C7.64377 2.93276 7.68025 3.05267 7.72421 3.19709C7.81212 3.48589 7.92999 3.87284 8.04975 4.26516C8.27904 5.01629 8.54147 5.87423 8.58528 5.99856L11.4147 5.00141ZM10.4064 1.7247C10.4018 1.71324 10.3894 1.68225 10.3715 1.64395C10.363 1.62582 10.3448 1.5875 10.3184 1.54073C10.3112 1.5281 10.2297 1.3762 10.0791 1.22373C9.9711 1.12452 9.60813 0.901302 9.34151 0.814354C8.87563 0.783847 8.0642 1.11483 7.77943 1.42242C7.66291 1.62138 7.54701 1.95416 7.5255 2.07466C7.51743 2.14664 7.51172 2.26576 7.51208 2.31269C7.5141 2.40003 7.52353 2.46782 7.52688 2.49119C7.53142 2.5229 7.5361 2.54834 7.53898 2.56325C7.54857 2.61302 7.55906 2.65322 7.56065 2.65939C7.56451 2.67443 7.56812 2.68769 7.57064 2.69682C7.57995 2.73056 7.59259 2.77364 7.60485 2.81496C7.63104 2.90321 7.67016 3.03253 7.71692 3.18599C7.81092 3.49448 7.94019 3.91502 8.06929 4.33381C8.19851 4.753 8.32802 5.17194 8.42271 5.47788C8.47006 5.63085 8.50874 5.7557 8.53436 5.83833C8.54714 5.87954 8.55678 5.91059 8.56264 5.92944C8.56532 5.93805 8.56788 5.94627 8.56951 5.95147C8.56966 5.95194 8.57112 5.95658 8.57283 5.96191C8.57342 5.96377 8.57498 5.96857 8.57596 5.97157C8.57788 5.97737 8.58541 5.99941 8.5912 6.01563C8.74864 6.32903 10.7593 6.79784 11.4571 5.14288C11.4515 5.12098 11.4436 5.09234 11.4417 5.08549C11.4392 5.07716 11.4372 5.07038 11.4371 5.0701C11.4365 5.06805 11.436 5.06635 11.4357 5.06538C11.4351 5.06337 11.4345 5.06145 11.434 5.06004L8.56597 5.93992C8.56883 5.94926 8.5645 5.93533 8.56049 5.92151C8.55855 5.91474 8.5507 5.88615 8.54511 5.86428C9.24286 4.20935 11.2536 4.67815 11.411 4.99153C11.4168 5.00771 11.4243 5.0297 11.4262 5.03542C11.4271 5.03834 11.4286 5.04303 11.4292 5.04476C11.4302 5.04783 11.4309 5.05014 11.4311 5.05068C11.4314 5.05156 11.4315 5.05216 11.4316 5.05234C11.4317 5.05268 11.4314 5.05184 11.4306 5.04897C11.4298 5.04641 11.4287 5.04296 11.4273 5.03858C11.4218 5.02093 11.4125 4.99083 11.3997 4.94975C11.3743 4.86777 11.3358 4.74346 11.2886 4.59086C11.1941 4.28566 11.065 3.86785 10.9362 3.45005C10.8072 3.03186 10.6792 2.61518 10.5867 2.31159C10.5402 2.15901 10.5038 2.03857 10.4809 1.96153C10.4753 1.94255 10.4708 1.92737 10.4674 1.91574C10.4638 1.90323 10.4624 1.89832 10.4625 1.89858C10.4626 1.89897 10.463 1.90031 10.4635 1.90241C10.4641 1.9044 10.465 1.90808 10.4663 1.91301C10.4663 1.91309 10.4758 1.9488 10.4848 1.99572C10.4875 2.00992 10.4921 2.03475 10.4966 2.06596C10.4999 2.08882 10.5093 2.15621 10.5113 2.24326C10.5116 2.29003 10.5059 2.40904 10.4979 2.48092C10.4764 2.60132 10.3605 2.93403 10.244 3.13295C9.95926 3.4405 9.14787 3.77147 8.68204 3.74097C8.41546 3.65403 8.05254 3.43085 7.94456 3.3317C7.79412 3.17936 7.71276 3.0277 7.70583 3.01541C7.67962 2.96898 7.66158 2.93111 7.65338 2.91354C7.636 2.87635 7.6242 2.84691 7.62041 2.83743L10.4064 1.7247ZM2.08204 1.97593C0.861608 2.84802 0.861618 2.84804 0.861631 2.84806C0.861639 2.84807 0.861654 2.84809 0.861669 2.84811C0.861699 2.84815 0.861738 2.84821 0.861786 2.84827C0.861883 2.84841 0.862016 2.8486 0.862186 2.84883C0.862526 2.84931 0.863011 2.84999 0.863638 2.85086C0.864892 2.85262 0.866714 2.85517 0.869073 2.85846C0.873791 2.86506 0.88066 2.87465 0.889437 2.8869C0.906988 2.91139 0.932194 2.94652 0.96311 2.9895C1.02486 3.07535 1.10979 3.19308 1.20224 3.32019C1.37776 3.56152 1.60952 3.877 1.75082 4.0528L4.08912 2.17335C4.00192 2.06485 3.8147 1.81176 3.62839 1.5556C3.53992 1.43396 3.45822 1.32071 3.39856 1.23776C3.36877 1.19635 3.34458 1.16263 3.32791 1.13937C3.31958 1.12774 3.31313 1.11874 3.30881 1.1127C3.30665 1.10968 3.30502 1.10741 3.30396 1.10591C3.30342 1.10517 3.30303 1.10462 3.30278 1.10427C3.30266 1.1041 3.30257 1.10398 3.30252 1.10391C3.30249 1.10387 3.30248 1.10385 3.30247 1.10384C3.30247 1.10383 3.30247 1.10383 3.30247 1.10383C3.30247 1.10384 3.30248 1.10384 2.08204 1.97593ZM1.73854 4.03732C2.43471 4.9272 4.01547 6.92665 5.87538 9.283C7.73767 11.6424 9.88367 14.3644 11.7166 16.7074L14.0795 14.8589C12.2422 12.5103 10.0926 9.78384 8.2302 7.42429C6.36539 5.06173 4.79223 3.07189 4.10139 2.18883L1.73854 4.03732ZM3.33069 1.14474C3.33249 1.14745 3.34146 1.16091 3.35276 1.179C3.35748 1.18656 3.37134 1.20885 3.38786 1.23829C3.39569 1.25223 3.41219 1.28207 3.43097 1.32105C3.4359 1.33128 3.49836 1.45522 3.53858 1.62366C3.562 1.74297 3.57268 2.11576 3.52755 2.36367C3.3121 2.82692 2.49475 3.41337 1.98785 3.46916C1.73809 3.43257 1.38814 3.30308 1.28281 3.24283C1.22605 3.20543 1.13745 3.13915 1.10464 3.11188C1.04565 3.06142 1.00385 3.01745 0.990571 3.00343C0.971761 2.98356 0.957256 2.96713 0.949073 2.95774C0.921953 2.92661 0.902007 2.9009 0.901183 2.89985C0.88817 2.88325 0.880464 2.87253 0.891415 2.88735C0.903979 2.90436 0.926909 2.93573 0.960041 2.98122C0.986323 3.0173 1.1567 3.25162 1.21874 3.33679C1.39995 3.58556 1.65627 3.93691 1.75746 4.061L4.08248 2.16515C4.08546 2.1688 4.07415 2.15471 4.04078 2.11045C4.01154 2.07165 3.97447 2.02183 3.93145 1.96357C3.84559 1.8473 3.74266 1.70642 3.64363 1.57046C3.50677 1.38257 3.48988 1.35897 3.38497 1.21494C3.3525 1.17037 3.32385 1.13113 3.30441 1.10481C3.29936 1.09797 3.28054 1.07241 3.26201 1.04877C3.2598 1.04596 3.23883 1.01897 3.21104 0.987075C3.20269 0.97749 3.18804 0.960902 3.1691 0.940905C3.1557 0.926748 3.1138 0.882686 3.05474 0.83216C3.02189 0.804858 2.93325 0.738555 2.87647 0.701131C2.77111 0.640867 2.42114 0.511365 2.17136 0.474777C1.66445 0.530563 0.847087 1.11703 0.631634 1.58029C0.586496 1.82821 0.597177 2.20102 0.620605 2.32037C0.660837 2.48887 0.723343 2.61291 0.728333 2.62326C0.747174 2.66237 0.763759 2.69237 0.771693 2.7065C0.788431 2.73633 0.802607 2.75913 0.807734 2.76735C0.819838 2.78674 0.830003 2.80203 0.833393 2.80712L3.33069 1.14474Z" fill="#F6CE1F"/>
</svg>
